G04 EAGLE Gerber X2 export*
%TF.Part,Single*%
%TF.FileFunction,Copper,L2,Bot,Mixed*%
%TF.FilePolarity,Positive*%
%TF.GenerationSoftware,Autodesk,EAGLE,9.1.1*%
%TF.CreationDate,2018-10-01T15:01:31Z*%
G75*
%MOMM*%
%FSLAX34Y34*%
%LPD*%
%AMOC8*
5,1,8,0,0,1.08239X$1,22.5*%
G01*
%ADD10R,0.370000X1.000000*%
%ADD11R,1.000000X0.370000*%
%ADD12R,4.250000X4.250000*%
%ADD13R,1.100000X1.000000*%
%ADD14R,1.000000X1.100000*%
%ADD15C,5.334000*%
%ADD16C,0.254000*%
%ADD17C,0.450000*%
%ADD18R,3.000000X1.400000*%
%ADD19C,1.879600*%
%ADD20R,0.700000X0.400000*%
%ADD21C,0.508000*%
%ADD22C,0.152400*%
%ADD23C,0.304800*%
%ADD24C,0.604000*%

G36*
X178487Y78495D02*
X178487Y78495D01*
X178536Y78493D01*
X178608Y78514D01*
X178682Y78526D01*
X178725Y78549D01*
X178772Y78563D01*
X178833Y78606D01*
X178900Y78642D01*
X178933Y78677D01*
X178973Y78705D01*
X179017Y78765D01*
X179069Y78820D01*
X179089Y78864D01*
X179118Y78903D01*
X179141Y78975D01*
X179173Y79043D01*
X179178Y79091D01*
X179193Y79137D01*
X179191Y79213D01*
X179200Y79287D01*
X179189Y79335D01*
X179189Y79383D01*
X179163Y79454D01*
X179147Y79528D01*
X179123Y79569D01*
X179106Y79615D01*
X179060Y79674D01*
X179021Y79739D01*
X178984Y79770D01*
X178954Y79809D01*
X178931Y79826D01*
X178417Y80340D01*
X178082Y80919D01*
X177909Y81566D01*
X177909Y87377D01*
X194688Y87377D01*
X194708Y87380D01*
X194727Y87378D01*
X194829Y87400D01*
X194931Y87417D01*
X194948Y87426D01*
X194968Y87430D01*
X195057Y87483D01*
X195148Y87532D01*
X195162Y87546D01*
X195179Y87556D01*
X195246Y87635D01*
X195317Y87710D01*
X195326Y87728D01*
X195339Y87743D01*
X195378Y87839D01*
X195421Y87933D01*
X195423Y87953D01*
X195431Y87971D01*
X195449Y88138D01*
X195449Y88901D01*
X196212Y88901D01*
X196232Y88904D01*
X196251Y88902D01*
X196353Y88924D01*
X196455Y88941D01*
X196472Y88950D01*
X196492Y88954D01*
X196581Y89007D01*
X196672Y89056D01*
X196686Y89070D01*
X196703Y89080D01*
X196770Y89159D01*
X196841Y89234D01*
X196850Y89252D01*
X196863Y89267D01*
X196902Y89363D01*
X196945Y89457D01*
X196947Y89477D01*
X196955Y89495D01*
X196973Y89662D01*
X196973Y98441D01*
X209688Y98441D01*
X209708Y98444D01*
X209727Y98442D01*
X209829Y98464D01*
X209931Y98480D01*
X209948Y98490D01*
X209968Y98494D01*
X210057Y98547D01*
X210148Y98596D01*
X210162Y98610D01*
X210179Y98620D01*
X210246Y98699D01*
X210318Y98774D01*
X210326Y98792D01*
X210339Y98807D01*
X210378Y98903D01*
X210421Y98997D01*
X210423Y99017D01*
X210431Y99035D01*
X210449Y99202D01*
X210449Y120598D01*
X210446Y120618D01*
X210448Y120637D01*
X210426Y120739D01*
X210410Y120841D01*
X210400Y120858D01*
X210396Y120878D01*
X210343Y120967D01*
X210294Y121058D01*
X210280Y121072D01*
X210270Y121089D01*
X210191Y121156D01*
X210116Y121228D01*
X210098Y121236D01*
X210083Y121249D01*
X209987Y121288D01*
X209893Y121331D01*
X209873Y121333D01*
X209855Y121341D01*
X209688Y121359D01*
X206895Y121359D01*
X204514Y123740D01*
X204514Y125939D01*
X204499Y126030D01*
X204492Y126120D01*
X204479Y126150D01*
X204474Y126182D01*
X204431Y126263D01*
X204396Y126347D01*
X204370Y126379D01*
X204359Y126400D01*
X204336Y126422D01*
X204291Y126478D01*
X193578Y137190D01*
X193504Y137243D01*
X193435Y137303D01*
X193405Y137315D01*
X193379Y137334D01*
X193292Y137361D01*
X193207Y137395D01*
X193166Y137399D01*
X193144Y137406D01*
X193111Y137405D01*
X193040Y137413D01*
X167937Y137413D01*
X143522Y161828D01*
X143448Y161881D01*
X143379Y161941D01*
X143349Y161953D01*
X143322Y161972D01*
X143236Y161999D01*
X143151Y162033D01*
X143110Y162037D01*
X143087Y162044D01*
X143055Y162043D01*
X142984Y162051D01*
X107440Y162051D01*
X106901Y162590D01*
X106827Y162643D01*
X106757Y162703D01*
X106727Y162715D01*
X106701Y162734D01*
X106614Y162761D01*
X106529Y162795D01*
X106488Y162799D01*
X106466Y162806D01*
X106434Y162805D01*
X106362Y162813D01*
X105631Y162813D01*
X105541Y162799D01*
X105450Y162791D01*
X105420Y162779D01*
X105388Y162774D01*
X105308Y162731D01*
X105224Y162695D01*
X105192Y162669D01*
X105171Y162658D01*
X105149Y162635D01*
X105093Y162590D01*
X103538Y161035D01*
X100170Y161035D01*
X97789Y163416D01*
X97789Y164671D01*
X97778Y164741D01*
X97776Y164813D01*
X97758Y164862D01*
X97750Y164913D01*
X97716Y164977D01*
X97691Y165044D01*
X97659Y165085D01*
X97634Y165131D01*
X97582Y165180D01*
X97538Y165236D01*
X97494Y165264D01*
X97456Y165300D01*
X97391Y165330D01*
X97331Y165369D01*
X97280Y165382D01*
X97233Y165404D01*
X97162Y165412D01*
X97092Y165429D01*
X97040Y165425D01*
X96989Y165431D01*
X96918Y165416D01*
X96847Y165410D01*
X96799Y165390D01*
X96748Y165379D01*
X96687Y165342D01*
X96621Y165314D01*
X96565Y165269D01*
X96537Y165252D01*
X96522Y165235D01*
X96490Y165209D01*
X93343Y162062D01*
X91780Y160499D01*
X74436Y160499D01*
X74416Y160496D01*
X74397Y160498D01*
X74295Y160476D01*
X74193Y160460D01*
X74176Y160450D01*
X74156Y160446D01*
X74067Y160393D01*
X73976Y160344D01*
X73962Y160330D01*
X73945Y160320D01*
X73878Y160241D01*
X73806Y160166D01*
X73798Y160148D01*
X73785Y160133D01*
X73746Y160037D01*
X73703Y159943D01*
X73701Y159923D01*
X73693Y159905D01*
X73675Y159738D01*
X73675Y150636D01*
X73678Y150616D01*
X73676Y150597D01*
X73698Y150495D01*
X73714Y150393D01*
X73724Y150376D01*
X73728Y150356D01*
X73781Y150267D01*
X73830Y150176D01*
X73844Y150162D01*
X73854Y150145D01*
X73933Y150078D01*
X74008Y150006D01*
X74026Y149998D01*
X74041Y149985D01*
X74137Y149946D01*
X74231Y149903D01*
X74251Y149901D01*
X74269Y149893D01*
X74436Y149875D01*
X84932Y149875D01*
X85825Y148982D01*
X85825Y144018D01*
X85595Y143788D01*
X85583Y143772D01*
X85567Y143760D01*
X85511Y143673D01*
X85451Y143589D01*
X85445Y143570D01*
X85434Y143553D01*
X85409Y143452D01*
X85379Y143354D01*
X85379Y143334D01*
X85374Y143314D01*
X85382Y143211D01*
X85385Y143108D01*
X85392Y143089D01*
X85393Y143069D01*
X85434Y142974D01*
X85469Y142877D01*
X85482Y142861D01*
X85490Y142843D01*
X85595Y142712D01*
X85825Y142482D01*
X85825Y142416D01*
X85836Y142346D01*
X85838Y142274D01*
X85856Y142225D01*
X85864Y142174D01*
X85898Y142110D01*
X85923Y142043D01*
X85955Y142002D01*
X85980Y141956D01*
X86032Y141907D01*
X86076Y141851D01*
X86120Y141823D01*
X86158Y141787D01*
X86223Y141757D01*
X86283Y141718D01*
X86334Y141705D01*
X86381Y141683D01*
X86452Y141675D01*
X86522Y141658D01*
X86574Y141662D01*
X86625Y141656D01*
X86696Y141671D01*
X86767Y141677D01*
X86815Y141697D01*
X86866Y141708D01*
X86879Y141716D01*
X90330Y141716D01*
X90385Y141660D01*
X90402Y141649D01*
X90414Y141633D01*
X90501Y141577D01*
X90585Y141517D01*
X90604Y141511D01*
X90621Y141500D01*
X90721Y141475D01*
X90820Y141444D01*
X90840Y141445D01*
X90859Y141440D01*
X90962Y141448D01*
X91066Y141451D01*
X91085Y141458D01*
X91105Y141459D01*
X91200Y141500D01*
X91297Y141535D01*
X91313Y141548D01*
X91331Y141556D01*
X91462Y141660D01*
X93566Y143765D01*
X96934Y143765D01*
X99315Y141384D01*
X99315Y138016D01*
X98522Y137223D01*
X98469Y137149D01*
X98409Y137080D01*
X98397Y137050D01*
X98378Y137024D01*
X98351Y136937D01*
X98317Y136852D01*
X98313Y136811D01*
X98306Y136788D01*
X98307Y136756D01*
X98299Y136685D01*
X98299Y132087D01*
X93750Y127538D01*
X93738Y127522D01*
X93723Y127510D01*
X93667Y127422D01*
X93606Y127339D01*
X93600Y127320D01*
X93590Y127303D01*
X93564Y127202D01*
X93534Y127103D01*
X93534Y127084D01*
X93530Y127064D01*
X93538Y126961D01*
X93540Y126858D01*
X93547Y126839D01*
X93549Y126819D01*
X93589Y126724D01*
X93625Y126627D01*
X93637Y126611D01*
X93645Y126593D01*
X93750Y126462D01*
X110260Y109952D01*
X110334Y109899D01*
X110403Y109839D01*
X110433Y109827D01*
X110460Y109808D01*
X110547Y109781D01*
X110631Y109747D01*
X110672Y109743D01*
X110695Y109736D01*
X110727Y109737D01*
X110798Y109729D01*
X111528Y109729D01*
X116587Y104670D01*
X116587Y91522D01*
X114578Y89514D01*
X111073Y86009D01*
X111031Y85951D01*
X110982Y85899D01*
X110960Y85851D01*
X110930Y85809D01*
X110909Y85741D01*
X110878Y85676D01*
X110873Y85624D01*
X110857Y85574D01*
X110859Y85502D01*
X110851Y85431D01*
X110862Y85380D01*
X110864Y85328D01*
X110888Y85261D01*
X110903Y85191D01*
X110930Y85146D01*
X110948Y85097D01*
X110993Y85041D01*
X111030Y84980D01*
X111069Y84946D01*
X111102Y84905D01*
X111162Y84866D01*
X111217Y84820D01*
X111265Y84800D01*
X111309Y84772D01*
X111378Y84755D01*
X111445Y84728D01*
X111516Y84720D01*
X111547Y84712D01*
X111570Y84714D01*
X111611Y84709D01*
X129648Y84709D01*
X129684Y84683D01*
X129736Y84634D01*
X129754Y84626D01*
X129768Y84614D01*
X129797Y84602D01*
X129825Y84582D01*
X129894Y84561D01*
X129959Y84530D01*
X129981Y84528D01*
X129996Y84522D01*
X130034Y84518D01*
X130060Y84509D01*
X130099Y84510D01*
X130163Y84503D01*
X130164Y84503D01*
X130180Y84506D01*
X130203Y84503D01*
X130254Y84514D01*
X130306Y84516D01*
X130360Y84535D01*
X130407Y84543D01*
X130421Y84551D01*
X130444Y84556D01*
X130489Y84582D01*
X130537Y84600D01*
X130581Y84635D01*
X130624Y84658D01*
X130636Y84670D01*
X130655Y84682D01*
X130689Y84721D01*
X130729Y84754D01*
X130759Y84801D01*
X130794Y84836D01*
X130801Y84852D01*
X130815Y84869D01*
X130834Y84917D01*
X130862Y84961D01*
X130876Y85013D01*
X130897Y85059D01*
X130899Y85078D01*
X130907Y85097D01*
X130915Y85168D01*
X130923Y85199D01*
X130921Y85223D01*
X130925Y85264D01*
X130925Y96532D01*
X131818Y97425D01*
X133350Y97425D01*
X133370Y97428D01*
X133389Y97426D01*
X133491Y97448D01*
X133593Y97464D01*
X133610Y97474D01*
X133630Y97478D01*
X133719Y97531D01*
X133810Y97580D01*
X133824Y97594D01*
X133841Y97604D01*
X133908Y97683D01*
X133980Y97758D01*
X133988Y97776D01*
X134001Y97791D01*
X134040Y97887D01*
X134083Y97981D01*
X134085Y98001D01*
X134093Y98019D01*
X134111Y98186D01*
X134111Y98585D01*
X134097Y98675D01*
X134089Y98766D01*
X134077Y98796D01*
X134072Y98828D01*
X134029Y98908D01*
X133993Y98992D01*
X133967Y99024D01*
X133956Y99045D01*
X133933Y99067D01*
X133888Y99123D01*
X133095Y99916D01*
X133095Y103284D01*
X135476Y105665D01*
X138844Y105665D01*
X139797Y104712D01*
X139813Y104700D01*
X139825Y104684D01*
X139913Y104628D01*
X139996Y104568D01*
X140015Y104562D01*
X140032Y104551D01*
X140133Y104526D01*
X140232Y104496D01*
X140251Y104496D01*
X140271Y104491D01*
X140374Y104499D01*
X140477Y104502D01*
X140496Y104509D01*
X140516Y104511D01*
X140611Y104551D01*
X140708Y104587D01*
X140724Y104599D01*
X140742Y104607D01*
X140873Y104712D01*
X141826Y105665D01*
X145194Y105665D01*
X146147Y104712D01*
X146163Y104700D01*
X146175Y104684D01*
X146263Y104628D01*
X146346Y104568D01*
X146365Y104562D01*
X146382Y104551D01*
X146483Y104526D01*
X146582Y104496D01*
X146601Y104496D01*
X146621Y104491D01*
X146724Y104499D01*
X146827Y104502D01*
X146846Y104509D01*
X146866Y104511D01*
X146961Y104551D01*
X147058Y104587D01*
X147074Y104599D01*
X147092Y104607D01*
X147223Y104712D01*
X148176Y105665D01*
X151544Y105665D01*
X152497Y104712D01*
X152513Y104700D01*
X152525Y104684D01*
X152613Y104628D01*
X152696Y104568D01*
X152715Y104562D01*
X152732Y104551D01*
X152833Y104526D01*
X152932Y104496D01*
X152951Y104496D01*
X152971Y104491D01*
X153074Y104499D01*
X153177Y104502D01*
X153196Y104509D01*
X153216Y104511D01*
X153311Y104551D01*
X153408Y104587D01*
X153424Y104599D01*
X153442Y104607D01*
X153573Y104712D01*
X154526Y105665D01*
X157894Y105665D01*
X160275Y103284D01*
X160275Y99916D01*
X159482Y99123D01*
X159429Y99049D01*
X159369Y98980D01*
X159357Y98950D01*
X159338Y98924D01*
X159311Y98837D01*
X159277Y98752D01*
X159273Y98711D01*
X159266Y98688D01*
X159267Y98656D01*
X159259Y98585D01*
X159259Y98186D01*
X159261Y98174D01*
X159260Y98166D01*
X159261Y98160D01*
X159260Y98147D01*
X159282Y98045D01*
X159298Y97943D01*
X159308Y97926D01*
X159312Y97906D01*
X159365Y97817D01*
X159414Y97726D01*
X159428Y97712D01*
X159438Y97695D01*
X159517Y97628D01*
X159592Y97556D01*
X159610Y97548D01*
X159625Y97535D01*
X159721Y97496D01*
X159815Y97453D01*
X159835Y97451D01*
X159853Y97443D01*
X160020Y97425D01*
X162879Y97425D01*
X162969Y97439D01*
X163060Y97447D01*
X163090Y97459D01*
X163122Y97464D01*
X163202Y97507D01*
X163286Y97543D01*
X163318Y97569D01*
X163339Y97580D01*
X163357Y97598D01*
X163359Y97599D01*
X163365Y97606D01*
X163417Y97648D01*
X164830Y99061D01*
X168198Y99061D01*
X170579Y96680D01*
X170579Y93312D01*
X168198Y90931D01*
X167784Y90931D01*
X167764Y90928D01*
X167745Y90930D01*
X167643Y90908D01*
X167541Y90892D01*
X167524Y90882D01*
X167504Y90878D01*
X167415Y90825D01*
X167324Y90776D01*
X167310Y90762D01*
X167293Y90752D01*
X167226Y90673D01*
X167154Y90598D01*
X167146Y90580D01*
X167133Y90565D01*
X167094Y90469D01*
X167051Y90375D01*
X167049Y90355D01*
X167041Y90337D01*
X167023Y90170D01*
X167023Y80006D01*
X166803Y79786D01*
X166761Y79728D01*
X166712Y79676D01*
X166690Y79629D01*
X166660Y79587D01*
X166638Y79518D01*
X166608Y79453D01*
X166602Y79401D01*
X166587Y79351D01*
X166589Y79280D01*
X166581Y79209D01*
X166592Y79158D01*
X166594Y79106D01*
X166618Y79038D01*
X166633Y78968D01*
X166660Y78923D01*
X166678Y78875D01*
X166723Y78819D01*
X166760Y78757D01*
X166799Y78723D01*
X166832Y78683D01*
X166892Y78644D01*
X166946Y78597D01*
X166995Y78578D01*
X167039Y78550D01*
X167108Y78532D01*
X167175Y78505D01*
X167246Y78497D01*
X167277Y78489D01*
X167300Y78491D01*
X167341Y78487D01*
X178440Y78487D01*
X178487Y78495D01*
G37*
G36*
X209683Y3823D02*
X209683Y3823D01*
X209759Y3826D01*
X209803Y3843D01*
X209850Y3850D01*
X209917Y3886D01*
X209989Y3913D01*
X210026Y3943D01*
X210068Y3966D01*
X210120Y4021D01*
X210179Y4069D01*
X210204Y4109D01*
X210237Y4144D01*
X210269Y4213D01*
X210309Y4278D01*
X210320Y4324D01*
X210341Y4367D01*
X210349Y4443D01*
X210367Y4517D01*
X210362Y4564D01*
X210368Y4611D01*
X210351Y4686D01*
X210345Y4762D01*
X210325Y4805D01*
X210315Y4852D01*
X210276Y4917D01*
X210246Y4987D01*
X210214Y5022D01*
X210189Y5063D01*
X210131Y5113D01*
X210080Y5169D01*
X210026Y5203D01*
X210002Y5223D01*
X209978Y5233D01*
X209938Y5258D01*
X208098Y6144D01*
X205320Y7889D01*
X202755Y9935D01*
X200435Y12255D01*
X198389Y14820D01*
X196644Y17598D01*
X195220Y20554D01*
X194137Y23651D01*
X193407Y26849D01*
X193039Y30110D01*
X193039Y30227D01*
X221488Y30227D01*
X221508Y30230D01*
X221527Y30228D01*
X221629Y30250D01*
X221731Y30267D01*
X221748Y30276D01*
X221768Y30280D01*
X221857Y30333D01*
X221948Y30382D01*
X221962Y30396D01*
X221979Y30406D01*
X222046Y30485D01*
X222117Y30560D01*
X222126Y30578D01*
X222139Y30593D01*
X222177Y30689D01*
X222221Y30783D01*
X222223Y30803D01*
X222231Y30821D01*
X222249Y30988D01*
X222249Y31751D01*
X223012Y31751D01*
X223032Y31754D01*
X223051Y31752D01*
X223153Y31774D01*
X223255Y31791D01*
X223272Y31800D01*
X223292Y31804D01*
X223381Y31857D01*
X223472Y31906D01*
X223486Y31920D01*
X223503Y31930D01*
X223570Y32009D01*
X223641Y32084D01*
X223650Y32102D01*
X223663Y32117D01*
X223702Y32213D01*
X223745Y32307D01*
X223747Y32327D01*
X223755Y32345D01*
X223773Y32512D01*
X223773Y60961D01*
X223890Y60961D01*
X227151Y60593D01*
X229042Y60162D01*
X230349Y59863D01*
X233446Y58780D01*
X236402Y57356D01*
X239180Y55611D01*
X241745Y53565D01*
X244065Y51245D01*
X246111Y48680D01*
X247856Y45902D01*
X248742Y44062D01*
X248786Y44000D01*
X248822Y43932D01*
X248856Y43900D01*
X248883Y43861D01*
X248945Y43816D01*
X249000Y43763D01*
X249043Y43743D01*
X249081Y43715D01*
X249154Y43692D01*
X249223Y43659D01*
X249270Y43654D01*
X249315Y43640D01*
X249392Y43641D01*
X249467Y43632D01*
X249514Y43642D01*
X249561Y43643D01*
X249633Y43668D01*
X249708Y43685D01*
X249749Y43709D01*
X249793Y43725D01*
X249854Y43772D01*
X249919Y43811D01*
X249950Y43847D01*
X249987Y43876D01*
X250029Y43940D01*
X250079Y43998D01*
X250097Y44042D01*
X250123Y44081D01*
X250142Y44155D01*
X250171Y44226D01*
X250178Y44289D01*
X250186Y44319D01*
X250184Y44345D01*
X250189Y44393D01*
X250189Y222250D01*
X250186Y222269D01*
X250188Y222300D01*
X249955Y225847D01*
X249950Y225870D01*
X249931Y225994D01*
X248095Y232848D01*
X248088Y232862D01*
X248086Y232878D01*
X248018Y233031D01*
X244471Y239176D01*
X244461Y239188D01*
X244455Y239202D01*
X244350Y239333D01*
X239333Y244350D01*
X239320Y244359D01*
X239311Y244372D01*
X239176Y244471D01*
X233031Y248018D01*
X233016Y248024D01*
X233004Y248034D01*
X232848Y248095D01*
X225994Y249931D01*
X225971Y249933D01*
X225847Y249955D01*
X222300Y250188D01*
X222281Y250186D01*
X222250Y250189D01*
X206723Y250189D01*
X206652Y250178D01*
X206580Y250176D01*
X206531Y250158D01*
X206480Y250150D01*
X206417Y250116D01*
X206349Y250091D01*
X206309Y250059D01*
X206263Y250034D01*
X206213Y249983D01*
X206157Y249938D01*
X206129Y249894D01*
X206093Y249856D01*
X206063Y249791D01*
X206024Y249731D01*
X206012Y249680D01*
X205990Y249633D01*
X205982Y249562D01*
X205964Y249492D01*
X205968Y249440D01*
X205963Y249389D01*
X205978Y249318D01*
X205984Y249247D01*
X206004Y249199D01*
X206015Y249148D01*
X206052Y249087D01*
X206080Y249021D01*
X206125Y248965D01*
X206141Y248937D01*
X206159Y248922D01*
X206185Y248890D01*
X206439Y248636D01*
X206513Y248583D01*
X206582Y248523D01*
X206612Y248511D01*
X206638Y248492D01*
X206725Y248465D01*
X206810Y248431D01*
X206851Y248427D01*
X206874Y248420D01*
X206906Y248421D01*
X206977Y248413D01*
X216332Y248413D01*
X232411Y232334D01*
X232411Y84462D01*
X230848Y82900D01*
X214567Y66619D01*
X214567Y66618D01*
X209162Y61213D01*
X198113Y61213D01*
X198022Y61199D01*
X197932Y61191D01*
X197902Y61179D01*
X197870Y61174D01*
X197789Y61131D01*
X197705Y61095D01*
X197673Y61069D01*
X197652Y61058D01*
X197630Y61035D01*
X197574Y60990D01*
X186660Y50076D01*
X186607Y50002D01*
X186547Y49932D01*
X186535Y49902D01*
X186516Y49876D01*
X186489Y49789D01*
X186455Y49704D01*
X186451Y49663D01*
X186444Y49641D01*
X186445Y49609D01*
X186437Y49537D01*
X186437Y34407D01*
X184874Y32844D01*
X157140Y5110D01*
X157098Y5052D01*
X157049Y5000D01*
X157027Y4953D01*
X156997Y4911D01*
X156976Y4842D01*
X156945Y4777D01*
X156940Y4725D01*
X156924Y4675D01*
X156926Y4604D01*
X156918Y4533D01*
X156929Y4482D01*
X156931Y4430D01*
X156955Y4362D01*
X156971Y4292D01*
X156997Y4247D01*
X157015Y4199D01*
X157060Y4143D01*
X157097Y4081D01*
X157136Y4047D01*
X157169Y4007D01*
X157229Y3968D01*
X157284Y3921D01*
X157332Y3902D01*
X157376Y3874D01*
X157445Y3856D01*
X157512Y3829D01*
X157583Y3821D01*
X157614Y3813D01*
X157638Y3815D01*
X157679Y3811D01*
X209607Y3811D01*
X209683Y3823D01*
G37*
G36*
X113075Y21635D02*
X113075Y21635D01*
X113147Y21637D01*
X113196Y21655D01*
X113247Y21663D01*
X113311Y21697D01*
X113378Y21722D01*
X113419Y21754D01*
X113465Y21779D01*
X113514Y21831D01*
X113570Y21875D01*
X113598Y21919D01*
X113634Y21957D01*
X113664Y22022D01*
X113703Y22082D01*
X113716Y22133D01*
X113738Y22180D01*
X113746Y22251D01*
X113763Y22321D01*
X113759Y22373D01*
X113765Y22424D01*
X113750Y22495D01*
X113744Y22566D01*
X113724Y22614D01*
X113713Y22665D01*
X113676Y22726D01*
X113648Y22792D01*
X113603Y22848D01*
X113586Y22876D01*
X113569Y22891D01*
X113543Y22923D01*
X111790Y24676D01*
X109004Y27462D01*
X108930Y27515D01*
X108860Y27575D01*
X108830Y27587D01*
X108804Y27606D01*
X108717Y27633D01*
X108632Y27667D01*
X108591Y27671D01*
X108569Y27678D01*
X108537Y27677D01*
X108465Y27685D01*
X106266Y27685D01*
X103885Y30066D01*
X103885Y33434D01*
X106266Y35815D01*
X109634Y35815D01*
X112015Y33434D01*
X112015Y31235D01*
X112029Y31144D01*
X112037Y31054D01*
X112049Y31024D01*
X112054Y30992D01*
X112097Y30911D01*
X112133Y30827D01*
X112159Y30795D01*
X112170Y30774D01*
X112193Y30752D01*
X112207Y30734D01*
X112213Y30725D01*
X112219Y30720D01*
X112238Y30696D01*
X115024Y27910D01*
X115098Y27857D01*
X115168Y27797D01*
X115198Y27785D01*
X115224Y27766D01*
X115311Y27739D01*
X115396Y27705D01*
X115437Y27701D01*
X115459Y27694D01*
X115491Y27695D01*
X115563Y27687D01*
X154973Y27687D01*
X155063Y27701D01*
X155154Y27709D01*
X155184Y27721D01*
X155216Y27726D01*
X155296Y27769D01*
X155380Y27805D01*
X155413Y27831D01*
X155433Y27842D01*
X155455Y27865D01*
X155511Y27910D01*
X156361Y28760D01*
X156403Y28818D01*
X156453Y28870D01*
X156475Y28917D01*
X156505Y28959D01*
X156526Y29028D01*
X156556Y29093D01*
X156562Y29145D01*
X156577Y29195D01*
X156575Y29266D01*
X156583Y29337D01*
X156572Y29388D01*
X156571Y29440D01*
X156546Y29508D01*
X156531Y29578D01*
X156504Y29623D01*
X156486Y29671D01*
X156442Y29727D01*
X156405Y29789D01*
X156365Y29823D01*
X156333Y29863D01*
X156272Y29902D01*
X156218Y29949D01*
X156170Y29968D01*
X156126Y29996D01*
X156073Y30010D01*
X156073Y36577D01*
X162091Y36577D01*
X162091Y32266D01*
X161918Y31619D01*
X161583Y31040D01*
X161110Y30567D01*
X160842Y30412D01*
X160750Y30337D01*
X160657Y30262D01*
X160655Y30259D01*
X160651Y30256D01*
X160589Y30157D01*
X160524Y30055D01*
X160523Y30051D01*
X160521Y30048D01*
X160493Y29932D01*
X160464Y29817D01*
X160464Y29813D01*
X160463Y29809D01*
X160474Y29690D01*
X160483Y29572D01*
X160484Y29568D01*
X160485Y29564D01*
X160533Y29454D01*
X160579Y29345D01*
X160582Y29341D01*
X160584Y29338D01*
X160593Y29328D01*
X160684Y29214D01*
X162881Y27017D01*
X162898Y27005D01*
X162910Y26990D01*
X162997Y26934D01*
X163081Y26873D01*
X163100Y26868D01*
X163117Y26857D01*
X163217Y26831D01*
X163316Y26801D01*
X163336Y26802D01*
X163356Y26797D01*
X163458Y26805D01*
X163562Y26807D01*
X163581Y26814D01*
X163601Y26816D01*
X163696Y26856D01*
X163793Y26892D01*
X163809Y26904D01*
X163827Y26912D01*
X163958Y27017D01*
X175290Y38349D01*
X175343Y38423D01*
X175403Y38493D01*
X175415Y38523D01*
X175434Y38549D01*
X175461Y38636D01*
X175495Y38721D01*
X175499Y38762D01*
X175506Y38784D01*
X175505Y38816D01*
X175513Y38888D01*
X175513Y47277D01*
X175502Y47348D01*
X175500Y47420D01*
X175482Y47468D01*
X175474Y47520D01*
X175440Y47583D01*
X175415Y47651D01*
X175383Y47691D01*
X175358Y47737D01*
X175306Y47787D01*
X175262Y47843D01*
X175218Y47871D01*
X175180Y47907D01*
X175115Y47937D01*
X175055Y47976D01*
X175004Y47988D01*
X174957Y48010D01*
X174886Y48018D01*
X174816Y48036D01*
X174764Y48032D01*
X174713Y48037D01*
X174642Y48022D01*
X174571Y48016D01*
X174523Y47996D01*
X174472Y47985D01*
X174411Y47948D01*
X174345Y47920D01*
X174289Y47875D01*
X174261Y47859D01*
X174246Y47841D01*
X174214Y47815D01*
X173134Y46735D01*
X169766Y46735D01*
X168211Y48290D01*
X168137Y48343D01*
X168068Y48403D01*
X168038Y48415D01*
X168012Y48434D01*
X167925Y48461D01*
X167840Y48495D01*
X167799Y48499D01*
X167777Y48506D01*
X167744Y48505D01*
X167673Y48513D01*
X124427Y48513D01*
X124337Y48499D01*
X124246Y48491D01*
X124216Y48479D01*
X124184Y48474D01*
X124104Y48431D01*
X124020Y48395D01*
X123988Y48369D01*
X123967Y48358D01*
X123945Y48335D01*
X123889Y48290D01*
X122334Y46735D01*
X118966Y46735D01*
X117411Y48290D01*
X117337Y48343D01*
X117268Y48403D01*
X117238Y48415D01*
X117212Y48434D01*
X117125Y48461D01*
X117040Y48495D01*
X116999Y48499D01*
X116976Y48506D01*
X116944Y48505D01*
X116873Y48513D01*
X102863Y48513D01*
X102772Y48499D01*
X102682Y48491D01*
X102652Y48479D01*
X102620Y48474D01*
X102539Y48431D01*
X102455Y48395D01*
X102423Y48369D01*
X102402Y48358D01*
X102380Y48335D01*
X102324Y48290D01*
X99538Y45504D01*
X99485Y45430D01*
X99425Y45360D01*
X99413Y45330D01*
X99394Y45304D01*
X99367Y45217D01*
X99333Y45132D01*
X99329Y45091D01*
X99322Y45069D01*
X99323Y45037D01*
X99315Y44965D01*
X99315Y42766D01*
X96934Y40385D01*
X93566Y40385D01*
X91185Y42766D01*
X91185Y46134D01*
X93566Y48515D01*
X95765Y48515D01*
X95856Y48529D01*
X95946Y48537D01*
X95976Y48549D01*
X96008Y48554D01*
X96089Y48597D01*
X96173Y48633D01*
X96205Y48659D01*
X96226Y48670D01*
X96248Y48693D01*
X96304Y48738D01*
X100653Y53087D01*
X116873Y53087D01*
X116963Y53101D01*
X117054Y53109D01*
X117084Y53121D01*
X117116Y53126D01*
X117196Y53169D01*
X117280Y53205D01*
X117312Y53231D01*
X117333Y53242D01*
X117355Y53265D01*
X117411Y53310D01*
X118966Y54865D01*
X122334Y54865D01*
X123889Y53310D01*
X123963Y53257D01*
X124032Y53197D01*
X124062Y53185D01*
X124088Y53166D01*
X124175Y53139D01*
X124260Y53105D01*
X124301Y53101D01*
X124324Y53094D01*
X124356Y53095D01*
X124427Y53087D01*
X167673Y53087D01*
X167763Y53101D01*
X167854Y53109D01*
X167884Y53121D01*
X167916Y53126D01*
X167996Y53169D01*
X168080Y53205D01*
X168113Y53231D01*
X168133Y53242D01*
X168155Y53265D01*
X168211Y53310D01*
X169766Y54865D01*
X173134Y54865D01*
X174214Y53785D01*
X174272Y53743D01*
X174324Y53693D01*
X174371Y53671D01*
X174413Y53641D01*
X174482Y53620D01*
X174547Y53590D01*
X174599Y53584D01*
X174649Y53569D01*
X174720Y53571D01*
X174791Y53563D01*
X174842Y53574D01*
X174894Y53575D01*
X174962Y53600D01*
X175032Y53615D01*
X175077Y53642D01*
X175125Y53660D01*
X175181Y53704D01*
X175243Y53741D01*
X175277Y53781D01*
X175317Y53813D01*
X175356Y53874D01*
X175403Y53928D01*
X175422Y53976D01*
X175450Y54020D01*
X175468Y54090D01*
X175495Y54156D01*
X175503Y54228D01*
X175511Y54259D01*
X175509Y54282D01*
X175513Y54323D01*
X175513Y58097D01*
X189553Y72137D01*
X204681Y72137D01*
X204771Y72151D01*
X204862Y72159D01*
X204892Y72171D01*
X204924Y72176D01*
X205004Y72219D01*
X205088Y72255D01*
X205120Y72281D01*
X205141Y72292D01*
X205163Y72315D01*
X205219Y72360D01*
X205473Y72614D01*
X205515Y72672D01*
X205564Y72724D01*
X205586Y72771D01*
X205617Y72813D01*
X205638Y72882D01*
X205668Y72947D01*
X205674Y72999D01*
X205689Y73049D01*
X205687Y73120D01*
X205695Y73191D01*
X205684Y73242D01*
X205683Y73294D01*
X205658Y73362D01*
X205643Y73432D01*
X205616Y73477D01*
X205598Y73525D01*
X205554Y73581D01*
X205517Y73643D01*
X205477Y73677D01*
X205445Y73717D01*
X205384Y73756D01*
X205330Y73803D01*
X205281Y73822D01*
X205238Y73850D01*
X205168Y73868D01*
X205102Y73895D01*
X205030Y73903D01*
X204999Y73911D01*
X204976Y73909D01*
X204935Y73913D01*
X81570Y73913D01*
X65440Y90043D01*
X65440Y90044D01*
X63731Y91752D01*
X63657Y91805D01*
X63587Y91865D01*
X63557Y91877D01*
X63531Y91896D01*
X63444Y91923D01*
X63359Y91957D01*
X63318Y91961D01*
X63296Y91968D01*
X63264Y91967D01*
X63193Y91975D01*
X61318Y91975D01*
X61088Y92205D01*
X61072Y92217D01*
X61060Y92233D01*
X60973Y92289D01*
X60889Y92349D01*
X60870Y92355D01*
X60853Y92366D01*
X60752Y92391D01*
X60654Y92421D01*
X60634Y92421D01*
X60614Y92426D01*
X60511Y92418D01*
X60408Y92415D01*
X60389Y92408D01*
X60369Y92407D01*
X60274Y92366D01*
X60177Y92331D01*
X60161Y92318D01*
X60143Y92310D01*
X60012Y92205D01*
X59782Y91975D01*
X55034Y91975D01*
X54944Y91961D01*
X54853Y91953D01*
X54823Y91941D01*
X54791Y91936D01*
X54710Y91893D01*
X54626Y91857D01*
X54594Y91831D01*
X54574Y91820D01*
X54551Y91797D01*
X54495Y91752D01*
X54210Y91467D01*
X53631Y91132D01*
X52984Y90959D01*
X51724Y90959D01*
X51724Y98337D01*
X51721Y98356D01*
X51723Y98376D01*
X51701Y98478D01*
X51700Y98483D01*
X51706Y98496D01*
X51724Y98663D01*
X51724Y106067D01*
X51805Y106080D01*
X51822Y106090D01*
X51842Y106094D01*
X51931Y106147D01*
X52022Y106196D01*
X52036Y106210D01*
X52053Y106220D01*
X52120Y106299D01*
X52191Y106374D01*
X52200Y106392D01*
X52213Y106407D01*
X52252Y106503D01*
X52295Y106597D01*
X52297Y106617D01*
X52305Y106635D01*
X52323Y106802D01*
X52323Y125477D01*
X72014Y125477D01*
X72034Y125480D01*
X72053Y125478D01*
X72155Y125500D01*
X72257Y125517D01*
X72274Y125526D01*
X72294Y125530D01*
X72383Y125583D01*
X72474Y125632D01*
X72488Y125646D01*
X72505Y125656D01*
X72572Y125735D01*
X72644Y125810D01*
X72652Y125828D01*
X72665Y125843D01*
X72704Y125939D01*
X72747Y126033D01*
X72749Y126053D01*
X72757Y126071D01*
X72775Y126238D01*
X72775Y127762D01*
X72772Y127782D01*
X72774Y127801D01*
X72752Y127903D01*
X72736Y128005D01*
X72726Y128022D01*
X72722Y128042D01*
X72669Y128131D01*
X72620Y128222D01*
X72606Y128236D01*
X72596Y128253D01*
X72517Y128320D01*
X72442Y128391D01*
X72424Y128400D01*
X72409Y128413D01*
X72313Y128452D01*
X72219Y128495D01*
X72199Y128497D01*
X72181Y128505D01*
X72014Y128523D01*
X52323Y128523D01*
X52323Y148214D01*
X52320Y148234D01*
X52322Y148253D01*
X52300Y148355D01*
X52283Y148457D01*
X52274Y148474D01*
X52270Y148494D01*
X52217Y148583D01*
X52168Y148674D01*
X52154Y148688D01*
X52144Y148705D01*
X52065Y148772D01*
X51990Y148844D01*
X51972Y148852D01*
X51957Y148865D01*
X51861Y148904D01*
X51767Y148947D01*
X51747Y148949D01*
X51729Y148957D01*
X51562Y148975D01*
X50038Y148975D01*
X50018Y148972D01*
X49999Y148974D01*
X49897Y148952D01*
X49795Y148936D01*
X49778Y148926D01*
X49758Y148922D01*
X49669Y148869D01*
X49578Y148820D01*
X49564Y148806D01*
X49547Y148796D01*
X49480Y148717D01*
X49409Y148642D01*
X49400Y148624D01*
X49387Y148609D01*
X49348Y148513D01*
X49305Y148419D01*
X49303Y148399D01*
X49295Y148381D01*
X49277Y148214D01*
X49277Y128523D01*
X29586Y128523D01*
X29566Y128520D01*
X29547Y128522D01*
X29445Y128500D01*
X29343Y128483D01*
X29326Y128474D01*
X29306Y128470D01*
X29217Y128417D01*
X29126Y128368D01*
X29112Y128354D01*
X29095Y128344D01*
X29028Y128265D01*
X28956Y128190D01*
X28948Y128172D01*
X28935Y128157D01*
X28896Y128061D01*
X28853Y127967D01*
X28851Y127947D01*
X28843Y127929D01*
X28825Y127762D01*
X28825Y126238D01*
X28828Y126218D01*
X28826Y126199D01*
X28848Y126097D01*
X28864Y125995D01*
X28874Y125978D01*
X28878Y125958D01*
X28931Y125869D01*
X28980Y125778D01*
X28994Y125764D01*
X29004Y125747D01*
X29083Y125680D01*
X29158Y125609D01*
X29176Y125600D01*
X29191Y125587D01*
X29287Y125548D01*
X29381Y125505D01*
X29401Y125503D01*
X29419Y125495D01*
X29586Y125477D01*
X49277Y125477D01*
X49277Y106802D01*
X49280Y106782D01*
X49278Y106763D01*
X49300Y106661D01*
X49317Y106559D01*
X49326Y106542D01*
X49330Y106522D01*
X49383Y106433D01*
X49432Y106342D01*
X49446Y106328D01*
X49456Y106311D01*
X49535Y106244D01*
X49610Y106172D01*
X49628Y106164D01*
X49643Y106151D01*
X49739Y106112D01*
X49833Y106069D01*
X49853Y106067D01*
X49871Y106059D01*
X49876Y106059D01*
X49876Y98663D01*
X49879Y98644D01*
X49877Y98624D01*
X49899Y98522D01*
X49900Y98517D01*
X49894Y98504D01*
X49876Y98337D01*
X49876Y90959D01*
X48616Y90959D01*
X48307Y91042D01*
X48188Y91054D01*
X48071Y91067D01*
X48066Y91066D01*
X48062Y91066D01*
X47947Y91040D01*
X47830Y91015D01*
X47827Y91012D01*
X47823Y91012D01*
X47721Y90949D01*
X47619Y90888D01*
X47616Y90885D01*
X47613Y90883D01*
X47536Y90792D01*
X47459Y90702D01*
X47458Y90698D01*
X47455Y90694D01*
X47412Y90584D01*
X47367Y90473D01*
X47367Y90468D01*
X47365Y90465D01*
X47365Y90452D01*
X47349Y90307D01*
X47349Y86428D01*
X47363Y86338D01*
X47371Y86247D01*
X47383Y86217D01*
X47388Y86185D01*
X47431Y86105D01*
X47467Y86021D01*
X47493Y85989D01*
X47504Y85968D01*
X47527Y85946D01*
X47572Y85890D01*
X47864Y85598D01*
X47938Y85545D01*
X48007Y85485D01*
X48037Y85473D01*
X48064Y85454D01*
X48151Y85427D01*
X48235Y85393D01*
X48276Y85389D01*
X48299Y85382D01*
X48331Y85383D01*
X48402Y85375D01*
X56432Y85375D01*
X57325Y84482D01*
X57325Y82524D01*
X57336Y82453D01*
X57338Y82382D01*
X57356Y82333D01*
X57364Y82281D01*
X57398Y82218D01*
X57423Y82151D01*
X57455Y82110D01*
X57480Y82064D01*
X57532Y82015D01*
X57576Y81959D01*
X57620Y81931D01*
X57658Y81895D01*
X57723Y81864D01*
X57783Y81826D01*
X57834Y81813D01*
X57881Y81791D01*
X57952Y81783D01*
X58022Y81766D01*
X58074Y81770D01*
X58125Y81764D01*
X58196Y81779D01*
X58267Y81785D01*
X58315Y81805D01*
X58366Y81816D01*
X58427Y81853D01*
X58493Y81881D01*
X58549Y81926D01*
X58577Y81942D01*
X58592Y81960D01*
X58624Y81986D01*
X59212Y82574D01*
X59266Y82648D01*
X59325Y82717D01*
X59337Y82747D01*
X59356Y82774D01*
X59383Y82861D01*
X59417Y82945D01*
X59421Y82986D01*
X59428Y83009D01*
X59427Y83041D01*
X59435Y83112D01*
X59435Y84234D01*
X61816Y86615D01*
X65184Y86615D01*
X67565Y84234D01*
X67565Y80866D01*
X65184Y78485D01*
X64062Y78485D01*
X63972Y78471D01*
X63881Y78463D01*
X63851Y78451D01*
X63819Y78446D01*
X63739Y78403D01*
X63655Y78367D01*
X63623Y78341D01*
X63602Y78330D01*
X63580Y78307D01*
X63524Y78262D01*
X59900Y74638D01*
X59888Y74622D01*
X59873Y74610D01*
X59817Y74522D01*
X59756Y74439D01*
X59750Y74420D01*
X59740Y74403D01*
X59714Y74302D01*
X59684Y74203D01*
X59684Y74184D01*
X59680Y74164D01*
X59688Y74061D01*
X59690Y73958D01*
X59697Y73939D01*
X59699Y73919D01*
X59739Y73824D01*
X59775Y73727D01*
X59787Y73711D01*
X59795Y73693D01*
X59900Y73562D01*
X77240Y56222D01*
X79249Y54213D01*
X79249Y37738D01*
X79268Y37624D01*
X79285Y37508D01*
X79287Y37502D01*
X79288Y37496D01*
X79343Y37393D01*
X79396Y37288D01*
X79401Y37284D01*
X79404Y37278D01*
X79488Y37199D01*
X79572Y37116D01*
X79578Y37112D01*
X79582Y37109D01*
X79599Y37101D01*
X79719Y37035D01*
X82387Y35930D01*
X85460Y32857D01*
X87123Y28843D01*
X87123Y24497D01*
X86368Y22676D01*
X86358Y22632D01*
X86339Y22590D01*
X86330Y22513D01*
X86312Y22437D01*
X86317Y22391D01*
X86312Y22346D01*
X86328Y22269D01*
X86335Y22192D01*
X86354Y22150D01*
X86364Y22105D01*
X86404Y22038D01*
X86435Y21967D01*
X86466Y21933D01*
X86490Y21894D01*
X86549Y21843D01*
X86602Y21786D01*
X86642Y21764D01*
X86677Y21734D01*
X86749Y21705D01*
X86817Y21668D01*
X86862Y21659D01*
X86905Y21642D01*
X87041Y21627D01*
X87059Y21624D01*
X87064Y21625D01*
X87072Y21624D01*
X113005Y21624D01*
X113075Y21635D01*
G37*
G36*
X190944Y148094D02*
X190944Y148094D01*
X191016Y148096D01*
X191065Y148114D01*
X191116Y148122D01*
X191179Y148156D01*
X191247Y148181D01*
X191287Y148213D01*
X191333Y148238D01*
X191383Y148290D01*
X191439Y148334D01*
X191467Y148378D01*
X191503Y148416D01*
X191533Y148481D01*
X191572Y148541D01*
X191584Y148592D01*
X191606Y148639D01*
X191614Y148710D01*
X191632Y148780D01*
X191628Y148832D01*
X191633Y148883D01*
X191618Y148954D01*
X191613Y149025D01*
X191592Y149073D01*
X191581Y149124D01*
X191544Y149185D01*
X191516Y149251D01*
X191471Y149307D01*
X191455Y149335D01*
X191437Y149350D01*
X191411Y149382D01*
X190325Y150468D01*
X190325Y162732D01*
X191218Y163625D01*
X202482Y163625D01*
X203375Y162732D01*
X203375Y161661D01*
X203378Y161642D01*
X203376Y161622D01*
X203398Y161521D01*
X203414Y161419D01*
X203424Y161401D01*
X203428Y161381D01*
X203481Y161292D01*
X203530Y161201D01*
X203544Y161187D01*
X203554Y161170D01*
X203633Y161103D01*
X203708Y161032D01*
X203726Y161023D01*
X203741Y161010D01*
X203837Y160972D01*
X203931Y160928D01*
X203951Y160926D01*
X203969Y160919D01*
X204136Y160900D01*
X205636Y160900D01*
X205726Y160915D01*
X205817Y160922D01*
X205847Y160935D01*
X205879Y160940D01*
X205960Y160983D01*
X206044Y161018D01*
X206076Y161044D01*
X206096Y161055D01*
X206119Y161078D01*
X206175Y161123D01*
X206968Y161916D01*
X208089Y161916D01*
X208179Y161931D01*
X208270Y161938D01*
X208300Y161951D01*
X208332Y161956D01*
X208413Y161999D01*
X208496Y162034D01*
X208529Y162060D01*
X208549Y162071D01*
X208571Y162094D01*
X208627Y162139D01*
X218978Y172490D01*
X219031Y172564D01*
X219091Y172633D01*
X219103Y172663D01*
X219122Y172690D01*
X219149Y172777D01*
X219183Y172861D01*
X219187Y172902D01*
X219194Y172925D01*
X219193Y172957D01*
X219201Y173028D01*
X219201Y219235D01*
X219187Y219325D01*
X219179Y219416D01*
X219167Y219446D01*
X219162Y219478D01*
X219140Y219519D01*
X219139Y219524D01*
X219124Y219548D01*
X219119Y219558D01*
X219083Y219642D01*
X219057Y219674D01*
X219046Y219695D01*
X219023Y219717D01*
X219012Y219735D01*
X219001Y219746D01*
X218978Y219773D01*
X218185Y220566D01*
X218185Y223934D01*
X220566Y226315D01*
X224028Y226315D01*
X224048Y226318D01*
X224067Y226316D01*
X224169Y226338D01*
X224271Y226354D01*
X224288Y226364D01*
X224308Y226368D01*
X224397Y226421D01*
X224488Y226470D01*
X224502Y226484D01*
X224519Y226494D01*
X224586Y226573D01*
X224658Y226648D01*
X224666Y226666D01*
X224679Y226681D01*
X224718Y226777D01*
X224761Y226871D01*
X224763Y226891D01*
X224771Y226909D01*
X224789Y227076D01*
X224789Y228861D01*
X224775Y228952D01*
X224767Y229042D01*
X224755Y229072D01*
X224750Y229104D01*
X224707Y229185D01*
X224671Y229269D01*
X224645Y229301D01*
X224634Y229322D01*
X224611Y229344D01*
X224566Y229400D01*
X221526Y232440D01*
X221452Y232493D01*
X221382Y232553D01*
X221352Y232565D01*
X221326Y232584D01*
X221239Y232611D01*
X221154Y232645D01*
X221113Y232649D01*
X221091Y232656D01*
X221059Y232655D01*
X220987Y232663D01*
X205399Y232663D01*
X205308Y232649D01*
X205218Y232641D01*
X205188Y232629D01*
X205156Y232624D01*
X205075Y232581D01*
X204991Y232545D01*
X204959Y232519D01*
X204938Y232508D01*
X204916Y232485D01*
X204860Y232440D01*
X202946Y230526D01*
X202893Y230452D01*
X202833Y230382D01*
X202821Y230352D01*
X202802Y230326D01*
X202775Y230239D01*
X202741Y230154D01*
X202737Y230113D01*
X202730Y230091D01*
X202731Y230059D01*
X202723Y229987D01*
X202723Y228056D01*
X201607Y226940D01*
X201606Y226940D01*
X200044Y225377D01*
X198436Y225377D01*
X198416Y225374D01*
X198397Y225376D01*
X198295Y225354D01*
X198193Y225338D01*
X198176Y225328D01*
X198156Y225324D01*
X198067Y225271D01*
X197976Y225222D01*
X197962Y225208D01*
X197945Y225198D01*
X197878Y225119D01*
X197806Y225044D01*
X197798Y225026D01*
X197785Y225011D01*
X197746Y224915D01*
X197703Y224821D01*
X197701Y224801D01*
X197693Y224783D01*
X197675Y224616D01*
X197675Y219768D01*
X197595Y219688D01*
X197583Y219672D01*
X197567Y219660D01*
X197511Y219573D01*
X197451Y219489D01*
X197445Y219470D01*
X197434Y219453D01*
X197409Y219353D01*
X197379Y219254D01*
X197379Y219234D01*
X197374Y219214D01*
X197382Y219111D01*
X197385Y219008D01*
X197392Y218989D01*
X197393Y218969D01*
X197434Y218874D01*
X197469Y218777D01*
X197482Y218761D01*
X197490Y218743D01*
X197595Y218612D01*
X197797Y218410D01*
X197871Y218357D01*
X197940Y218297D01*
X197970Y218285D01*
X197996Y218266D01*
X198083Y218239D01*
X198168Y218205D01*
X198209Y218201D01*
X198231Y218194D01*
X198264Y218195D01*
X198335Y218187D01*
X201937Y218187D01*
X202028Y218201D01*
X202118Y218209D01*
X202148Y218221D01*
X202180Y218226D01*
X202261Y218269D01*
X202345Y218305D01*
X202377Y218331D01*
X202398Y218342D01*
X202420Y218365D01*
X202476Y218410D01*
X205262Y221196D01*
X205315Y221270D01*
X205375Y221340D01*
X205387Y221370D01*
X205406Y221396D01*
X205433Y221483D01*
X205467Y221568D01*
X205471Y221609D01*
X205478Y221631D01*
X205477Y221663D01*
X205485Y221735D01*
X205485Y223934D01*
X207866Y226315D01*
X211234Y226315D01*
X213615Y223934D01*
X213615Y220566D01*
X211234Y218185D01*
X209035Y218185D01*
X208944Y218171D01*
X208854Y218163D01*
X208824Y218151D01*
X208792Y218146D01*
X208711Y218103D01*
X208627Y218067D01*
X208595Y218041D01*
X208574Y218030D01*
X208552Y218007D01*
X208496Y217962D01*
X204147Y213613D01*
X199124Y213613D01*
X199030Y213598D01*
X198935Y213589D01*
X198909Y213578D01*
X198882Y213574D01*
X198798Y213529D01*
X198710Y213491D01*
X198689Y213472D01*
X198664Y213458D01*
X198599Y213389D01*
X198528Y213325D01*
X198514Y213301D01*
X198495Y213280D01*
X198455Y213194D01*
X198408Y213110D01*
X198403Y213083D01*
X198391Y213057D01*
X198381Y212962D01*
X198363Y212868D01*
X198367Y212841D01*
X198364Y212813D01*
X198385Y212719D01*
X198398Y212625D01*
X198412Y212593D01*
X198416Y212572D01*
X198433Y212544D01*
X198465Y212471D01*
X198518Y212381D01*
X198691Y211734D01*
X198691Y210399D01*
X192888Y210399D01*
X192869Y210396D01*
X192849Y210398D01*
X192747Y210376D01*
X192645Y210360D01*
X192644Y210359D01*
X192617Y210371D01*
X192597Y210373D01*
X192579Y210381D01*
X192412Y210399D01*
X186609Y210399D01*
X186609Y211734D01*
X186782Y212381D01*
X187117Y212960D01*
X187402Y213245D01*
X187455Y213319D01*
X187515Y213389D01*
X187527Y213419D01*
X187546Y213445D01*
X187573Y213532D01*
X187607Y213617D01*
X187611Y213658D01*
X187618Y213680D01*
X187617Y213712D01*
X187625Y213784D01*
X187625Y218532D01*
X187705Y218612D01*
X187717Y218628D01*
X187733Y218640D01*
X187789Y218728D01*
X187849Y218811D01*
X187855Y218830D01*
X187866Y218847D01*
X187891Y218948D01*
X187921Y219047D01*
X187921Y219067D01*
X187926Y219086D01*
X187918Y219189D01*
X187915Y219292D01*
X187908Y219311D01*
X187907Y219331D01*
X187866Y219426D01*
X187831Y219523D01*
X187818Y219539D01*
X187810Y219557D01*
X187705Y219688D01*
X187625Y219768D01*
X187625Y225032D01*
X188703Y226110D01*
X188745Y226168D01*
X188795Y226220D01*
X188817Y226267D01*
X188847Y226309D01*
X188868Y226378D01*
X188898Y226443D01*
X188904Y226495D01*
X188919Y226545D01*
X188917Y226616D01*
X188925Y226687D01*
X188914Y226738D01*
X188913Y226790D01*
X188888Y226858D01*
X188873Y226928D01*
X188846Y226973D01*
X188829Y227021D01*
X188784Y227077D01*
X188747Y227139D01*
X188707Y227173D01*
X188675Y227213D01*
X188615Y227252D01*
X188560Y227299D01*
X188512Y227318D01*
X188468Y227346D01*
X188398Y227364D01*
X188332Y227391D01*
X188261Y227399D01*
X188229Y227407D01*
X188206Y227405D01*
X188165Y227409D01*
X186816Y227409D01*
X186169Y227582D01*
X185590Y227917D01*
X185117Y228390D01*
X184782Y228969D01*
X184609Y229616D01*
X184609Y233427D01*
X191888Y233427D01*
X191908Y233430D01*
X191927Y233428D01*
X192029Y233450D01*
X192131Y233467D01*
X192148Y233476D01*
X192168Y233480D01*
X192257Y233533D01*
X192348Y233582D01*
X192362Y233596D01*
X192379Y233606D01*
X192446Y233685D01*
X192517Y233760D01*
X192526Y233778D01*
X192539Y233793D01*
X192578Y233889D01*
X192621Y233983D01*
X192623Y234003D01*
X192631Y234021D01*
X192649Y234188D01*
X192649Y235712D01*
X192646Y235732D01*
X192648Y235751D01*
X192626Y235853D01*
X192609Y235955D01*
X192600Y235972D01*
X192596Y235992D01*
X192543Y236081D01*
X192494Y236172D01*
X192480Y236186D01*
X192470Y236203D01*
X192391Y236270D01*
X192316Y236341D01*
X192298Y236350D01*
X192283Y236363D01*
X192187Y236402D01*
X192093Y236445D01*
X192073Y236447D01*
X192055Y236455D01*
X191888Y236473D01*
X184609Y236473D01*
X184609Y239188D01*
X184606Y239208D01*
X184608Y239227D01*
X184586Y239329D01*
X184570Y239431D01*
X184560Y239448D01*
X184556Y239468D01*
X184503Y239557D01*
X184454Y239648D01*
X184440Y239662D01*
X184430Y239679D01*
X184351Y239746D01*
X184276Y239818D01*
X184258Y239826D01*
X184243Y239839D01*
X184147Y239878D01*
X184053Y239921D01*
X184033Y239923D01*
X184015Y239931D01*
X183848Y239949D01*
X183436Y239949D01*
X183416Y239946D01*
X183397Y239948D01*
X183295Y239926D01*
X183193Y239910D01*
X183176Y239900D01*
X183156Y239896D01*
X183067Y239843D01*
X182976Y239794D01*
X182962Y239780D01*
X182945Y239770D01*
X182878Y239691D01*
X182806Y239616D01*
X182798Y239598D01*
X182785Y239583D01*
X182746Y239487D01*
X182703Y239393D01*
X182701Y239373D01*
X182693Y239355D01*
X182675Y239188D01*
X182675Y229318D01*
X181782Y228425D01*
X178698Y228425D01*
X178678Y228422D01*
X178659Y228424D01*
X178557Y228402D01*
X178455Y228386D01*
X178438Y228376D01*
X178418Y228372D01*
X178329Y228319D01*
X178238Y228270D01*
X178224Y228256D01*
X178207Y228246D01*
X178140Y228167D01*
X178068Y228092D01*
X178060Y228074D01*
X178047Y228059D01*
X178008Y227963D01*
X177965Y227869D01*
X177963Y227849D01*
X177955Y227831D01*
X177937Y227664D01*
X177937Y226686D01*
X177940Y226666D01*
X177938Y226647D01*
X177960Y226545D01*
X177976Y226443D01*
X177986Y226426D01*
X177990Y226406D01*
X178043Y226317D01*
X178092Y226226D01*
X178106Y226212D01*
X178116Y226195D01*
X178195Y226128D01*
X178270Y226056D01*
X178288Y226048D01*
X178303Y226035D01*
X178399Y225996D01*
X178493Y225953D01*
X178513Y225951D01*
X178531Y225943D01*
X178698Y225925D01*
X179782Y225925D01*
X180675Y225032D01*
X180675Y219768D01*
X180498Y219591D01*
X180486Y219575D01*
X180470Y219563D01*
X180414Y219475D01*
X180354Y219392D01*
X180348Y219373D01*
X180337Y219356D01*
X180312Y219255D01*
X180282Y219157D01*
X180282Y219137D01*
X180277Y219117D01*
X180285Y219014D01*
X180288Y218911D01*
X180295Y218892D01*
X180296Y218872D01*
X180337Y218777D01*
X180373Y218680D01*
X180385Y218664D01*
X180393Y218646D01*
X180498Y218515D01*
X181865Y217148D01*
X181865Y213780D01*
X180898Y212813D01*
X180845Y212739D01*
X180785Y212670D01*
X180773Y212640D01*
X180754Y212614D01*
X180727Y212527D01*
X180693Y212442D01*
X180689Y212401D01*
X180682Y212378D01*
X180683Y212346D01*
X180675Y212275D01*
X180675Y206768D01*
X179782Y205875D01*
X171518Y205875D01*
X170625Y206768D01*
X170625Y210875D01*
X170622Y210893D01*
X170624Y210910D01*
X170610Y210978D01*
X170603Y211056D01*
X170591Y211086D01*
X170586Y211118D01*
X170574Y211139D01*
X170572Y211151D01*
X170542Y211200D01*
X170507Y211283D01*
X170481Y211315D01*
X170470Y211336D01*
X170449Y211356D01*
X170446Y211362D01*
X170440Y211367D01*
X170402Y211414D01*
X164114Y217702D01*
X164056Y217744D01*
X164004Y217793D01*
X163957Y217815D01*
X163915Y217845D01*
X163846Y217866D01*
X163781Y217897D01*
X163729Y217902D01*
X163679Y217918D01*
X163608Y217916D01*
X163537Y217924D01*
X163486Y217913D01*
X163434Y217911D01*
X163366Y217887D01*
X163296Y217872D01*
X163251Y217845D01*
X163203Y217827D01*
X163147Y217782D01*
X163085Y217745D01*
X163051Y217706D01*
X163011Y217673D01*
X162972Y217613D01*
X162925Y217558D01*
X162906Y217510D01*
X162878Y217466D01*
X162860Y217397D01*
X162833Y217330D01*
X162825Y217259D01*
X162817Y217228D01*
X162819Y217204D01*
X162815Y217164D01*
X162815Y214216D01*
X160434Y211835D01*
X157066Y211835D01*
X155511Y213390D01*
X155437Y213443D01*
X155368Y213503D01*
X155338Y213515D01*
X155312Y213534D01*
X155225Y213561D01*
X155140Y213595D01*
X155099Y213599D01*
X155076Y213606D01*
X155044Y213605D01*
X154973Y213613D01*
X154674Y213613D01*
X154580Y213598D01*
X154485Y213589D01*
X154459Y213578D01*
X154432Y213574D01*
X154348Y213529D01*
X154260Y213491D01*
X154239Y213472D01*
X154214Y213458D01*
X154149Y213389D01*
X154078Y213325D01*
X154064Y213301D01*
X154045Y213280D01*
X154005Y213194D01*
X153958Y213110D01*
X153953Y213083D01*
X153941Y213057D01*
X153931Y212962D01*
X153913Y212868D01*
X153917Y212841D01*
X153914Y212813D01*
X153935Y212719D01*
X153948Y212625D01*
X153962Y212593D01*
X153966Y212572D01*
X153983Y212544D01*
X154015Y212471D01*
X154068Y212381D01*
X154241Y211734D01*
X154241Y210399D01*
X148438Y210399D01*
X148419Y210396D01*
X148399Y210398D01*
X148297Y210376D01*
X148195Y210360D01*
X148178Y210350D01*
X148158Y210346D01*
X148069Y210293D01*
X147978Y210244D01*
X147964Y210230D01*
X147947Y210220D01*
X147880Y210141D01*
X147809Y210066D01*
X147800Y210048D01*
X147787Y210033D01*
X147749Y209937D01*
X147724Y209884D01*
X147719Y209883D01*
X147702Y209874D01*
X147682Y209870D01*
X147593Y209817D01*
X147502Y209768D01*
X147488Y209754D01*
X147471Y209744D01*
X147404Y209665D01*
X147332Y209590D01*
X147324Y209572D01*
X147311Y209557D01*
X147272Y209460D01*
X147229Y209367D01*
X147227Y209347D01*
X147219Y209329D01*
X147201Y209162D01*
X147201Y204859D01*
X144909Y204859D01*
X144818Y204845D01*
X144728Y204837D01*
X144698Y204825D01*
X144666Y204820D01*
X144585Y204777D01*
X144501Y204741D01*
X144469Y204715D01*
X144448Y204704D01*
X144426Y204681D01*
X144370Y204636D01*
X141904Y202170D01*
X141893Y202154D01*
X141877Y202142D01*
X141821Y202055D01*
X141761Y201971D01*
X141755Y201952D01*
X141744Y201935D01*
X141719Y201835D01*
X141688Y201736D01*
X141689Y201716D01*
X141684Y201696D01*
X141692Y201593D01*
X141695Y201490D01*
X141702Y201471D01*
X141703Y201451D01*
X141744Y201356D01*
X141779Y201259D01*
X141792Y201243D01*
X141799Y201225D01*
X141904Y201094D01*
X142177Y200821D01*
X142251Y200768D01*
X142320Y200709D01*
X142350Y200697D01*
X142376Y200678D01*
X142463Y200651D01*
X142548Y200617D01*
X142589Y200612D01*
X142612Y200606D01*
X142644Y200606D01*
X142715Y200598D01*
X168435Y200598D01*
X168525Y200613D01*
X168616Y200620D01*
X168646Y200633D01*
X168678Y200638D01*
X168758Y200681D01*
X168842Y200717D01*
X168874Y200742D01*
X168895Y200753D01*
X168917Y200777D01*
X168973Y200821D01*
X169766Y201614D01*
X173134Y201614D01*
X175515Y199233D01*
X175515Y195866D01*
X173134Y193485D01*
X169766Y193485D01*
X168973Y194278D01*
X168899Y194331D01*
X168830Y194391D01*
X168800Y194403D01*
X168774Y194422D01*
X168687Y194448D01*
X168602Y194483D01*
X168561Y194487D01*
X168538Y194494D01*
X168506Y194493D01*
X168435Y194501D01*
X155985Y194501D01*
X155914Y194489D01*
X155843Y194488D01*
X155794Y194470D01*
X155742Y194461D01*
X155679Y194428D01*
X155612Y194403D01*
X155571Y194371D01*
X155525Y194346D01*
X155476Y194294D01*
X155420Y194249D01*
X155392Y194206D01*
X155356Y194168D01*
X155325Y194103D01*
X155287Y194043D01*
X155274Y193992D01*
X155252Y193945D01*
X155244Y193874D01*
X155227Y193804D01*
X155231Y193752D01*
X155225Y193700D01*
X155240Y193630D01*
X155246Y193559D01*
X155266Y193511D01*
X155277Y193460D01*
X155314Y193398D01*
X155342Y193332D01*
X155387Y193276D01*
X155403Y193249D01*
X155421Y193234D01*
X155447Y193201D01*
X156465Y192184D01*
X156465Y188816D01*
X154910Y187261D01*
X154857Y187187D01*
X154797Y187118D01*
X154785Y187088D01*
X154766Y187062D01*
X154739Y186975D01*
X154705Y186890D01*
X154701Y186849D01*
X154694Y186826D01*
X154695Y186794D01*
X154687Y186723D01*
X154687Y182227D01*
X146988Y174528D01*
X146976Y174512D01*
X146961Y174500D01*
X146904Y174412D01*
X146844Y174329D01*
X146838Y174310D01*
X146828Y174293D01*
X146802Y174192D01*
X146772Y174093D01*
X146772Y174074D01*
X146768Y174054D01*
X146776Y173951D01*
X146778Y173848D01*
X146785Y173829D01*
X146787Y173809D01*
X146827Y173714D01*
X146863Y173617D01*
X146875Y173601D01*
X146883Y173583D01*
X146988Y173452D01*
X168460Y151980D01*
X168518Y151938D01*
X168570Y151889D01*
X168617Y151867D01*
X168659Y151836D01*
X168728Y151815D01*
X168793Y151785D01*
X168845Y151779D01*
X168895Y151764D01*
X168966Y151766D01*
X169037Y151758D01*
X169088Y151769D01*
X169140Y151770D01*
X169208Y151795D01*
X169278Y151810D01*
X169322Y151837D01*
X169371Y151855D01*
X169427Y151900D01*
X169489Y151936D01*
X169523Y151976D01*
X169563Y152008D01*
X169602Y152069D01*
X169649Y152123D01*
X169668Y152171D01*
X169696Y152215D01*
X169714Y152285D01*
X169741Y152351D01*
X169749Y152423D01*
X169757Y152454D01*
X169755Y152477D01*
X169759Y152518D01*
X169759Y155077D01*
X177038Y155077D01*
X177058Y155080D01*
X177077Y155078D01*
X177179Y155100D01*
X177281Y155117D01*
X177298Y155126D01*
X177318Y155130D01*
X177407Y155183D01*
X177498Y155232D01*
X177512Y155246D01*
X177529Y155256D01*
X177596Y155335D01*
X177667Y155410D01*
X177676Y155428D01*
X177689Y155443D01*
X177728Y155539D01*
X177771Y155633D01*
X177773Y155653D01*
X177781Y155671D01*
X177799Y155838D01*
X177799Y156601D01*
X177801Y156601D01*
X177801Y155838D01*
X177804Y155818D01*
X177802Y155799D01*
X177824Y155697D01*
X177841Y155595D01*
X177850Y155578D01*
X177854Y155558D01*
X177907Y155469D01*
X177956Y155378D01*
X177970Y155364D01*
X177980Y155347D01*
X178059Y155280D01*
X178134Y155209D01*
X178152Y155200D01*
X178167Y155187D01*
X178263Y155148D01*
X178357Y155105D01*
X178377Y155103D01*
X178395Y155095D01*
X178562Y155077D01*
X185841Y155077D01*
X185841Y151266D01*
X185668Y150619D01*
X185333Y150040D01*
X184860Y149567D01*
X184750Y149503D01*
X184713Y149473D01*
X184670Y149450D01*
X184618Y149396D01*
X184559Y149348D01*
X184534Y149307D01*
X184501Y149272D01*
X184469Y149203D01*
X184429Y149139D01*
X184417Y149092D01*
X184397Y149049D01*
X184389Y148974D01*
X184371Y148900D01*
X184375Y148852D01*
X184370Y148805D01*
X184386Y148731D01*
X184393Y148655D01*
X184412Y148611D01*
X184422Y148564D01*
X184461Y148499D01*
X184492Y148430D01*
X184524Y148394D01*
X184549Y148353D01*
X184606Y148304D01*
X184657Y148248D01*
X184699Y148224D01*
X184735Y148193D01*
X184806Y148165D01*
X184872Y148128D01*
X184919Y148119D01*
X184964Y148101D01*
X185092Y148087D01*
X185114Y148083D01*
X185120Y148084D01*
X185130Y148083D01*
X190873Y148083D01*
X190944Y148094D01*
G37*
G36*
X64756Y23122D02*
X64756Y23122D01*
X64802Y23120D01*
X64877Y23142D01*
X64953Y23154D01*
X64994Y23176D01*
X65038Y23189D01*
X65102Y23233D01*
X65171Y23270D01*
X65202Y23303D01*
X65240Y23329D01*
X65287Y23392D01*
X65340Y23448D01*
X65360Y23490D01*
X65387Y23526D01*
X65411Y23600D01*
X65444Y23671D01*
X65449Y23717D01*
X65463Y23760D01*
X65462Y23838D01*
X65471Y23915D01*
X65461Y23960D01*
X65461Y24006D01*
X65423Y24137D01*
X65419Y24156D01*
X65416Y24160D01*
X65414Y24167D01*
X65277Y24497D01*
X65277Y28843D01*
X66940Y32857D01*
X70013Y35930D01*
X72681Y37035D01*
X72781Y37097D01*
X72881Y37157D01*
X72885Y37161D01*
X72890Y37165D01*
X72965Y37255D01*
X73041Y37344D01*
X73043Y37349D01*
X73047Y37354D01*
X73089Y37463D01*
X73133Y37572D01*
X73134Y37579D01*
X73135Y37584D01*
X73136Y37602D01*
X73151Y37738D01*
X73151Y51372D01*
X73137Y51462D01*
X73129Y51553D01*
X73117Y51583D01*
X73112Y51615D01*
X73069Y51695D01*
X73033Y51779D01*
X73007Y51811D01*
X72996Y51832D01*
X72973Y51854D01*
X72928Y51910D01*
X59640Y65198D01*
X59582Y65240D01*
X59530Y65289D01*
X59483Y65311D01*
X59441Y65342D01*
X59372Y65363D01*
X59307Y65393D01*
X59255Y65399D01*
X59205Y65414D01*
X59134Y65412D01*
X59063Y65420D01*
X59012Y65409D01*
X58960Y65408D01*
X58892Y65383D01*
X58822Y65368D01*
X58778Y65341D01*
X58729Y65323D01*
X58673Y65278D01*
X58611Y65242D01*
X58577Y65202D01*
X58537Y65170D01*
X58498Y65109D01*
X58451Y65055D01*
X58432Y65006D01*
X58404Y64963D01*
X58386Y64893D01*
X58359Y64827D01*
X58351Y64755D01*
X58343Y64724D01*
X58345Y64701D01*
X58341Y64660D01*
X58341Y62873D01*
X52323Y62873D01*
X52323Y69391D01*
X53610Y69391D01*
X53681Y69402D01*
X53752Y69404D01*
X53801Y69422D01*
X53853Y69430D01*
X53916Y69464D01*
X53983Y69489D01*
X54024Y69521D01*
X54070Y69546D01*
X54119Y69597D01*
X54175Y69642D01*
X54204Y69686D01*
X54239Y69724D01*
X54270Y69789D01*
X54308Y69849D01*
X54321Y69900D01*
X54343Y69947D01*
X54351Y70018D01*
X54368Y70088D01*
X54364Y70140D01*
X54370Y70191D01*
X54355Y70262D01*
X54349Y70333D01*
X54329Y70381D01*
X54318Y70432D01*
X54281Y70493D01*
X54253Y70559D01*
X54208Y70615D01*
X54192Y70643D01*
X54174Y70658D01*
X54148Y70690D01*
X54010Y70828D01*
X53736Y71102D01*
X53662Y71155D01*
X53593Y71215D01*
X53563Y71227D01*
X53536Y71246D01*
X53449Y71273D01*
X53365Y71307D01*
X53324Y71311D01*
X53301Y71318D01*
X53269Y71317D01*
X53198Y71325D01*
X45168Y71325D01*
X44275Y72218D01*
X44275Y80248D01*
X44261Y80338D01*
X44253Y80429D01*
X44241Y80459D01*
X44236Y80491D01*
X44193Y80571D01*
X44157Y80655D01*
X44131Y80687D01*
X44120Y80708D01*
X44097Y80730D01*
X44052Y80786D01*
X41386Y83452D01*
X41328Y83494D01*
X41276Y83543D01*
X41229Y83565D01*
X41187Y83596D01*
X41118Y83617D01*
X41053Y83647D01*
X41001Y83653D01*
X40951Y83668D01*
X40880Y83666D01*
X40809Y83674D01*
X40758Y83663D01*
X40706Y83662D01*
X40638Y83637D01*
X40568Y83622D01*
X40524Y83595D01*
X40475Y83577D01*
X40419Y83532D01*
X40357Y83496D01*
X40323Y83456D01*
X40283Y83424D01*
X40244Y83363D01*
X40197Y83309D01*
X40178Y83260D01*
X40150Y83217D01*
X40132Y83147D01*
X40105Y83081D01*
X40097Y83009D01*
X40089Y82978D01*
X40091Y82955D01*
X40087Y82914D01*
X40087Y68603D01*
X31786Y60303D01*
X31775Y60286D01*
X31759Y60274D01*
X31703Y60187D01*
X31643Y60103D01*
X31637Y60084D01*
X31626Y60067D01*
X31601Y59967D01*
X31571Y59868D01*
X31571Y59848D01*
X31566Y59828D01*
X31574Y59725D01*
X31577Y59622D01*
X31584Y59603D01*
X31585Y59583D01*
X31626Y59488D01*
X31661Y59391D01*
X31674Y59375D01*
X31682Y59357D01*
X31786Y59226D01*
X32005Y59008D01*
X32005Y56692D01*
X30368Y55055D01*
X29184Y55055D01*
X29094Y55041D01*
X29003Y55033D01*
X28973Y55021D01*
X28941Y55016D01*
X28860Y54973D01*
X28777Y54937D01*
X28744Y54911D01*
X28724Y54900D01*
X28702Y54877D01*
X28646Y54832D01*
X27889Y54075D01*
X26924Y54075D01*
X26904Y54072D01*
X26885Y54074D01*
X26783Y54052D01*
X26681Y54036D01*
X26664Y54026D01*
X26644Y54022D01*
X26555Y53969D01*
X26464Y53920D01*
X26450Y53906D01*
X26433Y53896D01*
X26366Y53817D01*
X26294Y53742D01*
X26286Y53724D01*
X26273Y53709D01*
X26234Y53613D01*
X26191Y53519D01*
X26189Y53499D01*
X26181Y53481D01*
X26163Y53314D01*
X26163Y52832D01*
X26162Y52831D01*
X11938Y52831D01*
X11937Y52832D01*
X11937Y53314D01*
X11935Y53325D01*
X11936Y53331D01*
X11935Y53339D01*
X11936Y53353D01*
X11914Y53455D01*
X11898Y53557D01*
X11888Y53574D01*
X11884Y53594D01*
X11831Y53683D01*
X11782Y53774D01*
X11768Y53788D01*
X11758Y53805D01*
X11679Y53872D01*
X11604Y53944D01*
X11586Y53952D01*
X11571Y53965D01*
X11475Y54004D01*
X11381Y54047D01*
X11361Y54049D01*
X11343Y54057D01*
X11176Y54075D01*
X10211Y54075D01*
X9454Y54832D01*
X9380Y54885D01*
X9311Y54945D01*
X9281Y54957D01*
X9255Y54976D01*
X9168Y55003D01*
X9083Y55037D01*
X9042Y55041D01*
X9020Y55048D01*
X8987Y55047D01*
X8916Y55055D01*
X7732Y55055D01*
X6095Y56692D01*
X6095Y59008D01*
X7732Y60645D01*
X8916Y60645D01*
X9006Y60659D01*
X9097Y60667D01*
X9127Y60679D01*
X9159Y60684D01*
X9240Y60727D01*
X9323Y60763D01*
X9356Y60789D01*
X9376Y60800D01*
X9398Y60823D01*
X9454Y60868D01*
X10211Y61625D01*
X26325Y61625D01*
X26416Y61639D01*
X26506Y61647D01*
X26536Y61659D01*
X26568Y61664D01*
X26649Y61707D01*
X26733Y61743D01*
X26765Y61769D01*
X26786Y61780D01*
X26808Y61803D01*
X26864Y61848D01*
X29356Y64340D01*
X29370Y64360D01*
X29389Y64375D01*
X29442Y64459D01*
X29500Y64540D01*
X29507Y64563D01*
X29520Y64583D01*
X29543Y64680D01*
X29572Y64775D01*
X29572Y64799D01*
X29577Y64823D01*
X29568Y64921D01*
X29566Y65021D01*
X29558Y65043D01*
X29555Y65068D01*
X29515Y65158D01*
X29481Y65252D01*
X29466Y65271D01*
X29457Y65293D01*
X29390Y65366D01*
X29328Y65444D01*
X29307Y65457D01*
X29291Y65475D01*
X29204Y65523D01*
X29121Y65577D01*
X29097Y65583D01*
X29076Y65595D01*
X28979Y65613D01*
X28882Y65637D01*
X28858Y65635D01*
X28834Y65640D01*
X28736Y65626D01*
X28637Y65618D01*
X28615Y65608D01*
X28591Y65605D01*
X28437Y65538D01*
X28174Y65386D01*
X26956Y65059D01*
X26924Y65059D01*
X26904Y65056D01*
X26885Y65058D01*
X26783Y65036D01*
X26681Y65020D01*
X26664Y65010D01*
X26644Y65006D01*
X26555Y64953D01*
X26464Y64904D01*
X26450Y64890D01*
X26433Y64880D01*
X26366Y64801D01*
X26294Y64726D01*
X26286Y64708D01*
X26273Y64693D01*
X26234Y64597D01*
X26191Y64503D01*
X26189Y64483D01*
X26181Y64465D01*
X26163Y64298D01*
X26163Y63500D01*
X26162Y63499D01*
X11938Y63499D01*
X11937Y63500D01*
X11937Y64298D01*
X11934Y64318D01*
X11936Y64337D01*
X11914Y64439D01*
X11898Y64541D01*
X11888Y64558D01*
X11884Y64578D01*
X11831Y64667D01*
X11782Y64758D01*
X11768Y64772D01*
X11758Y64789D01*
X11679Y64856D01*
X11604Y64928D01*
X11586Y64936D01*
X11571Y64949D01*
X11475Y64988D01*
X11381Y65031D01*
X11361Y65033D01*
X11343Y65041D01*
X11176Y65059D01*
X11144Y65059D01*
X9926Y65386D01*
X8833Y66016D01*
X7941Y66908D01*
X7311Y68001D01*
X7117Y68726D01*
X18687Y68726D01*
X18706Y68729D01*
X18726Y68727D01*
X18828Y68749D01*
X18930Y68765D01*
X18947Y68775D01*
X18967Y68779D01*
X19045Y68826D01*
X19115Y68797D01*
X19208Y68754D01*
X19228Y68752D01*
X19246Y68744D01*
X19413Y68726D01*
X30983Y68726D01*
X30789Y68001D01*
X30637Y67738D01*
X30629Y67715D01*
X30615Y67696D01*
X30585Y67601D01*
X30550Y67508D01*
X30549Y67483D01*
X30542Y67460D01*
X30545Y67361D01*
X30541Y67262D01*
X30548Y67239D01*
X30549Y67215D01*
X30583Y67121D01*
X30611Y67026D01*
X30625Y67006D01*
X30633Y66984D01*
X30695Y66906D01*
X30752Y66825D01*
X30772Y66810D01*
X30787Y66792D01*
X30871Y66738D01*
X30951Y66679D01*
X30974Y66672D01*
X30994Y66659D01*
X31090Y66634D01*
X31185Y66604D01*
X31209Y66604D01*
X31232Y66598D01*
X31331Y66606D01*
X31431Y66608D01*
X31454Y66616D01*
X31478Y66618D01*
X31569Y66656D01*
X31663Y66690D01*
X31682Y66705D01*
X31704Y66714D01*
X31835Y66819D01*
X35290Y70274D01*
X35334Y70335D01*
X35370Y70373D01*
X35376Y70386D01*
X35403Y70418D01*
X35415Y70448D01*
X35434Y70474D01*
X35461Y70561D01*
X35495Y70646D01*
X35499Y70687D01*
X35506Y70709D01*
X35505Y70741D01*
X35513Y70813D01*
X35513Y91465D01*
X35499Y91555D01*
X35491Y91646D01*
X35479Y91676D01*
X35474Y91708D01*
X35431Y91788D01*
X35395Y91872D01*
X35369Y91905D01*
X35358Y91925D01*
X35335Y91947D01*
X35290Y92003D01*
X35088Y92205D01*
X35072Y92217D01*
X35060Y92233D01*
X34973Y92289D01*
X34889Y92349D01*
X34870Y92355D01*
X34853Y92366D01*
X34753Y92391D01*
X34654Y92421D01*
X34634Y92421D01*
X34614Y92426D01*
X34511Y92418D01*
X34408Y92415D01*
X34389Y92408D01*
X34369Y92407D01*
X34274Y92366D01*
X34177Y92331D01*
X34161Y92318D01*
X34143Y92310D01*
X34012Y92205D01*
X33810Y92003D01*
X33757Y91929D01*
X33697Y91860D01*
X33685Y91830D01*
X33666Y91804D01*
X33639Y91717D01*
X33605Y91632D01*
X33601Y91591D01*
X33594Y91569D01*
X33595Y91536D01*
X33587Y91465D01*
X33587Y87503D01*
X31086Y85003D01*
X31075Y84986D01*
X31059Y84974D01*
X31003Y84887D01*
X30943Y84803D01*
X30937Y84784D01*
X30926Y84767D01*
X30901Y84667D01*
X30871Y84568D01*
X30871Y84548D01*
X30866Y84528D01*
X30874Y84425D01*
X30877Y84322D01*
X30884Y84303D01*
X30885Y84283D01*
X30926Y84188D01*
X30961Y84091D01*
X30974Y84075D01*
X30982Y84057D01*
X31086Y83926D01*
X32005Y83008D01*
X32005Y80692D01*
X30368Y79055D01*
X29184Y79055D01*
X29094Y79041D01*
X29003Y79033D01*
X28973Y79021D01*
X28941Y79016D01*
X28860Y78973D01*
X28777Y78937D01*
X28744Y78911D01*
X28724Y78900D01*
X28702Y78877D01*
X28646Y78832D01*
X27889Y78075D01*
X10211Y78075D01*
X9454Y78832D01*
X9380Y78885D01*
X9311Y78945D01*
X9281Y78957D01*
X9255Y78976D01*
X9168Y79003D01*
X9083Y79037D01*
X9042Y79041D01*
X9020Y79048D01*
X8987Y79047D01*
X8916Y79055D01*
X7732Y79055D01*
X6095Y80692D01*
X6095Y83008D01*
X7732Y84645D01*
X8916Y84645D01*
X9006Y84659D01*
X9097Y84667D01*
X9127Y84679D01*
X9159Y84684D01*
X9240Y84727D01*
X9323Y84763D01*
X9356Y84789D01*
X9376Y84800D01*
X9398Y84823D01*
X9454Y84868D01*
X10211Y85625D01*
X11176Y85625D01*
X11196Y85628D01*
X11215Y85626D01*
X11317Y85648D01*
X11419Y85664D01*
X11436Y85674D01*
X11456Y85678D01*
X11545Y85731D01*
X11636Y85780D01*
X11650Y85794D01*
X11667Y85804D01*
X11734Y85883D01*
X11806Y85958D01*
X11814Y85976D01*
X11827Y85991D01*
X11866Y86087D01*
X11909Y86181D01*
X11911Y86201D01*
X11919Y86219D01*
X11937Y86386D01*
X11937Y86868D01*
X11938Y86869D01*
X26170Y86869D01*
X26260Y86883D01*
X26351Y86891D01*
X26380Y86903D01*
X26412Y86908D01*
X26493Y86951D01*
X26577Y86987D01*
X26609Y87013D01*
X26630Y87024D01*
X26652Y87047D01*
X26708Y87092D01*
X28790Y89174D01*
X28843Y89248D01*
X28903Y89318D01*
X28915Y89348D01*
X28934Y89374D01*
X28961Y89461D01*
X28995Y89546D01*
X28999Y89587D01*
X29006Y89609D01*
X29005Y89641D01*
X29013Y89713D01*
X29013Y91465D01*
X28999Y91555D01*
X28991Y91646D01*
X28979Y91676D01*
X28974Y91708D01*
X28931Y91789D01*
X28895Y91872D01*
X28869Y91905D01*
X28858Y91925D01*
X28835Y91947D01*
X28790Y92003D01*
X27925Y92868D01*
X27925Y102348D01*
X27922Y102368D01*
X27924Y102387D01*
X27902Y102489D01*
X27886Y102591D01*
X27876Y102608D01*
X27872Y102628D01*
X27819Y102717D01*
X27770Y102808D01*
X27756Y102822D01*
X27746Y102839D01*
X27667Y102906D01*
X27592Y102978D01*
X27574Y102986D01*
X27559Y102999D01*
X27463Y103038D01*
X27369Y103081D01*
X27349Y103083D01*
X27331Y103091D01*
X27164Y103109D01*
X23224Y103109D01*
X23224Y107337D01*
X23221Y107356D01*
X23223Y107376D01*
X23201Y107478D01*
X23185Y107580D01*
X23175Y107597D01*
X23171Y107617D01*
X23118Y107706D01*
X23069Y107797D01*
X23055Y107811D01*
X23045Y107828D01*
X22966Y107895D01*
X22891Y107966D01*
X22873Y107975D01*
X22858Y107988D01*
X22805Y108009D01*
X22792Y108032D01*
X22743Y108123D01*
X22729Y108137D01*
X22719Y108154D01*
X22640Y108221D01*
X22565Y108293D01*
X22547Y108301D01*
X22532Y108314D01*
X22435Y108353D01*
X22342Y108396D01*
X22322Y108398D01*
X22304Y108406D01*
X22137Y108424D01*
X14759Y108424D01*
X14759Y109684D01*
X14932Y110331D01*
X15267Y110910D01*
X15552Y111195D01*
X15605Y111269D01*
X15665Y111339D01*
X15677Y111369D01*
X15696Y111395D01*
X15723Y111482D01*
X15757Y111567D01*
X15761Y111608D01*
X15768Y111630D01*
X15767Y111662D01*
X15775Y111734D01*
X15775Y115377D01*
X15764Y115448D01*
X15762Y115520D01*
X15744Y115569D01*
X15736Y115620D01*
X15702Y115683D01*
X15677Y115751D01*
X15645Y115791D01*
X15620Y115837D01*
X15569Y115887D01*
X15524Y115943D01*
X15480Y115971D01*
X15442Y116007D01*
X15377Y116037D01*
X15317Y116076D01*
X15266Y116088D01*
X15219Y116110D01*
X15148Y116118D01*
X15078Y116136D01*
X15026Y116132D01*
X14975Y116137D01*
X14904Y116122D01*
X14833Y116116D01*
X14785Y116096D01*
X14734Y116085D01*
X14673Y116048D01*
X14607Y116020D01*
X14551Y115975D01*
X14523Y115959D01*
X14508Y115941D01*
X14476Y115915D01*
X14384Y115823D01*
X11016Y115823D01*
X8635Y118204D01*
X8635Y119199D01*
X8621Y119290D01*
X8613Y119380D01*
X8601Y119410D01*
X8596Y119442D01*
X8553Y119523D01*
X8517Y119607D01*
X8491Y119639D01*
X8480Y119660D01*
X8457Y119682D01*
X8412Y119738D01*
X7208Y120942D01*
X6167Y121983D01*
X5110Y123040D01*
X5052Y123082D01*
X5000Y123131D01*
X4953Y123153D01*
X4911Y123183D01*
X4842Y123204D01*
X4777Y123235D01*
X4725Y123240D01*
X4675Y123256D01*
X4604Y123254D01*
X4533Y123262D01*
X4482Y123251D01*
X4430Y123249D01*
X4362Y123225D01*
X4292Y123210D01*
X4247Y123183D01*
X4199Y123165D01*
X4143Y123120D01*
X4081Y123083D01*
X4047Y123044D01*
X4007Y123011D01*
X3968Y122951D01*
X3921Y122896D01*
X3902Y122848D01*
X3874Y122804D01*
X3856Y122735D01*
X3829Y122668D01*
X3821Y122597D01*
X3813Y122566D01*
X3815Y122542D01*
X3811Y122502D01*
X3811Y42926D01*
X3814Y42906D01*
X3812Y42887D01*
X3834Y42785D01*
X3850Y42683D01*
X3860Y42666D01*
X3864Y42646D01*
X3917Y42557D01*
X3966Y42466D01*
X3980Y42452D01*
X3990Y42435D01*
X4069Y42368D01*
X4144Y42296D01*
X4162Y42288D01*
X4177Y42275D01*
X4273Y42236D01*
X4367Y42193D01*
X4387Y42191D01*
X4405Y42183D01*
X4572Y42165D01*
X8034Y42165D01*
X9589Y40610D01*
X9663Y40557D01*
X9732Y40497D01*
X9762Y40485D01*
X9788Y40466D01*
X9875Y40439D01*
X9960Y40405D01*
X10001Y40401D01*
X10024Y40394D01*
X10056Y40395D01*
X10127Y40387D01*
X19044Y40387D01*
X19134Y40401D01*
X19225Y40409D01*
X19255Y40421D01*
X19287Y40426D01*
X19367Y40469D01*
X19451Y40505D01*
X19483Y40531D01*
X19504Y40542D01*
X19526Y40565D01*
X19582Y40610D01*
X19613Y40641D01*
X37523Y40641D01*
X44367Y33797D01*
X44461Y33729D01*
X44556Y33659D01*
X44562Y33657D01*
X44567Y33653D01*
X44678Y33619D01*
X44790Y33583D01*
X44796Y33583D01*
X44802Y33581D01*
X44919Y33584D01*
X45036Y33585D01*
X45043Y33587D01*
X45048Y33587D01*
X45065Y33594D01*
X45197Y33632D01*
X48627Y35053D01*
X52973Y35053D01*
X56987Y33390D01*
X60060Y30317D01*
X61723Y26303D01*
X61723Y23876D01*
X61726Y23856D01*
X61724Y23837D01*
X61746Y23735D01*
X61762Y23633D01*
X61772Y23616D01*
X61776Y23596D01*
X61829Y23507D01*
X61878Y23416D01*
X61892Y23402D01*
X61902Y23385D01*
X61981Y23318D01*
X62056Y23246D01*
X62074Y23238D01*
X62089Y23225D01*
X62185Y23186D01*
X62279Y23143D01*
X62299Y23141D01*
X62317Y23133D01*
X62484Y23115D01*
X64711Y23115D01*
X64756Y23122D01*
G37*
G36*
X4682Y148566D02*
X4682Y148566D01*
X4753Y148572D01*
X4801Y148592D01*
X4852Y148603D01*
X4913Y148640D01*
X4979Y148668D01*
X5035Y148713D01*
X5063Y148730D01*
X5078Y148747D01*
X5110Y148773D01*
X9754Y153417D01*
X25667Y153417D01*
X25758Y153431D01*
X25848Y153439D01*
X25878Y153451D01*
X25910Y153456D01*
X25991Y153499D01*
X26075Y153535D01*
X26107Y153561D01*
X26128Y153572D01*
X26150Y153595D01*
X26206Y153640D01*
X27702Y155136D01*
X27755Y155210D01*
X27815Y155280D01*
X27827Y155310D01*
X27846Y155336D01*
X27873Y155423D01*
X27907Y155508D01*
X27911Y155549D01*
X27918Y155571D01*
X27917Y155603D01*
X27925Y155675D01*
X27925Y161132D01*
X28818Y162025D01*
X33589Y162025D01*
X33660Y162036D01*
X33732Y162038D01*
X33781Y162056D01*
X33832Y162064D01*
X33895Y162098D01*
X33963Y162123D01*
X34003Y162155D01*
X34049Y162180D01*
X34099Y162231D01*
X34155Y162276D01*
X34183Y162320D01*
X34219Y162358D01*
X34249Y162423D01*
X34288Y162483D01*
X34300Y162534D01*
X34322Y162581D01*
X34330Y162652D01*
X34348Y162722D01*
X34344Y162774D01*
X34349Y162825D01*
X34334Y162896D01*
X34328Y162967D01*
X34308Y163015D01*
X34297Y163066D01*
X34260Y163127D01*
X34232Y163193D01*
X34187Y163249D01*
X34171Y163277D01*
X34153Y163292D01*
X34127Y163324D01*
X34035Y163416D01*
X34035Y166784D01*
X36422Y169171D01*
X36457Y169176D01*
X36528Y169178D01*
X36577Y169196D01*
X36629Y169204D01*
X36692Y169238D01*
X36759Y169263D01*
X36800Y169295D01*
X36846Y169320D01*
X36895Y169372D01*
X36951Y169416D01*
X36979Y169460D01*
X37015Y169498D01*
X37046Y169563D01*
X37084Y169623D01*
X37097Y169674D01*
X37119Y169721D01*
X37127Y169792D01*
X37144Y169862D01*
X37140Y169914D01*
X37146Y169965D01*
X37131Y170036D01*
X37125Y170107D01*
X37105Y170155D01*
X37094Y170206D01*
X37057Y170267D01*
X37029Y170333D01*
X36984Y170389D01*
X36968Y170417D01*
X36950Y170432D01*
X36924Y170464D01*
X36336Y171052D01*
X36262Y171106D01*
X36193Y171165D01*
X36163Y171177D01*
X36136Y171196D01*
X36049Y171223D01*
X35965Y171257D01*
X35924Y171261D01*
X35901Y171268D01*
X35869Y171267D01*
X35798Y171275D01*
X27768Y171275D01*
X26875Y172168D01*
X26875Y183432D01*
X27768Y184325D01*
X40032Y184325D01*
X40925Y183432D01*
X40925Y181861D01*
X40936Y181790D01*
X40938Y181718D01*
X40956Y181670D01*
X40964Y181618D01*
X40998Y181555D01*
X41023Y181487D01*
X41055Y181447D01*
X41080Y181401D01*
X41132Y181351D01*
X41176Y181295D01*
X41220Y181267D01*
X41258Y181231D01*
X41323Y181201D01*
X41383Y181162D01*
X41434Y181150D01*
X41481Y181128D01*
X41552Y181120D01*
X41622Y181102D01*
X41674Y181106D01*
X41725Y181101D01*
X41796Y181116D01*
X41867Y181122D01*
X41915Y181142D01*
X41966Y181153D01*
X42027Y181190D01*
X42093Y181218D01*
X42149Y181263D01*
X42177Y181279D01*
X42192Y181297D01*
X42224Y181323D01*
X42766Y181865D01*
X42929Y181865D01*
X42948Y181868D01*
X42968Y181866D01*
X43069Y181888D01*
X43172Y181904D01*
X43189Y181914D01*
X43209Y181918D01*
X43298Y181971D01*
X43389Y182020D01*
X43403Y182034D01*
X43420Y182044D01*
X43487Y182123D01*
X43558Y182198D01*
X43567Y182216D01*
X43580Y182231D01*
X43618Y182327D01*
X43662Y182421D01*
X43664Y182441D01*
X43672Y182459D01*
X43690Y182626D01*
X43690Y185698D01*
X46071Y188079D01*
X48270Y188079D01*
X48360Y188093D01*
X48451Y188101D01*
X48481Y188113D01*
X48513Y188118D01*
X48594Y188161D01*
X48678Y188197D01*
X48710Y188223D01*
X48730Y188234D01*
X48753Y188257D01*
X48809Y188302D01*
X50265Y189758D01*
X50318Y189832D01*
X50377Y189901D01*
X50389Y189931D01*
X50408Y189958D01*
X50435Y190045D01*
X50469Y190129D01*
X50474Y190170D01*
X50481Y190193D01*
X50480Y190225D01*
X50488Y190296D01*
X50488Y191726D01*
X57645Y198883D01*
X110696Y198883D01*
X110767Y198894D01*
X110839Y198896D01*
X110888Y198914D01*
X110939Y198922D01*
X111002Y198956D01*
X111070Y198981D01*
X111110Y199013D01*
X111156Y199038D01*
X111206Y199089D01*
X111262Y199134D01*
X111290Y199178D01*
X111326Y199216D01*
X111356Y199281D01*
X111395Y199341D01*
X111407Y199392D01*
X111429Y199439D01*
X111437Y199510D01*
X111455Y199580D01*
X111451Y199632D01*
X111457Y199683D01*
X111441Y199754D01*
X111436Y199825D01*
X111415Y199873D01*
X111404Y199924D01*
X111368Y199985D01*
X111339Y200051D01*
X111295Y200107D01*
X111278Y200135D01*
X111260Y200150D01*
X111235Y200182D01*
X111077Y200340D01*
X110742Y200919D01*
X110569Y201566D01*
X110569Y205877D01*
X117348Y205877D01*
X117368Y205880D01*
X117387Y205878D01*
X117489Y205900D01*
X117591Y205917D01*
X117608Y205926D01*
X117628Y205930D01*
X117717Y205983D01*
X117808Y206032D01*
X117822Y206046D01*
X117839Y206056D01*
X117906Y206135D01*
X117977Y206210D01*
X117986Y206228D01*
X117999Y206243D01*
X118038Y206339D01*
X118081Y206433D01*
X118083Y206453D01*
X118091Y206471D01*
X118109Y206638D01*
X118109Y208162D01*
X118106Y208182D01*
X118108Y208201D01*
X118086Y208303D01*
X118069Y208405D01*
X118060Y208422D01*
X118056Y208442D01*
X118003Y208531D01*
X117954Y208622D01*
X117940Y208636D01*
X117930Y208653D01*
X117851Y208720D01*
X117776Y208791D01*
X117758Y208800D01*
X117743Y208813D01*
X117647Y208852D01*
X117553Y208895D01*
X117533Y208897D01*
X117515Y208905D01*
X117348Y208923D01*
X110569Y208923D01*
X110569Y212138D01*
X110566Y212158D01*
X110568Y212177D01*
X110546Y212279D01*
X110530Y212381D01*
X110520Y212398D01*
X110516Y212418D01*
X110463Y212507D01*
X110414Y212598D01*
X110400Y212612D01*
X110390Y212629D01*
X110311Y212696D01*
X110236Y212768D01*
X110218Y212776D01*
X110203Y212789D01*
X110107Y212828D01*
X110013Y212871D01*
X109993Y212873D01*
X109975Y212881D01*
X109808Y212899D01*
X66899Y212899D01*
X66808Y212885D01*
X66718Y212877D01*
X66688Y212865D01*
X66656Y212860D01*
X66575Y212817D01*
X66491Y212781D01*
X66459Y212755D01*
X66438Y212744D01*
X66416Y212721D01*
X66360Y212676D01*
X44691Y191007D01*
X16757Y191007D01*
X16666Y190993D01*
X16576Y190985D01*
X16546Y190973D01*
X16514Y190968D01*
X16433Y190925D01*
X16349Y190889D01*
X16317Y190863D01*
X16296Y190852D01*
X16274Y190829D01*
X16218Y190784D01*
X15267Y189833D01*
X15214Y189759D01*
X15155Y189690D01*
X15143Y189660D01*
X15124Y189634D01*
X15097Y189547D01*
X15063Y189462D01*
X15058Y189421D01*
X15051Y189399D01*
X15052Y189366D01*
X15044Y189295D01*
X15044Y187096D01*
X14589Y186640D01*
X14547Y186582D01*
X14497Y186530D01*
X14475Y186483D01*
X14445Y186441D01*
X14424Y186372D01*
X14394Y186307D01*
X14388Y186255D01*
X14373Y186205D01*
X14375Y186134D01*
X14367Y186063D01*
X14378Y186012D01*
X14379Y185960D01*
X14404Y185892D01*
X14419Y185822D01*
X14446Y185777D01*
X14464Y185729D01*
X14508Y185673D01*
X14545Y185611D01*
X14585Y185577D01*
X14617Y185537D01*
X14678Y185498D01*
X14732Y185451D01*
X14780Y185432D01*
X14824Y185404D01*
X14894Y185386D01*
X14960Y185359D01*
X15031Y185351D01*
X15063Y185343D01*
X15086Y185345D01*
X15127Y185341D01*
X15377Y185341D01*
X15377Y179323D01*
X8859Y179323D01*
X8859Y183134D01*
X9032Y183781D01*
X9179Y184034D01*
X9194Y184075D01*
X9218Y184112D01*
X9237Y184190D01*
X9266Y184264D01*
X9267Y184308D01*
X9278Y184351D01*
X9272Y184430D01*
X9275Y184510D01*
X9262Y184552D01*
X9259Y184596D01*
X9228Y184669D01*
X9205Y184746D01*
X9180Y184782D01*
X9163Y184822D01*
X9072Y184936D01*
X9064Y184947D01*
X9061Y184949D01*
X9058Y184953D01*
X6915Y187096D01*
X6915Y190463D01*
X9296Y192844D01*
X11495Y192844D01*
X11585Y192859D01*
X11676Y192866D01*
X11706Y192879D01*
X11738Y192884D01*
X11819Y192927D01*
X11902Y192963D01*
X11935Y192988D01*
X11955Y192999D01*
X11977Y193023D01*
X12033Y193067D01*
X14547Y195581D01*
X16647Y195581D01*
X16681Y195586D01*
X16714Y195584D01*
X16802Y195606D01*
X16890Y195620D01*
X16920Y195636D01*
X16953Y195645D01*
X17028Y195694D01*
X17108Y195736D01*
X17131Y195760D01*
X17159Y195778D01*
X17215Y195849D01*
X17277Y195914D01*
X17291Y195945D01*
X17312Y195971D01*
X17343Y196055D01*
X17381Y196137D01*
X17384Y196171D01*
X17396Y196202D01*
X17398Y196292D01*
X17408Y196381D01*
X17401Y196414D01*
X17401Y196448D01*
X17375Y196534D01*
X17355Y196622D01*
X17338Y196651D01*
X17328Y196683D01*
X17275Y196756D01*
X17229Y196833D01*
X17204Y196855D01*
X17184Y196882D01*
X17052Y196987D01*
X14820Y198389D01*
X12255Y200435D01*
X9935Y202755D01*
X7889Y205320D01*
X6144Y208098D01*
X5258Y209938D01*
X5214Y210000D01*
X5178Y210068D01*
X5144Y210100D01*
X5117Y210139D01*
X5055Y210184D01*
X5000Y210237D01*
X4957Y210257D01*
X4919Y210285D01*
X4846Y210308D01*
X4777Y210341D01*
X4730Y210346D01*
X4685Y210360D01*
X4608Y210359D01*
X4533Y210368D01*
X4486Y210358D01*
X4439Y210357D01*
X4367Y210332D01*
X4292Y210315D01*
X4251Y210291D01*
X4207Y210275D01*
X4146Y210228D01*
X4081Y210189D01*
X4050Y210153D01*
X4013Y210124D01*
X3971Y210060D01*
X3921Y210002D01*
X3903Y209958D01*
X3877Y209919D01*
X3858Y209845D01*
X3829Y209774D01*
X3822Y209711D01*
X3814Y209681D01*
X3816Y209655D01*
X3811Y209607D01*
X3811Y149311D01*
X3822Y149241D01*
X3824Y149169D01*
X3842Y149120D01*
X3850Y149069D01*
X3884Y149005D01*
X3909Y148938D01*
X3941Y148897D01*
X3966Y148851D01*
X4018Y148802D01*
X4062Y148746D01*
X4106Y148718D01*
X4144Y148682D01*
X4209Y148652D01*
X4269Y148613D01*
X4320Y148600D01*
X4367Y148578D01*
X4438Y148570D01*
X4508Y148553D01*
X4560Y148557D01*
X4611Y148551D01*
X4682Y148566D01*
G37*
G36*
X60774Y213858D02*
X60774Y213858D01*
X60864Y213857D01*
X60896Y213867D01*
X60930Y213870D01*
X61012Y213905D01*
X61098Y213933D01*
X61125Y213953D01*
X61156Y213966D01*
X61287Y214071D01*
X64689Y217473D01*
X110824Y217473D01*
X110844Y217476D01*
X110863Y217474D01*
X110965Y217496D01*
X111067Y217512D01*
X111084Y217522D01*
X111104Y217526D01*
X111193Y217579D01*
X111284Y217628D01*
X111298Y217642D01*
X111315Y217652D01*
X111382Y217731D01*
X111454Y217806D01*
X111462Y217824D01*
X111475Y217839D01*
X111514Y217935D01*
X111557Y218029D01*
X111559Y218049D01*
X111567Y218067D01*
X111585Y218234D01*
X111585Y224649D01*
X111574Y224720D01*
X111572Y224792D01*
X111554Y224840D01*
X111546Y224892D01*
X111512Y224955D01*
X111487Y225023D01*
X111455Y225063D01*
X111430Y225109D01*
X111378Y225159D01*
X111334Y225215D01*
X111290Y225243D01*
X111252Y225279D01*
X111187Y225309D01*
X111127Y225348D01*
X111076Y225360D01*
X111029Y225382D01*
X110958Y225390D01*
X110888Y225408D01*
X110836Y225404D01*
X110785Y225409D01*
X110714Y225394D01*
X110643Y225388D01*
X110595Y225368D01*
X110544Y225357D01*
X110483Y225320D01*
X110417Y225292D01*
X110361Y225247D01*
X110333Y225231D01*
X110318Y225213D01*
X110286Y225187D01*
X109634Y224535D01*
X106266Y224535D01*
X104711Y226090D01*
X104637Y226143D01*
X104568Y226203D01*
X104538Y226215D01*
X104512Y226234D01*
X104425Y226261D01*
X104340Y226295D01*
X104299Y226299D01*
X104276Y226306D01*
X104244Y226305D01*
X104173Y226313D01*
X74930Y226313D01*
X74910Y226310D01*
X74891Y226312D01*
X74789Y226290D01*
X74687Y226274D01*
X74670Y226264D01*
X74650Y226260D01*
X74561Y226207D01*
X74470Y226158D01*
X74456Y226144D01*
X74439Y226134D01*
X74372Y226055D01*
X74300Y225980D01*
X74292Y225962D01*
X74279Y225947D01*
X74240Y225851D01*
X74197Y225757D01*
X74195Y225737D01*
X74187Y225719D01*
X74169Y225552D01*
X74169Y223402D01*
X71788Y221021D01*
X68420Y221021D01*
X66039Y223402D01*
X66039Y226770D01*
X68420Y229151D01*
X70619Y229151D01*
X70710Y229165D01*
X70800Y229173D01*
X70830Y229185D01*
X70862Y229190D01*
X70943Y229233D01*
X71027Y229269D01*
X71059Y229295D01*
X71080Y229306D01*
X71102Y229329D01*
X71158Y229374D01*
X72671Y230887D01*
X98077Y230887D01*
X98148Y230898D01*
X98220Y230900D01*
X98268Y230918D01*
X98320Y230926D01*
X98383Y230960D01*
X98451Y230985D01*
X98491Y231017D01*
X98537Y231042D01*
X98587Y231094D01*
X98643Y231138D01*
X98671Y231182D01*
X98707Y231220D01*
X98737Y231285D01*
X98776Y231345D01*
X98788Y231396D01*
X98810Y231443D01*
X98818Y231514D01*
X98836Y231584D01*
X98832Y231636D01*
X98837Y231687D01*
X98822Y231758D01*
X98816Y231829D01*
X98796Y231877D01*
X98785Y231928D01*
X98748Y231989D01*
X98720Y232055D01*
X98675Y232111D01*
X98659Y232139D01*
X98641Y232154D01*
X98615Y232186D01*
X97535Y233266D01*
X97535Y236634D01*
X99916Y239015D01*
X103284Y239015D01*
X104839Y237460D01*
X104913Y237407D01*
X104982Y237347D01*
X105012Y237335D01*
X105038Y237316D01*
X105125Y237289D01*
X105210Y237255D01*
X105251Y237251D01*
X105274Y237244D01*
X105306Y237245D01*
X105377Y237237D01*
X160655Y237237D01*
X160745Y237251D01*
X160836Y237259D01*
X160865Y237271D01*
X160897Y237276D01*
X160978Y237319D01*
X161062Y237355D01*
X161094Y237381D01*
X161115Y237392D01*
X161137Y237415D01*
X161193Y237460D01*
X166273Y242540D01*
X166315Y242598D01*
X166364Y242650D01*
X166386Y242697D01*
X166416Y242739D01*
X166438Y242808D01*
X166468Y242873D01*
X166474Y242925D01*
X166489Y242975D01*
X166487Y243046D01*
X166495Y243117D01*
X166484Y243168D01*
X166482Y243220D01*
X166458Y243288D01*
X166443Y243358D01*
X166416Y243402D01*
X166398Y243451D01*
X166353Y243507D01*
X166316Y243569D01*
X166277Y243603D01*
X166244Y243643D01*
X166184Y243682D01*
X166130Y243729D01*
X166081Y243748D01*
X166037Y243776D01*
X165968Y243794D01*
X165901Y243821D01*
X165830Y243829D01*
X165799Y243837D01*
X165776Y243835D01*
X165735Y243839D01*
X94989Y243839D01*
X94898Y243825D01*
X94808Y243817D01*
X94778Y243805D01*
X94746Y243800D01*
X94665Y243757D01*
X94581Y243721D01*
X94549Y243695D01*
X94528Y243684D01*
X94506Y243661D01*
X94450Y243616D01*
X93188Y242354D01*
X93135Y242280D01*
X93075Y242210D01*
X93063Y242180D01*
X93044Y242154D01*
X93017Y242067D01*
X92983Y241982D01*
X92979Y241941D01*
X92972Y241919D01*
X92973Y241887D01*
X92965Y241815D01*
X92965Y239616D01*
X90584Y237235D01*
X87216Y237235D01*
X84835Y239616D01*
X84835Y242984D01*
X87216Y245365D01*
X89415Y245365D01*
X89506Y245379D01*
X89596Y245387D01*
X89626Y245399D01*
X89658Y245404D01*
X89739Y245447D01*
X89823Y245483D01*
X89855Y245509D01*
X89876Y245520D01*
X89898Y245543D01*
X89954Y245588D01*
X92779Y248413D01*
X199423Y248413D01*
X199513Y248427D01*
X199604Y248435D01*
X199634Y248447D01*
X199666Y248452D01*
X199746Y248495D01*
X199830Y248531D01*
X199862Y248557D01*
X199883Y248568D01*
X199905Y248591D01*
X199961Y248636D01*
X200215Y248890D01*
X200257Y248948D01*
X200307Y249000D01*
X200329Y249047D01*
X200359Y249089D01*
X200380Y249158D01*
X200410Y249223D01*
X200416Y249275D01*
X200431Y249325D01*
X200429Y249396D01*
X200437Y249467D01*
X200426Y249518D01*
X200425Y249570D01*
X200400Y249638D01*
X200385Y249708D01*
X200358Y249753D01*
X200340Y249801D01*
X200296Y249857D01*
X200259Y249919D01*
X200219Y249953D01*
X200187Y249993D01*
X200127Y250032D01*
X200072Y250079D01*
X200024Y250098D01*
X199980Y250126D01*
X199910Y250144D01*
X199844Y250171D01*
X199773Y250179D01*
X199741Y250187D01*
X199718Y250185D01*
X199677Y250189D01*
X44393Y250189D01*
X44317Y250177D01*
X44241Y250174D01*
X44197Y250157D01*
X44150Y250150D01*
X44083Y250114D01*
X44011Y250087D01*
X43974Y250057D01*
X43932Y250034D01*
X43880Y249979D01*
X43821Y249931D01*
X43796Y249891D01*
X43763Y249856D01*
X43731Y249787D01*
X43691Y249722D01*
X43680Y249676D01*
X43659Y249633D01*
X43651Y249557D01*
X43633Y249483D01*
X43638Y249436D01*
X43632Y249389D01*
X43649Y249314D01*
X43655Y249238D01*
X43675Y249195D01*
X43685Y249148D01*
X43724Y249083D01*
X43754Y249013D01*
X43786Y248978D01*
X43811Y248937D01*
X43869Y248887D01*
X43920Y248831D01*
X43974Y248797D01*
X43998Y248777D01*
X44022Y248767D01*
X44062Y248742D01*
X45902Y247856D01*
X48680Y246111D01*
X51245Y244065D01*
X53565Y241745D01*
X55611Y239180D01*
X57356Y236402D01*
X58780Y233446D01*
X59863Y230349D01*
X60593Y227151D01*
X60961Y223890D01*
X60961Y223773D01*
X32512Y223773D01*
X32492Y223770D01*
X32473Y223772D01*
X32371Y223750D01*
X32269Y223733D01*
X32252Y223724D01*
X32232Y223720D01*
X32143Y223667D01*
X32052Y223618D01*
X32038Y223604D01*
X32021Y223594D01*
X31954Y223515D01*
X31883Y223440D01*
X31874Y223422D01*
X31861Y223407D01*
X31823Y223311D01*
X31779Y223217D01*
X31777Y223197D01*
X31769Y223179D01*
X31751Y223012D01*
X31751Y221488D01*
X31754Y221468D01*
X31752Y221449D01*
X31774Y221347D01*
X31791Y221245D01*
X31800Y221228D01*
X31804Y221208D01*
X31857Y221119D01*
X31906Y221028D01*
X31920Y221014D01*
X31930Y220997D01*
X32009Y220930D01*
X32084Y220859D01*
X32102Y220850D01*
X32117Y220837D01*
X32213Y220798D01*
X32307Y220755D01*
X32327Y220753D01*
X32345Y220745D01*
X32512Y220727D01*
X60961Y220727D01*
X60961Y220610D01*
X60593Y217349D01*
X60007Y214779D01*
X60005Y214745D01*
X59995Y214713D01*
X59997Y214623D01*
X59991Y214533D01*
X60000Y214501D01*
X60001Y214467D01*
X60032Y214382D01*
X60055Y214296D01*
X60074Y214268D01*
X60085Y214236D01*
X60142Y214166D01*
X60191Y214091D01*
X60218Y214070D01*
X60239Y214044D01*
X60315Y213995D01*
X60386Y213940D01*
X60418Y213929D01*
X60446Y213911D01*
X60533Y213889D01*
X60618Y213859D01*
X60652Y213859D01*
X60685Y213851D01*
X60774Y213858D01*
G37*
G36*
X100186Y175594D02*
X100186Y175594D01*
X100257Y175600D01*
X100305Y175620D01*
X100356Y175631D01*
X100417Y175668D01*
X100483Y175696D01*
X100539Y175741D01*
X100567Y175758D01*
X100582Y175775D01*
X100614Y175801D01*
X101090Y176277D01*
X141953Y176277D01*
X142043Y176291D01*
X142134Y176299D01*
X142164Y176311D01*
X142196Y176316D01*
X142276Y176359D01*
X142360Y176395D01*
X142392Y176421D01*
X142413Y176432D01*
X142435Y176455D01*
X142491Y176500D01*
X149890Y183899D01*
X149943Y183973D01*
X150003Y184042D01*
X150015Y184072D01*
X150034Y184098D01*
X150061Y184185D01*
X150095Y184270D01*
X150099Y184311D01*
X150106Y184333D01*
X150105Y184366D01*
X150113Y184437D01*
X150113Y186723D01*
X150099Y186813D01*
X150091Y186904D01*
X150079Y186934D01*
X150074Y186966D01*
X150031Y187046D01*
X149995Y187130D01*
X149969Y187162D01*
X149958Y187183D01*
X149935Y187205D01*
X149890Y187261D01*
X148335Y188816D01*
X148335Y192184D01*
X149353Y193201D01*
X149395Y193260D01*
X149444Y193312D01*
X149466Y193359D01*
X149497Y193401D01*
X149518Y193470D01*
X149548Y193535D01*
X149554Y193587D01*
X149569Y193636D01*
X149567Y193708D01*
X149575Y193779D01*
X149564Y193830D01*
X149563Y193882D01*
X149538Y193950D01*
X149523Y194020D01*
X149496Y194064D01*
X149478Y194113D01*
X149433Y194169D01*
X149397Y194231D01*
X149357Y194265D01*
X149324Y194305D01*
X149264Y194344D01*
X149210Y194391D01*
X149161Y194410D01*
X149118Y194438D01*
X149048Y194456D01*
X148982Y194483D01*
X148910Y194490D01*
X148879Y194498D01*
X148856Y194496D01*
X148815Y194501D01*
X142715Y194501D01*
X142625Y194486D01*
X142534Y194479D01*
X142504Y194467D01*
X142472Y194461D01*
X142392Y194419D01*
X142308Y194383D01*
X142276Y194357D01*
X142255Y194346D01*
X142233Y194323D01*
X142177Y194278D01*
X141384Y193485D01*
X138016Y193485D01*
X137223Y194278D01*
X137149Y194331D01*
X137080Y194391D01*
X137050Y194403D01*
X137024Y194422D01*
X136937Y194448D01*
X136852Y194483D01*
X136811Y194487D01*
X136788Y194494D01*
X136756Y194493D01*
X136685Y194501D01*
X136615Y194501D01*
X136525Y194486D01*
X136434Y194479D01*
X136404Y194467D01*
X136372Y194461D01*
X136292Y194419D01*
X136208Y194383D01*
X136176Y194357D01*
X136155Y194346D01*
X136133Y194323D01*
X136077Y194278D01*
X135284Y193485D01*
X131917Y193485D01*
X129536Y195866D01*
X129536Y199048D01*
X129524Y199119D01*
X129522Y199191D01*
X129504Y199240D01*
X129496Y199291D01*
X129462Y199354D01*
X129438Y199422D01*
X129405Y199462D01*
X129381Y199508D01*
X129329Y199558D01*
X129284Y199614D01*
X129240Y199642D01*
X129202Y199678D01*
X129137Y199708D01*
X129077Y199747D01*
X129026Y199759D01*
X128979Y199781D01*
X128908Y199789D01*
X128838Y199807D01*
X128787Y199803D01*
X128735Y199809D01*
X128665Y199793D01*
X128593Y199788D01*
X128545Y199767D01*
X128494Y199756D01*
X128433Y199719D01*
X128367Y199691D01*
X128311Y199647D01*
X128283Y199630D01*
X128268Y199612D01*
X128236Y199587D01*
X122959Y194309D01*
X111727Y194309D01*
X111656Y194298D01*
X111584Y194296D01*
X111536Y194278D01*
X111484Y194270D01*
X111421Y194236D01*
X111353Y194211D01*
X111313Y194179D01*
X111267Y194154D01*
X111217Y194102D01*
X111161Y194058D01*
X111133Y194014D01*
X111097Y193976D01*
X111067Y193911D01*
X111028Y193851D01*
X111016Y193800D01*
X110994Y193753D01*
X110986Y193682D01*
X110968Y193612D01*
X110972Y193560D01*
X110967Y193509D01*
X110982Y193438D01*
X110988Y193367D01*
X111008Y193319D01*
X111019Y193268D01*
X111056Y193207D01*
X111084Y193141D01*
X111129Y193085D01*
X111145Y193057D01*
X111163Y193042D01*
X111189Y193010D01*
X112015Y192184D01*
X112015Y188816D01*
X109634Y186435D01*
X106161Y186435D01*
X106145Y186440D01*
X106060Y186474D01*
X106019Y186479D01*
X105997Y186486D01*
X105965Y186485D01*
X105893Y186493D01*
X72358Y186493D01*
X72321Y186519D01*
X72251Y186579D01*
X72221Y186591D01*
X72195Y186610D01*
X72108Y186637D01*
X72023Y186671D01*
X71982Y186675D01*
X71960Y186682D01*
X71928Y186681D01*
X71856Y186689D01*
X70384Y186689D01*
X70293Y186675D01*
X70203Y186667D01*
X70173Y186655D01*
X70141Y186650D01*
X70060Y186607D01*
X69976Y186571D01*
X69944Y186545D01*
X69923Y186534D01*
X69901Y186511D01*
X69878Y186493D01*
X61377Y186493D01*
X61287Y186478D01*
X61196Y186471D01*
X61167Y186458D01*
X61135Y186453D01*
X61054Y186410D01*
X60970Y186375D01*
X60938Y186349D01*
X60917Y186338D01*
X60895Y186315D01*
X60839Y186270D01*
X59284Y184715D01*
X55917Y184715D01*
X54341Y186290D01*
X54325Y186302D01*
X54313Y186317D01*
X54251Y186357D01*
X54200Y186400D01*
X54173Y186412D01*
X54142Y186434D01*
X54123Y186440D01*
X54106Y186450D01*
X54027Y186470D01*
X53972Y186492D01*
X53940Y186496D01*
X53907Y186506D01*
X53887Y186506D01*
X53867Y186510D01*
X53833Y186508D01*
X53806Y186511D01*
X53801Y186511D01*
X53747Y186502D01*
X53661Y186500D01*
X53642Y186493D01*
X53622Y186491D01*
X53585Y186475D01*
X53558Y186471D01*
X53504Y186443D01*
X53430Y186415D01*
X53414Y186403D01*
X53396Y186395D01*
X53359Y186366D01*
X53341Y186356D01*
X53320Y186335D01*
X53265Y186290D01*
X52042Y185068D01*
X51989Y184994D01*
X51930Y184924D01*
X51918Y184894D01*
X51899Y184868D01*
X51872Y184781D01*
X51838Y184696D01*
X51833Y184655D01*
X51827Y184633D01*
X51827Y184601D01*
X51819Y184529D01*
X51819Y182330D01*
X49438Y179949D01*
X49276Y179949D01*
X49256Y179946D01*
X49237Y179948D01*
X49135Y179926D01*
X49033Y179910D01*
X49016Y179900D01*
X48996Y179896D01*
X48907Y179843D01*
X48816Y179794D01*
X48802Y179780D01*
X48785Y179770D01*
X48718Y179691D01*
X48646Y179616D01*
X48638Y179598D01*
X48625Y179583D01*
X48586Y179487D01*
X48543Y179393D01*
X48541Y179373D01*
X48533Y179355D01*
X48515Y179188D01*
X48515Y177854D01*
X48526Y177783D01*
X48528Y177712D01*
X48546Y177663D01*
X48554Y177611D01*
X48588Y177548D01*
X48613Y177481D01*
X48645Y177440D01*
X48670Y177394D01*
X48722Y177345D01*
X48766Y177289D01*
X48810Y177260D01*
X48848Y177225D01*
X48913Y177194D01*
X48973Y177156D01*
X49024Y177143D01*
X49071Y177121D01*
X49142Y177113D01*
X49212Y177096D01*
X49264Y177100D01*
X49315Y177094D01*
X49386Y177109D01*
X49457Y177115D01*
X49505Y177135D01*
X49556Y177146D01*
X49617Y177183D01*
X49683Y177211D01*
X49739Y177256D01*
X49767Y177272D01*
X49782Y177290D01*
X49814Y177316D01*
X53347Y180849D01*
X92235Y180849D01*
X92325Y180863D01*
X92416Y180871D01*
X92446Y180883D01*
X92478Y180888D01*
X92558Y180931D01*
X92642Y180967D01*
X92674Y180993D01*
X92695Y181004D01*
X92717Y181027D01*
X92773Y181072D01*
X93566Y181865D01*
X96934Y181865D01*
X99315Y179484D01*
X99315Y176339D01*
X99326Y176269D01*
X99328Y176197D01*
X99346Y176148D01*
X99354Y176097D01*
X99388Y176033D01*
X99413Y175966D01*
X99445Y175925D01*
X99470Y175879D01*
X99522Y175830D01*
X99566Y175774D01*
X99610Y175746D01*
X99648Y175710D01*
X99713Y175680D01*
X99773Y175641D01*
X99824Y175628D01*
X99871Y175606D01*
X99942Y175598D01*
X100012Y175581D01*
X100064Y175585D01*
X100115Y175579D01*
X100186Y175594D01*
G37*
%LPC*%
G36*
X193039Y33273D02*
X193039Y33273D01*
X193039Y33390D01*
X193407Y36651D01*
X194137Y39849D01*
X195220Y42946D01*
X196644Y45902D01*
X198389Y48680D01*
X200435Y51245D01*
X202755Y53565D01*
X205320Y55611D01*
X208098Y57356D01*
X211054Y58780D01*
X214151Y59863D01*
X217349Y60593D01*
X220610Y60961D01*
X220727Y60961D01*
X220727Y33273D01*
X193039Y33273D01*
G37*
%LPD*%
G36*
X40255Y3822D02*
X40255Y3822D01*
X40327Y3824D01*
X40376Y3842D01*
X40427Y3850D01*
X40490Y3884D01*
X40558Y3909D01*
X40598Y3941D01*
X40644Y3966D01*
X40694Y4018D01*
X40750Y4062D01*
X40778Y4106D01*
X40814Y4144D01*
X40844Y4209D01*
X40883Y4269D01*
X40896Y4320D01*
X40917Y4367D01*
X40925Y4438D01*
X40943Y4508D01*
X40939Y4560D01*
X40945Y4611D01*
X40929Y4682D01*
X40924Y4753D01*
X40903Y4801D01*
X40892Y4852D01*
X40855Y4913D01*
X40827Y4979D01*
X40783Y5035D01*
X40766Y5063D01*
X40748Y5078D01*
X40723Y5110D01*
X35643Y10190D01*
X35569Y10243D01*
X35499Y10303D01*
X35469Y10315D01*
X35443Y10334D01*
X35356Y10361D01*
X35271Y10395D01*
X35230Y10399D01*
X35208Y10406D01*
X35176Y10405D01*
X35104Y10413D01*
X29177Y10413D01*
X29087Y10399D01*
X28996Y10391D01*
X28966Y10379D01*
X28934Y10374D01*
X28854Y10331D01*
X28770Y10295D01*
X28738Y10269D01*
X28717Y10258D01*
X28695Y10235D01*
X28639Y10190D01*
X27084Y8635D01*
X23716Y8635D01*
X21335Y11016D01*
X21335Y14404D01*
X21348Y14418D01*
X21368Y14461D01*
X21396Y14500D01*
X21418Y14573D01*
X21449Y14642D01*
X21454Y14690D01*
X21468Y14736D01*
X21466Y14811D01*
X21474Y14886D01*
X21463Y14933D01*
X21462Y14981D01*
X21436Y15052D01*
X21419Y15126D01*
X21394Y15167D01*
X21377Y15212D01*
X21330Y15272D01*
X21291Y15336D01*
X21254Y15367D01*
X21224Y15404D01*
X21160Y15445D01*
X21102Y15494D01*
X21043Y15521D01*
X21017Y15537D01*
X20992Y15544D01*
X20949Y15563D01*
X20817Y15606D01*
X19143Y16459D01*
X17622Y17564D01*
X16294Y18892D01*
X15189Y20413D01*
X14336Y22087D01*
X13755Y23874D01*
X13554Y25147D01*
X24638Y25147D01*
X24658Y25150D01*
X24677Y25148D01*
X24779Y25170D01*
X24881Y25187D01*
X24898Y25196D01*
X24918Y25200D01*
X25007Y25253D01*
X25098Y25302D01*
X25112Y25316D01*
X25129Y25326D01*
X25196Y25405D01*
X25267Y25480D01*
X25276Y25498D01*
X25289Y25513D01*
X25327Y25609D01*
X25371Y25703D01*
X25373Y25723D01*
X25381Y25741D01*
X25399Y25908D01*
X25399Y27432D01*
X25397Y27443D01*
X25398Y27449D01*
X25396Y27457D01*
X25398Y27471D01*
X25376Y27573D01*
X25359Y27675D01*
X25350Y27692D01*
X25346Y27712D01*
X25293Y27801D01*
X25244Y27892D01*
X25230Y27906D01*
X25220Y27923D01*
X25141Y27990D01*
X25066Y28061D01*
X25048Y28070D01*
X25033Y28083D01*
X24937Y28122D01*
X24843Y28165D01*
X24823Y28167D01*
X24805Y28175D01*
X24638Y28193D01*
X13554Y28193D01*
X13755Y29466D01*
X14336Y31253D01*
X15189Y32927D01*
X16294Y34448D01*
X16360Y34514D01*
X16402Y34572D01*
X16451Y34624D01*
X16473Y34671D01*
X16503Y34713D01*
X16524Y34782D01*
X16555Y34847D01*
X16560Y34899D01*
X16576Y34948D01*
X16574Y35020D01*
X16582Y35091D01*
X16571Y35142D01*
X16569Y35194D01*
X16545Y35262D01*
X16530Y35332D01*
X16503Y35377D01*
X16485Y35425D01*
X16440Y35481D01*
X16403Y35543D01*
X16364Y35577D01*
X16331Y35617D01*
X16271Y35656D01*
X16216Y35703D01*
X16168Y35722D01*
X16124Y35750D01*
X16055Y35768D01*
X15988Y35795D01*
X15917Y35803D01*
X15886Y35811D01*
X15863Y35809D01*
X15822Y35813D01*
X10127Y35813D01*
X10037Y35799D01*
X9946Y35791D01*
X9916Y35779D01*
X9884Y35774D01*
X9804Y35731D01*
X9720Y35695D01*
X9688Y35669D01*
X9667Y35658D01*
X9645Y35635D01*
X9589Y35590D01*
X8034Y34035D01*
X4572Y34035D01*
X4552Y34032D01*
X4533Y34034D01*
X4431Y34012D01*
X4329Y33996D01*
X4312Y33986D01*
X4292Y33982D01*
X4203Y33929D01*
X4112Y33880D01*
X4098Y33866D01*
X4081Y33856D01*
X4014Y33777D01*
X3942Y33702D01*
X3934Y33684D01*
X3921Y33669D01*
X3882Y33573D01*
X3839Y33479D01*
X3837Y33459D01*
X3829Y33441D01*
X3811Y33274D01*
X3811Y31750D01*
X3814Y31732D01*
X3812Y31700D01*
X4045Y28153D01*
X4050Y28130D01*
X4069Y28006D01*
X5905Y21152D01*
X5912Y21138D01*
X5914Y21122D01*
X5950Y21041D01*
X5950Y21040D01*
X5951Y21038D01*
X5982Y20969D01*
X9529Y14824D01*
X9539Y14812D01*
X9545Y14798D01*
X9592Y14739D01*
X9593Y14738D01*
X9650Y14667D01*
X14667Y9650D01*
X14680Y9641D01*
X14689Y9628D01*
X14824Y9529D01*
X20969Y5982D01*
X20983Y5976D01*
X20996Y5966D01*
X21152Y5905D01*
X28006Y4069D01*
X28029Y4067D01*
X28153Y4045D01*
X31700Y3812D01*
X31719Y3814D01*
X31750Y3811D01*
X40184Y3811D01*
X40255Y3822D01*
G37*
G36*
X85320Y78498D02*
X85320Y78498D01*
X85392Y78500D01*
X85441Y78518D01*
X85492Y78526D01*
X85556Y78560D01*
X85623Y78585D01*
X85664Y78617D01*
X85710Y78642D01*
X85759Y78694D01*
X85815Y78738D01*
X85843Y78782D01*
X85879Y78820D01*
X85909Y78885D01*
X85948Y78945D01*
X85961Y78996D01*
X85983Y79043D01*
X85991Y79114D01*
X86008Y79184D01*
X86004Y79236D01*
X86010Y79287D01*
X85995Y79358D01*
X85989Y79429D01*
X85969Y79477D01*
X85958Y79528D01*
X85921Y79589D01*
X85893Y79655D01*
X85848Y79711D01*
X85831Y79739D01*
X85814Y79754D01*
X85788Y79786D01*
X84835Y80739D01*
X84835Y84106D01*
X87216Y86487D01*
X90584Y86487D01*
X92139Y84932D01*
X92213Y84879D01*
X92282Y84820D01*
X92312Y84808D01*
X92338Y84789D01*
X92425Y84762D01*
X92510Y84728D01*
X92551Y84723D01*
X92574Y84716D01*
X92606Y84717D01*
X92677Y84709D01*
X95549Y84709D01*
X95619Y84721D01*
X95691Y84723D01*
X95740Y84741D01*
X95791Y84749D01*
X95855Y84783D01*
X95922Y84807D01*
X95963Y84840D01*
X96009Y84864D01*
X96058Y84916D01*
X96114Y84961D01*
X96142Y85005D01*
X96178Y85043D01*
X96208Y85108D01*
X96247Y85168D01*
X96260Y85218D01*
X96282Y85266D01*
X96290Y85337D01*
X96307Y85406D01*
X96303Y85458D01*
X96309Y85510D01*
X96294Y85580D01*
X96288Y85652D01*
X96268Y85699D01*
X96257Y85750D01*
X96220Y85812D01*
X96192Y85878D01*
X96147Y85934D01*
X96130Y85962D01*
X96113Y85977D01*
X96087Y86009D01*
X85522Y96574D01*
X85506Y96586D01*
X85493Y96601D01*
X85406Y96657D01*
X85322Y96718D01*
X85303Y96723D01*
X85286Y96734D01*
X85186Y96759D01*
X85087Y96790D01*
X85067Y96789D01*
X85048Y96794D01*
X84945Y96786D01*
X84841Y96784D01*
X84822Y96777D01*
X84802Y96775D01*
X84707Y96735D01*
X84610Y96699D01*
X84594Y96687D01*
X84576Y96679D01*
X84445Y96574D01*
X84432Y96561D01*
X80667Y96561D01*
X78005Y99223D01*
X78005Y103088D01*
X78007Y103094D01*
X78037Y103159D01*
X78043Y103211D01*
X78058Y103260D01*
X78057Y103332D01*
X78064Y103403D01*
X78053Y103454D01*
X78052Y103506D01*
X78027Y103574D01*
X78012Y103644D01*
X77986Y103688D01*
X77968Y103737D01*
X77923Y103793D01*
X77886Y103855D01*
X77847Y103889D01*
X77814Y103929D01*
X77754Y103968D01*
X77699Y104015D01*
X77651Y104034D01*
X77607Y104062D01*
X77538Y104080D01*
X77471Y104107D01*
X77400Y104115D01*
X77369Y104123D01*
X77345Y104121D01*
X77304Y104125D01*
X75452Y104125D01*
X75432Y104122D01*
X75413Y104124D01*
X75311Y104102D01*
X75209Y104086D01*
X75192Y104076D01*
X75172Y104072D01*
X75083Y104019D01*
X74992Y103970D01*
X74978Y103956D01*
X74961Y103946D01*
X74894Y103867D01*
X74822Y103792D01*
X74814Y103774D01*
X74801Y103759D01*
X74762Y103663D01*
X74719Y103569D01*
X74717Y103549D01*
X74709Y103531D01*
X74691Y103364D01*
X74691Y99424D01*
X70463Y99424D01*
X70444Y99421D01*
X70424Y99423D01*
X70322Y99401D01*
X70220Y99385D01*
X70203Y99375D01*
X70183Y99371D01*
X70094Y99318D01*
X70003Y99269D01*
X69989Y99255D01*
X69972Y99245D01*
X69905Y99166D01*
X69834Y99091D01*
X69825Y99073D01*
X69812Y99058D01*
X69774Y98962D01*
X69730Y98868D01*
X69728Y98848D01*
X69720Y98830D01*
X69702Y98663D01*
X69702Y98337D01*
X69705Y98317D01*
X69703Y98297D01*
X69725Y98196D01*
X69742Y98094D01*
X69751Y98077D01*
X69755Y98057D01*
X69808Y97968D01*
X69857Y97877D01*
X69871Y97863D01*
X69881Y97846D01*
X69960Y97779D01*
X70035Y97707D01*
X70053Y97699D01*
X70068Y97686D01*
X70165Y97647D01*
X70258Y97604D01*
X70278Y97602D01*
X70296Y97594D01*
X70463Y97576D01*
X74691Y97576D01*
X74691Y93165D01*
X74518Y92519D01*
X74183Y91940D01*
X73710Y91467D01*
X73131Y91132D01*
X72581Y90985D01*
X72494Y90946D01*
X72404Y90913D01*
X72382Y90895D01*
X72357Y90884D01*
X72287Y90819D01*
X72212Y90759D01*
X72197Y90736D01*
X72176Y90716D01*
X72131Y90633D01*
X72079Y90553D01*
X72072Y90525D01*
X72059Y90500D01*
X72043Y90406D01*
X72019Y90314D01*
X72021Y90286D01*
X72017Y90258D01*
X72031Y90164D01*
X72038Y90069D01*
X72049Y90043D01*
X72054Y90015D01*
X72097Y89930D01*
X72135Y89842D01*
X72157Y89815D01*
X72166Y89796D01*
X72190Y89773D01*
X72240Y89711D01*
X83241Y78710D01*
X83315Y78657D01*
X83385Y78597D01*
X83415Y78585D01*
X83441Y78566D01*
X83528Y78539D01*
X83613Y78505D01*
X83654Y78501D01*
X83676Y78494D01*
X83708Y78495D01*
X83780Y78487D01*
X85250Y78487D01*
X85320Y78498D01*
G37*
%LPC*%
G36*
X171668Y167075D02*
X171668Y167075D01*
X170775Y167968D01*
X170775Y174752D01*
X170772Y174772D01*
X170774Y174791D01*
X170752Y174893D01*
X170736Y174995D01*
X170726Y175012D01*
X170722Y175032D01*
X170669Y175121D01*
X170620Y175212D01*
X170606Y175226D01*
X170596Y175243D01*
X170517Y175310D01*
X170442Y175382D01*
X170424Y175390D01*
X170409Y175403D01*
X170313Y175442D01*
X170219Y175485D01*
X170199Y175487D01*
X170181Y175495D01*
X170014Y175513D01*
X168877Y175513D01*
X168787Y175499D01*
X168696Y175491D01*
X168666Y175479D01*
X168634Y175474D01*
X168554Y175431D01*
X168470Y175395D01*
X168438Y175369D01*
X168417Y175358D01*
X168395Y175335D01*
X168339Y175290D01*
X166784Y173735D01*
X163416Y173735D01*
X161035Y176116D01*
X161035Y179484D01*
X163416Y181865D01*
X166784Y181865D01*
X168339Y180310D01*
X168413Y180257D01*
X168482Y180197D01*
X168512Y180185D01*
X168538Y180166D01*
X168625Y180139D01*
X168710Y180105D01*
X168751Y180101D01*
X168774Y180094D01*
X168806Y180095D01*
X168877Y180087D01*
X171315Y180087D01*
X171405Y180101D01*
X171496Y180109D01*
X171526Y180121D01*
X171547Y180125D01*
X183932Y180125D01*
X184825Y179232D01*
X184825Y167968D01*
X183932Y167075D01*
X171668Y167075D01*
G37*
%LPD*%
%LPC*%
G36*
X131918Y31075D02*
X131918Y31075D01*
X131025Y31968D01*
X131025Y34539D01*
X131014Y34610D01*
X131012Y34682D01*
X130994Y34730D01*
X130986Y34782D01*
X130952Y34845D01*
X130927Y34913D01*
X130895Y34953D01*
X130870Y34999D01*
X130818Y35049D01*
X130774Y35105D01*
X130730Y35133D01*
X130692Y35169D01*
X130627Y35199D01*
X130567Y35238D01*
X130516Y35250D01*
X130469Y35272D01*
X130398Y35280D01*
X130328Y35298D01*
X130276Y35294D01*
X130225Y35299D01*
X130154Y35284D01*
X130083Y35278D01*
X130035Y35258D01*
X129984Y35247D01*
X129923Y35210D01*
X129857Y35182D01*
X129801Y35137D01*
X129773Y35121D01*
X129758Y35103D01*
X129726Y35077D01*
X128684Y34035D01*
X125316Y34035D01*
X122935Y36416D01*
X122935Y39784D01*
X125316Y42165D01*
X128684Y42165D01*
X129726Y41123D01*
X129784Y41081D01*
X129836Y41031D01*
X129883Y41009D01*
X129925Y40979D01*
X129994Y40958D01*
X130059Y40928D01*
X130111Y40922D01*
X130161Y40907D01*
X130232Y40909D01*
X130303Y40901D01*
X130354Y40912D01*
X130406Y40913D01*
X130474Y40938D01*
X130544Y40953D01*
X130589Y40980D01*
X130637Y40998D01*
X130693Y41042D01*
X130755Y41079D01*
X130789Y41119D01*
X130829Y41151D01*
X130868Y41212D01*
X130915Y41266D01*
X130934Y41314D01*
X130962Y41358D01*
X130980Y41428D01*
X131007Y41494D01*
X131015Y41565D01*
X131023Y41597D01*
X131021Y41620D01*
X131025Y41661D01*
X131025Y44232D01*
X131918Y45125D01*
X143182Y45125D01*
X144075Y44232D01*
X144075Y31968D01*
X143182Y31075D01*
X131918Y31075D01*
G37*
%LPD*%
G36*
X39190Y13476D02*
X39190Y13476D01*
X39294Y13478D01*
X39312Y13485D01*
X39332Y13487D01*
X39427Y13527D01*
X39525Y13563D01*
X39540Y13575D01*
X39559Y13583D01*
X39689Y13688D01*
X42204Y16202D01*
X42216Y16219D01*
X42231Y16231D01*
X42287Y16318D01*
X42348Y16402D01*
X42353Y16421D01*
X42364Y16438D01*
X42389Y16538D01*
X42420Y16637D01*
X42419Y16657D01*
X42424Y16676D01*
X42416Y16779D01*
X42414Y16883D01*
X42407Y16902D01*
X42405Y16922D01*
X42367Y17012D01*
X42362Y17032D01*
X42354Y17046D01*
X42329Y17114D01*
X42317Y17130D01*
X42309Y17148D01*
X42246Y17227D01*
X42236Y17243D01*
X42226Y17252D01*
X42204Y17279D01*
X41540Y17943D01*
X39877Y21957D01*
X39877Y26303D01*
X41298Y29733D01*
X41325Y29847D01*
X41353Y29960D01*
X41353Y29967D01*
X41354Y29973D01*
X41343Y30089D01*
X41334Y30206D01*
X41332Y30211D01*
X41331Y30218D01*
X41283Y30325D01*
X41238Y30432D01*
X41233Y30438D01*
X41231Y30442D01*
X41219Y30456D01*
X41133Y30563D01*
X35852Y35844D01*
X35778Y35897D01*
X35708Y35957D01*
X35678Y35969D01*
X35652Y35988D01*
X35565Y36015D01*
X35480Y36049D01*
X35439Y36053D01*
X35417Y36060D01*
X35385Y36059D01*
X35313Y36067D01*
X34724Y36067D01*
X34654Y36056D01*
X34582Y36054D01*
X34533Y36036D01*
X34482Y36028D01*
X34418Y35994D01*
X34351Y35969D01*
X34310Y35937D01*
X34264Y35912D01*
X34215Y35861D01*
X34159Y35816D01*
X34131Y35772D01*
X34095Y35734D01*
X34065Y35669D01*
X34026Y35609D01*
X34013Y35558D01*
X33991Y35511D01*
X33983Y35440D01*
X33966Y35370D01*
X33970Y35318D01*
X33964Y35267D01*
X33979Y35196D01*
X33985Y35125D01*
X34005Y35077D01*
X34016Y35026D01*
X34053Y34965D01*
X34081Y34899D01*
X34126Y34843D01*
X34143Y34815D01*
X34160Y34800D01*
X34186Y34768D01*
X34506Y34448D01*
X35611Y32927D01*
X36464Y31253D01*
X37045Y29466D01*
X37246Y28193D01*
X26162Y28193D01*
X26142Y28190D01*
X26123Y28192D01*
X26021Y28170D01*
X25919Y28153D01*
X25902Y28144D01*
X25882Y28140D01*
X25793Y28087D01*
X25702Y28038D01*
X25688Y28024D01*
X25671Y28014D01*
X25604Y27935D01*
X25533Y27860D01*
X25524Y27842D01*
X25511Y27827D01*
X25473Y27731D01*
X25429Y27637D01*
X25427Y27617D01*
X25419Y27599D01*
X25401Y27432D01*
X25401Y25908D01*
X25404Y25888D01*
X25402Y25869D01*
X25424Y25767D01*
X25441Y25665D01*
X25450Y25648D01*
X25454Y25628D01*
X25507Y25539D01*
X25556Y25448D01*
X25570Y25434D01*
X25580Y25417D01*
X25659Y25350D01*
X25734Y25279D01*
X25752Y25270D01*
X25767Y25257D01*
X25863Y25218D01*
X25957Y25175D01*
X25977Y25173D01*
X25995Y25165D01*
X26162Y25147D01*
X37246Y25147D01*
X37045Y23874D01*
X36464Y22087D01*
X35611Y20413D01*
X34506Y18892D01*
X33178Y17564D01*
X31657Y16459D01*
X31593Y16426D01*
X31538Y16386D01*
X31478Y16354D01*
X31440Y16314D01*
X31395Y16281D01*
X31356Y16225D01*
X31309Y16176D01*
X31285Y16125D01*
X31253Y16080D01*
X31234Y16014D01*
X31205Y15953D01*
X31199Y15897D01*
X31183Y15844D01*
X31186Y15776D01*
X31178Y15709D01*
X31190Y15654D01*
X31192Y15598D01*
X31216Y15535D01*
X31230Y15468D01*
X31259Y15420D01*
X31279Y15368D01*
X31322Y15315D01*
X31357Y15257D01*
X31399Y15221D01*
X31435Y15177D01*
X31492Y15141D01*
X31544Y15097D01*
X31596Y15076D01*
X31643Y15046D01*
X31709Y15031D01*
X31772Y15005D01*
X31850Y14997D01*
X31882Y14989D01*
X31903Y14991D01*
X31938Y14987D01*
X37314Y14987D01*
X38613Y13688D01*
X38629Y13676D01*
X38642Y13661D01*
X38729Y13605D01*
X38813Y13544D01*
X38832Y13538D01*
X38848Y13528D01*
X38949Y13502D01*
X39048Y13472D01*
X39068Y13472D01*
X39087Y13468D01*
X39190Y13476D01*
G37*
%LPC*%
G36*
X177909Y90423D02*
X177909Y90423D01*
X177909Y96234D01*
X178082Y96881D01*
X178417Y97460D01*
X178890Y97933D01*
X179469Y98268D01*
X180116Y98441D01*
X193927Y98441D01*
X193927Y90423D01*
X177909Y90423D01*
G37*
%LPD*%
G36*
X102532Y91952D02*
X102532Y91952D01*
X102551Y91950D01*
X102653Y91972D01*
X102755Y91988D01*
X102772Y91998D01*
X102792Y92002D01*
X102881Y92055D01*
X102972Y92104D01*
X102986Y92118D01*
X103003Y92128D01*
X103070Y92207D01*
X103142Y92282D01*
X103150Y92300D01*
X103163Y92315D01*
X103202Y92411D01*
X103245Y92505D01*
X103247Y92525D01*
X103255Y92543D01*
X103273Y92710D01*
X103273Y95140D01*
X103259Y95230D01*
X103251Y95321D01*
X103239Y95351D01*
X103234Y95383D01*
X103191Y95464D01*
X103155Y95548D01*
X103129Y95580D01*
X103118Y95600D01*
X103095Y95623D01*
X103078Y95644D01*
X103073Y95652D01*
X103069Y95656D01*
X103050Y95679D01*
X89603Y109126D01*
X89529Y109179D01*
X89459Y109239D01*
X89429Y109251D01*
X89403Y109270D01*
X89316Y109297D01*
X89231Y109331D01*
X89190Y109335D01*
X89168Y109342D01*
X89136Y109341D01*
X89064Y109349D01*
X86586Y109349D01*
X86566Y109346D01*
X86547Y109348D01*
X86445Y109326D01*
X86343Y109310D01*
X86326Y109300D01*
X86306Y109296D01*
X86217Y109243D01*
X86126Y109194D01*
X86112Y109180D01*
X86095Y109170D01*
X86028Y109091D01*
X85956Y109016D01*
X85948Y108998D01*
X85935Y108983D01*
X85896Y108887D01*
X85853Y108793D01*
X85851Y108773D01*
X85843Y108755D01*
X85825Y108588D01*
X85825Y104916D01*
X85828Y104896D01*
X85826Y104877D01*
X85848Y104775D01*
X85864Y104673D01*
X85874Y104656D01*
X85878Y104636D01*
X85931Y104547D01*
X85980Y104456D01*
X85994Y104442D01*
X86004Y104425D01*
X86083Y104358D01*
X86158Y104286D01*
X86176Y104278D01*
X86191Y104265D01*
X86287Y104226D01*
X86381Y104183D01*
X86401Y104181D01*
X86419Y104173D01*
X86561Y104157D01*
X98547Y92172D01*
X98621Y92119D01*
X98691Y92059D01*
X98721Y92047D01*
X98747Y92028D01*
X98834Y92001D01*
X98919Y91967D01*
X98960Y91963D01*
X98982Y91956D01*
X99014Y91957D01*
X99085Y91949D01*
X102512Y91949D01*
X102532Y91952D01*
G37*
%LPC*%
G36*
X18985Y70903D02*
X18985Y70903D01*
X18892Y70946D01*
X18872Y70948D01*
X18854Y70956D01*
X18687Y70974D01*
X7117Y70974D01*
X7311Y71699D01*
X7941Y72792D01*
X8833Y73684D01*
X9926Y74314D01*
X11144Y74641D01*
X11176Y74641D01*
X11196Y74644D01*
X11215Y74642D01*
X11317Y74664D01*
X11419Y74680D01*
X11436Y74690D01*
X11456Y74694D01*
X11545Y74747D01*
X11636Y74796D01*
X11650Y74810D01*
X11667Y74820D01*
X11734Y74899D01*
X11806Y74974D01*
X11814Y74992D01*
X11827Y75007D01*
X11866Y75103D01*
X11909Y75197D01*
X11911Y75217D01*
X11919Y75235D01*
X11937Y75402D01*
X11937Y76454D01*
X11938Y76455D01*
X26162Y76455D01*
X26163Y76454D01*
X26163Y75402D01*
X26166Y75382D01*
X26164Y75363D01*
X26186Y75261D01*
X26202Y75159D01*
X26212Y75142D01*
X26216Y75122D01*
X26269Y75033D01*
X26318Y74942D01*
X26332Y74928D01*
X26342Y74911D01*
X26421Y74844D01*
X26496Y74772D01*
X26514Y74764D01*
X26529Y74751D01*
X26625Y74712D01*
X26719Y74669D01*
X26739Y74667D01*
X26757Y74659D01*
X26924Y74641D01*
X26956Y74641D01*
X28174Y74314D01*
X29267Y73684D01*
X30159Y72792D01*
X30789Y71699D01*
X30983Y70974D01*
X19413Y70974D01*
X19394Y70971D01*
X19374Y70973D01*
X19272Y70951D01*
X19170Y70935D01*
X19153Y70925D01*
X19133Y70921D01*
X19055Y70874D01*
X18985Y70903D01*
G37*
%LPD*%
%LPC*%
G36*
X18423Y179323D02*
X18423Y179323D01*
X18423Y185341D01*
X22734Y185341D01*
X23381Y185168D01*
X23960Y184833D01*
X24433Y184360D01*
X24768Y183781D01*
X24941Y183134D01*
X24941Y179323D01*
X18423Y179323D01*
G37*
%LPD*%
%LPC*%
G36*
X179323Y158123D02*
X179323Y158123D01*
X179323Y164141D01*
X183634Y164141D01*
X184281Y163968D01*
X184860Y163633D01*
X185333Y163160D01*
X185668Y162581D01*
X185841Y161934D01*
X185841Y158123D01*
X179323Y158123D01*
G37*
%LPD*%
%LPC*%
G36*
X156073Y39623D02*
X156073Y39623D01*
X156073Y46141D01*
X159884Y46141D01*
X160531Y45968D01*
X161110Y45633D01*
X161583Y45160D01*
X161918Y44581D01*
X162091Y43934D01*
X162091Y39623D01*
X156073Y39623D01*
G37*
%LPD*%
%LPC*%
G36*
X198373Y175123D02*
X198373Y175123D01*
X198373Y181641D01*
X202185Y181641D01*
X202831Y181468D01*
X203410Y181133D01*
X203883Y180660D01*
X204218Y180081D01*
X204391Y179434D01*
X204391Y175123D01*
X198373Y175123D01*
G37*
%LPD*%
%LPC*%
G36*
X198373Y165559D02*
X198373Y165559D01*
X198373Y172077D01*
X204391Y172077D01*
X204391Y167766D01*
X204218Y167119D01*
X203883Y166540D01*
X203410Y166067D01*
X202831Y165732D01*
X202184Y165559D01*
X198373Y165559D01*
G37*
%LPD*%
%LPC*%
G36*
X52323Y53309D02*
X52323Y53309D01*
X52323Y59827D01*
X58341Y59827D01*
X58341Y55516D01*
X58168Y54869D01*
X57833Y54290D01*
X57360Y53817D01*
X56781Y53482D01*
X56134Y53309D01*
X52323Y53309D01*
G37*
%LPD*%
%LPC*%
G36*
X169759Y158123D02*
X169759Y158123D01*
X169759Y161934D01*
X169932Y162581D01*
X170267Y163160D01*
X170740Y163633D01*
X171319Y163968D01*
X171966Y164141D01*
X176277Y164141D01*
X176277Y158123D01*
X169759Y158123D01*
G37*
%LPD*%
%LPC*%
G36*
X189309Y175123D02*
X189309Y175123D01*
X189309Y179434D01*
X189482Y180081D01*
X189817Y180660D01*
X190290Y181133D01*
X190869Y181468D01*
X191516Y181641D01*
X195327Y181641D01*
X195327Y175123D01*
X189309Y175123D01*
G37*
%LPD*%
%LPC*%
G36*
X43259Y62873D02*
X43259Y62873D01*
X43259Y67184D01*
X43432Y67831D01*
X43767Y68410D01*
X44240Y68883D01*
X44819Y69218D01*
X45466Y69391D01*
X49277Y69391D01*
X49277Y62873D01*
X43259Y62873D01*
G37*
%LPD*%
%LPC*%
G36*
X147009Y39623D02*
X147009Y39623D01*
X147009Y43934D01*
X147182Y44581D01*
X147517Y45160D01*
X147990Y45633D01*
X148569Y45968D01*
X149216Y46141D01*
X153027Y46141D01*
X153027Y39623D01*
X147009Y39623D01*
G37*
%LPD*%
%LPC*%
G36*
X18423Y170259D02*
X18423Y170259D01*
X18423Y176277D01*
X24941Y176277D01*
X24941Y172465D01*
X24768Y171819D01*
X24433Y171240D01*
X23960Y170767D01*
X23381Y170432D01*
X22734Y170259D01*
X18423Y170259D01*
G37*
%LPD*%
%LPC*%
G36*
X11066Y170259D02*
X11066Y170259D01*
X10419Y170432D01*
X9840Y170767D01*
X9367Y171240D01*
X9032Y171819D01*
X8859Y172466D01*
X8859Y176277D01*
X15377Y176277D01*
X15377Y170259D01*
X11066Y170259D01*
G37*
%LPD*%
%LPC*%
G36*
X191516Y165559D02*
X191516Y165559D01*
X190869Y165732D01*
X190290Y166067D01*
X189817Y166540D01*
X189482Y167119D01*
X189309Y167766D01*
X189309Y172077D01*
X195327Y172077D01*
X195327Y165559D01*
X191516Y165559D01*
G37*
%LPD*%
%LPC*%
G36*
X45466Y53309D02*
X45466Y53309D01*
X44819Y53482D01*
X44240Y53817D01*
X43767Y54290D01*
X43432Y54869D01*
X43259Y55516D01*
X43259Y59827D01*
X49277Y59827D01*
X49277Y53309D01*
X45466Y53309D01*
G37*
%LPD*%
%LPC*%
G36*
X149216Y30059D02*
X149216Y30059D01*
X148569Y30232D01*
X147990Y30567D01*
X147517Y31040D01*
X147182Y31619D01*
X147009Y32266D01*
X147009Y36577D01*
X153027Y36577D01*
X153027Y30059D01*
X149216Y30059D01*
G37*
%LPD*%
%LPC*%
G36*
X16966Y103109D02*
X16966Y103109D01*
X16319Y103282D01*
X15740Y103617D01*
X15267Y104090D01*
X14932Y104669D01*
X14759Y105316D01*
X14759Y106576D01*
X21376Y106576D01*
X21376Y103109D01*
X16966Y103109D01*
G37*
%LPD*%
%LPC*%
G36*
X149199Y204859D02*
X149199Y204859D01*
X149199Y208401D01*
X154241Y208401D01*
X154241Y207066D01*
X154068Y206419D01*
X153733Y205840D01*
X153260Y205367D01*
X152681Y205032D01*
X152034Y204859D01*
X149199Y204859D01*
G37*
%LPD*%
%LPC*%
G36*
X193649Y204859D02*
X193649Y204859D01*
X193649Y208401D01*
X198691Y208401D01*
X198691Y207066D01*
X198518Y206419D01*
X198183Y205840D01*
X197710Y205367D01*
X197131Y205032D01*
X196484Y204859D01*
X193649Y204859D01*
G37*
%LPD*%
%LPC*%
G36*
X188816Y204859D02*
X188816Y204859D01*
X188169Y205032D01*
X187590Y205367D01*
X187117Y205840D01*
X186782Y206419D01*
X186609Y207066D01*
X186609Y208401D01*
X191651Y208401D01*
X191651Y204859D01*
X188816Y204859D01*
G37*
%LPD*%
%LPC*%
G36*
X16899Y177799D02*
X16899Y177799D01*
X16899Y177801D01*
X16901Y177801D01*
X16901Y177799D01*
X16899Y177799D01*
G37*
%LPD*%
%LPC*%
G36*
X196849Y173599D02*
X196849Y173599D01*
X196849Y173601D01*
X196851Y173601D01*
X196851Y173599D01*
X196849Y173599D01*
G37*
%LPD*%
%LPC*%
G36*
X50799Y126999D02*
X50799Y126999D01*
X50799Y127001D01*
X50801Y127001D01*
X50801Y126999D01*
X50799Y126999D01*
G37*
%LPD*%
%LPC*%
G36*
X50799Y61349D02*
X50799Y61349D01*
X50799Y61351D01*
X50801Y61351D01*
X50801Y61349D01*
X50799Y61349D01*
G37*
%LPD*%
%LPC*%
G36*
X154549Y38099D02*
X154549Y38099D01*
X154549Y38101D01*
X154551Y38101D01*
X154551Y38099D01*
X154549Y38099D01*
G37*
%LPD*%
D10*
X31300Y155500D03*
X37800Y155500D03*
X44300Y155500D03*
X50800Y155500D03*
X57300Y155500D03*
X63800Y155500D03*
X70300Y155500D03*
D11*
X79300Y146500D03*
X79300Y140000D03*
X79300Y133500D03*
X79300Y127000D03*
X79300Y120500D03*
X79300Y114000D03*
X79300Y107500D03*
D10*
X70300Y98500D03*
X63800Y98500D03*
X57300Y98500D03*
X50800Y98500D03*
X44300Y98500D03*
X37800Y98500D03*
X31300Y98500D03*
D11*
X22300Y107500D03*
X22300Y114000D03*
X22300Y120500D03*
X22300Y127000D03*
X22300Y133500D03*
X22300Y140000D03*
X22300Y146500D03*
D12*
X50800Y127000D03*
D13*
X33900Y177800D03*
X16900Y177800D03*
D14*
X50800Y78350D03*
X50800Y61350D03*
D15*
X222250Y31750D03*
X31750Y222250D03*
D16*
X19050Y81850D02*
X8890Y81850D01*
X19050Y81850D02*
X29210Y81850D01*
X19050Y57850D02*
X8890Y57850D01*
X19050Y57850D02*
X29210Y57850D01*
X19050Y69850D02*
X8890Y69850D01*
X19050Y69850D02*
X29210Y69850D01*
D17*
X26325Y81850D02*
X11775Y81850D01*
X11775Y69850D02*
X26325Y69850D01*
X26325Y57850D02*
X11775Y57850D01*
D14*
X196850Y156600D03*
X196850Y173600D03*
D18*
X195450Y88900D03*
X147450Y88900D03*
D13*
X177800Y156600D03*
X177800Y173600D03*
D14*
X154550Y38100D03*
X137550Y38100D03*
D19*
X25400Y26670D03*
X50800Y24130D03*
X76200Y26670D03*
D20*
X192650Y222400D03*
X192650Y215900D03*
X192650Y209400D03*
X175650Y209400D03*
X175650Y222400D03*
X148200Y222400D03*
X148200Y215900D03*
X148200Y209400D03*
X131200Y209400D03*
X131200Y222400D03*
D13*
X175650Y234950D03*
X192650Y234950D03*
D14*
X118110Y224400D03*
X118110Y207400D03*
D21*
X64262Y19050D03*
D22*
X70612Y12700D01*
X152400Y12700D01*
X160274Y20574D01*
X160749Y20574D01*
X177800Y37625D01*
X177800Y57150D01*
X190500Y69850D01*
X205943Y69850D01*
X67503Y162786D02*
X66164Y161447D01*
X216453Y128686D02*
X216453Y122162D01*
X216453Y128686D02*
X199342Y145796D01*
X171410Y145796D01*
X66164Y157864D02*
X66164Y161447D01*
X66164Y157864D02*
X63800Y155500D01*
X90833Y162786D02*
X102037Y173990D01*
X90833Y162786D02*
X67503Y162786D01*
X143216Y173990D02*
X171410Y145796D01*
X143216Y173990D02*
X102037Y173990D01*
X215900Y121610D02*
X216453Y122162D01*
X215900Y121610D02*
X215900Y84117D01*
X215784Y84001D01*
X215784Y79691D01*
X205943Y69850D01*
D21*
X152400Y190500D03*
D22*
X152400Y183174D01*
X143216Y173990D01*
X148200Y215900D02*
X158750Y215900D01*
D21*
X158750Y215900D03*
D22*
X22300Y127000D02*
X21792Y126492D01*
X11717Y126492D01*
D21*
X11717Y126492D03*
D22*
X37800Y155500D02*
X37800Y164800D01*
X38100Y165100D01*
D21*
X38100Y165100D03*
X12700Y146304D03*
D22*
X22104Y146304D01*
X22300Y146500D01*
D21*
X12700Y139700D03*
D22*
X22000Y139700D01*
X22300Y140000D01*
X22300Y133500D02*
X13104Y133500D01*
X12700Y133096D01*
D21*
X12700Y133096D03*
X12700Y119888D03*
D22*
X9718Y121666D02*
X6891Y124493D01*
X10922Y121666D02*
X12700Y119888D01*
X10922Y121666D02*
X9718Y121666D01*
X26930Y151130D02*
X31300Y155500D01*
X26930Y151130D02*
X10701Y151130D01*
X6891Y147320D02*
X6891Y124493D01*
X6891Y147320D02*
X10701Y151130D01*
D23*
X50800Y127000D02*
X50800Y118000D01*
X68698Y100102D02*
X70300Y98500D01*
X68698Y100102D02*
X68698Y104763D01*
X66913Y106548D01*
X62252Y106548D01*
X50800Y118000D01*
D21*
X137160Y156210D03*
X137160Y149860D03*
X137160Y143510D03*
X137160Y137160D03*
X143510Y137160D03*
X143510Y143510D03*
X143510Y149860D03*
X143510Y156210D03*
X109220Y156210D03*
X109220Y149860D03*
X109220Y143510D03*
X109220Y137160D03*
X101600Y39370D03*
X205740Y101600D03*
X199390Y101600D03*
X193040Y101600D03*
X186690Y101600D03*
X180340Y101600D03*
X173990Y101600D03*
X167640Y101600D03*
X118110Y191770D03*
X124460Y191770D03*
X50800Y127000D03*
X247650Y123190D03*
X241300Y123190D03*
X234950Y123190D03*
X234950Y129540D03*
X241300Y129540D03*
X247650Y129540D03*
X93980Y100330D03*
X110490Y114300D03*
X62230Y49530D03*
X205740Y107950D03*
X205740Y114300D03*
X199390Y107950D03*
X199390Y114300D03*
X193040Y107950D03*
X137160Y130810D03*
X143510Y130810D03*
X149860Y130810D03*
X149860Y137160D03*
X149860Y143510D03*
X149860Y149860D03*
X156210Y143510D03*
X156210Y137160D03*
X30480Y49530D03*
X6350Y158750D03*
X161290Y203200D03*
D22*
X158090Y206400D02*
X148200Y209400D01*
X158090Y206400D02*
X161290Y203200D01*
D21*
X186690Y203200D03*
X69850Y207010D03*
X96520Y203200D03*
X71120Y184150D03*
X77470Y220980D03*
X175260Y191770D03*
X181610Y191770D03*
X187960Y191770D03*
X238760Y191770D03*
X245110Y191770D03*
D22*
X107950Y31750D02*
X114300Y25400D01*
D21*
X107950Y31750D03*
D22*
X81664Y111636D02*
X79300Y114000D01*
X81664Y111636D02*
X90327Y111636D01*
X107338Y94625D01*
D21*
X107338Y94488D03*
D22*
X107338Y94625D01*
X114300Y25400D02*
X158750Y25400D01*
D21*
X158750Y25400D03*
D22*
X120650Y50800D02*
X101600Y50800D01*
X95250Y44450D01*
D21*
X95250Y44450D03*
X107950Y101092D03*
D22*
X81664Y118136D02*
X79300Y120500D01*
X81664Y118136D02*
X90327Y118136D01*
X107371Y101092D02*
X107950Y101092D01*
X107371Y101092D02*
X90327Y118136D01*
D21*
X120650Y50800D03*
X171450Y50800D03*
D22*
X120650Y50800D01*
X31300Y88450D02*
X31300Y98500D01*
X24700Y81850D02*
X19050Y81850D01*
X24700Y81850D02*
X31300Y88450D01*
X37800Y98500D02*
X37800Y69550D01*
X25400Y57150D01*
X24700Y57850D01*
X19050Y57850D01*
D21*
X6350Y38100D03*
D22*
X20306Y38100D01*
X20560Y38354D01*
X36576Y38354D01*
X50800Y24130D01*
D23*
X54610Y177800D02*
X69850Y177800D01*
D16*
X44300Y167490D02*
X44300Y155500D01*
D23*
X49530Y172720D02*
X54610Y177800D01*
X49530Y172720D02*
X44300Y167490D01*
X79300Y127000D02*
X88900Y127000D01*
X95250Y133350D01*
X95250Y139700D01*
D21*
X95250Y139700D03*
X95250Y177800D03*
D23*
X69850Y177800D01*
X44300Y167400D02*
X44300Y155500D01*
X44300Y167400D02*
X33900Y177800D01*
D21*
X133600Y197550D03*
D23*
X139700Y197550D01*
X171450Y197550D01*
D21*
X171450Y197550D03*
X139700Y197550D03*
D23*
X139700Y19050D02*
X139225Y18575D01*
D21*
X139700Y19050D03*
D23*
X84295Y18575D02*
X76200Y26670D01*
X84295Y18575D02*
X139225Y18575D01*
X55050Y74100D02*
X50800Y78350D01*
X55050Y74100D02*
X76200Y52950D01*
X76200Y26670D01*
X44300Y84850D02*
X44300Y98500D01*
X44300Y84850D02*
X50800Y78350D01*
D21*
X63500Y82550D03*
D23*
X55050Y74100D01*
D24*
X82550Y101106D03*
D23*
X97507Y88900D02*
X109653Y88900D01*
X113538Y92785D01*
X85301Y101106D02*
X82550Y101106D01*
X85301Y101106D02*
X97507Y88900D01*
X109220Y106680D02*
X110265Y106680D01*
X113538Y103407D01*
X113538Y92785D01*
X109220Y106680D02*
X88900Y127000D01*
D21*
X139700Y228600D03*
D22*
X137400Y228600D01*
X175650Y222400D02*
X175650Y234950D01*
X175650Y222400D02*
X177800Y220250D01*
X177800Y215464D01*
D21*
X177800Y215464D03*
D22*
X131200Y222400D02*
X120110Y222400D01*
X118110Y224400D01*
X137400Y228600D02*
X139700Y228600D01*
X137400Y228600D02*
X131200Y222400D01*
X49530Y172720D02*
X44450Y177800D01*
D21*
X44450Y177800D03*
X110386Y169164D03*
D22*
X213405Y127423D02*
X213405Y123425D01*
X66164Y96136D02*
X63800Y98500D01*
X66164Y96136D02*
X66164Y92553D01*
X198080Y142748D02*
X213405Y127423D01*
X198080Y142748D02*
X170147Y142748D01*
X145509Y167386D01*
X112164Y167386D01*
X110386Y169164D01*
D21*
X107950Y190500D03*
X57600Y188780D03*
D22*
X213405Y127423D02*
X213405Y123425D01*
X212736Y80953D02*
X207983Y76200D01*
X212736Y122756D02*
X213405Y123425D01*
X212736Y122756D02*
X212736Y80953D01*
X207983Y76200D02*
X82517Y76200D01*
X66164Y92553D01*
D21*
X56913Y171688D03*
D22*
X53164Y157864D02*
X50800Y155500D01*
X56913Y169173D02*
X56913Y171688D01*
X53164Y165425D02*
X53164Y157864D01*
X53164Y165425D02*
X56913Y169173D01*
X106230Y188780D02*
X107950Y190500D01*
X68925Y188780D02*
X57600Y188780D01*
X68925Y188780D02*
X69121Y188976D01*
X73119Y188976D01*
X73315Y188780D01*
X106230Y188780D01*
X57300Y165250D02*
X57300Y155500D01*
X57300Y165250D02*
X63500Y171450D01*
X88900Y171450D01*
D21*
X88900Y171450D03*
X88646Y137651D03*
D22*
X84495Y133500D01*
X79300Y133500D01*
D21*
X208651Y157851D03*
D23*
X222250Y171450D02*
X222250Y222250D01*
D21*
X222250Y222250D03*
D23*
X209550Y158750D02*
X208651Y157851D01*
D21*
X156210Y101600D03*
X149860Y101600D03*
X143510Y101600D03*
X137160Y101600D03*
D23*
X209550Y158750D02*
X222250Y171450D01*
X149860Y101600D02*
X149860Y91310D01*
X147450Y88900D01*
X156210Y97660D02*
X156210Y101600D01*
X156210Y97660D02*
X147450Y88900D01*
X143510Y92840D02*
X143510Y101600D01*
X143510Y92840D02*
X147450Y88900D01*
X137160Y99190D02*
X137160Y101600D01*
X137160Y99190D02*
X147450Y88900D01*
X196850Y156600D02*
X198101Y157851D01*
X208651Y157851D01*
D21*
X208579Y125424D03*
D22*
X194303Y139700D01*
D21*
X101854Y165100D03*
D22*
X107625Y165100D01*
X108387Y164338D01*
X144246Y164338D02*
X168884Y139700D01*
X194303Y139700D01*
X144246Y164338D02*
X108387Y164338D01*
D21*
X88900Y82423D03*
X166514Y94996D03*
D22*
X163397Y79614D02*
X131503Y79614D01*
X163397Y79614D02*
X164736Y80953D01*
X164736Y93218D01*
X166514Y94996D01*
X128695Y82423D02*
X88900Y82423D01*
X128695Y82423D02*
X131503Y79614D01*
D21*
X127000Y38100D03*
D22*
X137550Y38100D01*
X177800Y173600D02*
X173600Y177800D01*
X165100Y177800D01*
D21*
X165100Y177800D03*
X25400Y12700D03*
D22*
X36367Y12700D01*
X42463Y6604D01*
X155400Y6604D02*
X184150Y35354D01*
X184150Y44450D01*
X230124Y231387D02*
X215385Y246126D01*
X203200Y246126D01*
D21*
X88900Y241300D03*
D22*
X42463Y6604D02*
X155400Y6604D01*
X212057Y67343D02*
X230124Y85409D01*
X184150Y50800D02*
X184150Y44450D01*
X184150Y50800D02*
X196850Y63500D01*
X208215Y63500D01*
X212057Y67343D01*
X230124Y85409D02*
X230124Y231387D01*
D21*
X203200Y246126D03*
D22*
X93726Y246126D01*
X88900Y241300D01*
D21*
X209550Y222250D03*
D22*
X203200Y215900D01*
X192650Y215900D01*
D21*
X43821Y12071D03*
D22*
X66931Y12071D01*
X69349Y9652D01*
X154138Y9652D02*
X180848Y36362D01*
D21*
X101600Y234950D03*
D22*
X69349Y9652D02*
X154138Y9652D01*
X180848Y36362D02*
X180848Y54102D01*
X193548Y66802D01*
X207206Y66802D01*
X227076Y230124D02*
X222250Y234950D01*
X227076Y86672D02*
X207206Y66802D01*
X227076Y86672D02*
X227076Y230124D01*
X161917Y234950D02*
X101600Y234950D01*
X161917Y234950D02*
X169203Y242236D01*
X204136Y234950D02*
X222250Y234950D01*
X200436Y240897D02*
X199097Y242236D01*
X200436Y240897D02*
X200436Y238650D01*
X204136Y234950D01*
X199097Y242236D02*
X169203Y242236D01*
X192650Y223464D02*
X192650Y222400D01*
X200436Y231250D02*
X204136Y234950D01*
X200436Y231250D02*
X200436Y229003D01*
X199097Y227664D01*
X196850Y227664D01*
X192650Y223464D01*
D21*
X70104Y225086D03*
X107950Y228600D03*
D22*
X73618Y228600D01*
X70104Y225086D01*
D21*
X10980Y188780D03*
D22*
X15494Y193294D01*
X43744Y193294D01*
X129843Y209400D02*
X131200Y209400D01*
X129843Y209400D02*
X124057Y215186D01*
X65636Y215186D01*
X43744Y193294D01*
X148200Y222400D02*
X162650Y222400D01*
X175650Y209400D01*
D21*
X47755Y184014D03*
D22*
X52774Y189034D01*
X52774Y190779D01*
X54823Y192827D01*
X142414Y218847D02*
X143753Y220186D01*
X145986Y220186D01*
X148200Y222400D01*
X142414Y218847D02*
X142414Y205914D01*
X138876Y202376D02*
X127791Y202376D01*
X58592Y196596D02*
X54823Y192827D01*
X58592Y196596D02*
X122012Y196596D01*
X127791Y202376D01*
X138876Y202376D02*
X142414Y205914D01*
M02*
