M48
;GenerationSoftware,Autodesk,EAGLE,9.1.1*%
;CreationDate,2018-10-01T15:01:31Z*%
FMAT,2
ICI,OFF
METRIC,TZ,000.000
T4C0.254
T3C0.350
T2C1.016
T1C2.800
%
G90
M71
T1
X22225Y3175
X3175Y22225
T2
X7620Y2667
X2540Y2667
X5080Y2413
T3
X8255Y10111
T4
X1270Y13970
X1270Y13310
X1270Y11989
X13716Y15621
X13716Y14986
X13716Y14351
X13716Y13716
X14351Y13716
X14351Y14351
X14351Y14986
X14351Y15621
X10922Y15621
X10922Y14986
X10922Y14351
X10922Y13716
X10160Y3937
X20574Y10160
X19939Y10160
X19304Y10160
X18669Y10160
X18034Y10160
X17399Y10160
X16764Y10160
X11811Y19177
X12446Y19177
X5080Y12700
X24765Y12319
X24130Y12319
X23495Y12319
X23495Y12954
X24130Y12954
X24765Y12954
X9398Y10033
X11049Y11430
X6223Y4953
X20574Y10795
X20574Y11430
X19939Y10795
X19939Y11430
X19304Y10795
X13716Y13081
X14351Y13081
X14986Y13081
X14986Y13716
X14986Y14351
X14986Y14986
X15621Y14351
X15621Y13716
X3048Y4953
X635Y15875
X16129Y20320
X18669Y20320
X6985Y20701
X9652Y20320
X7112Y18415
X7747Y22098
X17526Y19177
X18161Y19177
X18796Y19177
X23876Y19177
X24511Y19177
X10795Y3175
X10734Y9449
X15875Y2540
X9525Y4445
X10795Y10109
X12065Y5080
X17145Y5080
X635Y3810
X9525Y13970
X9525Y17780
X13360Y19755
X17145Y19755
X13970Y19755
X13970Y1905
X6350Y8255
X6426Y1905
X13970Y22860
X17780Y21546
X4445Y17780
X11039Y16916
X10795Y19050
X5760Y18878
X5691Y17169
X15240Y19050
X8865Y13765
X20865Y15785
X22225Y22225
X15621Y10160
X14986Y10160
X14351Y10160
X13716Y10160
X20858Y12542
X10185Y16510
X8890Y8242
X16651Y9500
X12700Y3810
X16510Y17780
X8890Y17145
X8890Y24130
X20320Y24613
X20955Y22225
X4382Y1207
X10160Y23495
X7010Y22509
X10795Y22860
X1098Y18878
X4775Y18401
X15875Y21590
X1172Y12649
X3810Y16510
X1270Y14630
X2540Y1270
M30