G04 EAGLE Gerber X2 export*
%TF.Part,Single*%
%TF.FileFunction,Profile,NP*%
%TF.FilePolarity,Positive*%
%TF.GenerationSoftware,Autodesk,EAGLE,9.1.1*%
%TF.CreationDate,2018-10-01T15:01:31Z*%
G75*
%MOMM*%
%FSLAX34Y34*%
%LPD*%
%AMOC8*
5,1,8,0,0,1.08239X$1,22.5*%
G01*
%ADD10C,0.254000*%


D10*
X0Y31750D02*
X121Y28983D01*
X482Y26237D01*
X1082Y23533D01*
X1915Y20891D01*
X2975Y18332D01*
X4254Y15875D01*
X5742Y13539D01*
X7428Y11342D01*
X9299Y9299D01*
X11342Y7428D01*
X13539Y5742D01*
X15875Y4254D01*
X18332Y2975D01*
X20891Y1915D01*
X23533Y1082D01*
X26237Y482D01*
X28983Y121D01*
X31750Y0D01*
X222250Y0D01*
X225017Y121D01*
X227763Y482D01*
X230468Y1082D01*
X233109Y1915D01*
X235668Y2975D01*
X238125Y4254D01*
X240461Y5742D01*
X242659Y7428D01*
X244701Y9299D01*
X246572Y11342D01*
X248258Y13539D01*
X249746Y15875D01*
X251025Y18332D01*
X252085Y20891D01*
X252918Y23533D01*
X253518Y26237D01*
X253879Y28983D01*
X254000Y31750D01*
X254000Y222250D01*
X253879Y225017D01*
X253518Y227763D01*
X252918Y230468D01*
X252085Y233109D01*
X251025Y235668D01*
X249746Y238125D01*
X248258Y240461D01*
X246572Y242659D01*
X244701Y244701D01*
X242659Y246572D01*
X240461Y248258D01*
X238125Y249746D01*
X235668Y251025D01*
X233109Y252085D01*
X230468Y252918D01*
X227763Y253518D01*
X225017Y253879D01*
X222250Y254000D01*
X31750Y254000D01*
X28983Y253879D01*
X26237Y253518D01*
X23533Y252918D01*
X20891Y252085D01*
X18332Y251025D01*
X15875Y249746D01*
X13539Y248258D01*
X11342Y246572D01*
X9299Y244701D01*
X7428Y242659D01*
X5742Y240461D01*
X4254Y238125D01*
X2975Y235668D01*
X1915Y233109D01*
X1082Y230468D01*
X482Y227763D01*
X121Y225017D01*
X0Y222250D01*
X0Y31750D01*
M02*
