G04 EAGLE Gerber X2 export*
%TF.Part,Single*%
%TF.FileFunction,Legend,Bot,1*%
%TF.FilePolarity,Positive*%
%TF.GenerationSoftware,Autodesk,EAGLE,9.1.1*%
%TF.CreationDate,2018-10-01T15:01:31Z*%
G75*
%MOMM*%
%FSLAX34Y34*%
%LPD*%
%AMOC8*
5,1,8,0,0,1.08239X$1,22.5*%
G01*
%ADD10C,0.127000*%
%ADD11C,0.076200*%
%ADD12C,0.203200*%
%ADD13C,0.152400*%
%ADD14C,0.101600*%


D10*
X20800Y151000D02*
X20800Y157000D01*
X26800Y157000D01*
X20800Y103000D02*
X20800Y97000D01*
X26800Y97000D01*
X74800Y157000D02*
X80800Y157000D01*
X80800Y151000D01*
X80800Y103000D02*
X80800Y97000D01*
X74800Y97000D01*
X21590Y162560D02*
X21592Y162660D01*
X21598Y162761D01*
X21608Y162860D01*
X21622Y162960D01*
X21639Y163059D01*
X21661Y163157D01*
X21687Y163254D01*
X21716Y163350D01*
X21749Y163444D01*
X21786Y163538D01*
X21826Y163630D01*
X21870Y163720D01*
X21918Y163808D01*
X21969Y163895D01*
X22023Y163979D01*
X22081Y164061D01*
X22142Y164141D01*
X22206Y164218D01*
X22273Y164293D01*
X22343Y164365D01*
X22416Y164434D01*
X22491Y164500D01*
X22569Y164564D01*
X22649Y164624D01*
X22732Y164681D01*
X22817Y164734D01*
X22904Y164784D01*
X22993Y164831D01*
X23083Y164874D01*
X23175Y164914D01*
X23269Y164950D01*
X23364Y164982D01*
X23460Y165010D01*
X23558Y165035D01*
X23656Y165055D01*
X23755Y165072D01*
X23855Y165085D01*
X23954Y165094D01*
X24055Y165099D01*
X24155Y165100D01*
X24255Y165097D01*
X24356Y165090D01*
X24455Y165079D01*
X24555Y165064D01*
X24653Y165046D01*
X24751Y165023D01*
X24848Y164996D01*
X24943Y164966D01*
X25038Y164932D01*
X25131Y164894D01*
X25222Y164853D01*
X25312Y164808D01*
X25400Y164760D01*
X25486Y164708D01*
X25570Y164653D01*
X25651Y164594D01*
X25730Y164532D01*
X25807Y164468D01*
X25881Y164400D01*
X25952Y164329D01*
X26021Y164256D01*
X26086Y164180D01*
X26149Y164101D01*
X26208Y164020D01*
X26264Y163937D01*
X26317Y163852D01*
X26366Y163764D01*
X26412Y163675D01*
X26454Y163584D01*
X26493Y163491D01*
X26528Y163397D01*
X26559Y163302D01*
X26587Y163205D01*
X26610Y163108D01*
X26630Y163009D01*
X26646Y162910D01*
X26658Y162811D01*
X26666Y162710D01*
X26670Y162610D01*
X26670Y162510D01*
X26666Y162410D01*
X26658Y162309D01*
X26646Y162210D01*
X26630Y162111D01*
X26610Y162012D01*
X26587Y161915D01*
X26559Y161818D01*
X26528Y161723D01*
X26493Y161629D01*
X26454Y161536D01*
X26412Y161445D01*
X26366Y161356D01*
X26317Y161268D01*
X26264Y161183D01*
X26208Y161100D01*
X26149Y161019D01*
X26086Y160940D01*
X26021Y160864D01*
X25952Y160791D01*
X25881Y160720D01*
X25807Y160652D01*
X25730Y160588D01*
X25651Y160526D01*
X25570Y160467D01*
X25486Y160412D01*
X25400Y160360D01*
X25312Y160312D01*
X25222Y160267D01*
X25131Y160226D01*
X25038Y160188D01*
X24943Y160154D01*
X24848Y160124D01*
X24751Y160097D01*
X24653Y160074D01*
X24555Y160056D01*
X24455Y160041D01*
X24356Y160030D01*
X24255Y160023D01*
X24155Y160020D01*
X24055Y160021D01*
X23954Y160026D01*
X23855Y160035D01*
X23755Y160048D01*
X23656Y160065D01*
X23558Y160085D01*
X23460Y160110D01*
X23364Y160138D01*
X23269Y160170D01*
X23175Y160206D01*
X23083Y160246D01*
X22993Y160289D01*
X22904Y160336D01*
X22817Y160386D01*
X22732Y160439D01*
X22649Y160496D01*
X22569Y160556D01*
X22491Y160620D01*
X22416Y160686D01*
X22343Y160755D01*
X22273Y160827D01*
X22206Y160902D01*
X22142Y160979D01*
X22081Y161059D01*
X22023Y161141D01*
X21969Y161225D01*
X21918Y161312D01*
X21870Y161400D01*
X21826Y161490D01*
X21786Y161582D01*
X21749Y161676D01*
X21716Y161770D01*
X21687Y161866D01*
X21661Y161963D01*
X21639Y162061D01*
X21622Y162160D01*
X21608Y162260D01*
X21598Y162359D01*
X21592Y162460D01*
X21590Y162560D01*
D11*
X101076Y130683D02*
X101076Y125363D01*
X101074Y125274D01*
X101068Y125185D01*
X101058Y125096D01*
X101045Y125008D01*
X101028Y124920D01*
X101006Y124833D01*
X100981Y124748D01*
X100953Y124663D01*
X100920Y124580D01*
X100884Y124498D01*
X100845Y124418D01*
X100802Y124340D01*
X100756Y124264D01*
X100706Y124189D01*
X100653Y124117D01*
X100597Y124048D01*
X100538Y123981D01*
X100477Y123916D01*
X100412Y123855D01*
X100345Y123796D01*
X100276Y123740D01*
X100204Y123687D01*
X100129Y123637D01*
X100053Y123591D01*
X99975Y123548D01*
X99895Y123509D01*
X99813Y123473D01*
X99730Y123440D01*
X99645Y123412D01*
X99560Y123387D01*
X99473Y123365D01*
X99385Y123348D01*
X99297Y123335D01*
X99208Y123325D01*
X99119Y123319D01*
X99030Y123317D01*
X98941Y123319D01*
X98852Y123325D01*
X98763Y123335D01*
X98675Y123348D01*
X98587Y123365D01*
X98500Y123387D01*
X98415Y123412D01*
X98330Y123440D01*
X98247Y123473D01*
X98165Y123509D01*
X98085Y123548D01*
X98007Y123591D01*
X97931Y123637D01*
X97856Y123687D01*
X97784Y123740D01*
X97715Y123796D01*
X97648Y123855D01*
X97583Y123916D01*
X97522Y123981D01*
X97463Y124048D01*
X97407Y124117D01*
X97354Y124189D01*
X97304Y124264D01*
X97258Y124340D01*
X97215Y124418D01*
X97176Y124498D01*
X97140Y124580D01*
X97107Y124663D01*
X97079Y124748D01*
X97054Y124833D01*
X97032Y124920D01*
X97015Y125008D01*
X97002Y125096D01*
X96992Y125185D01*
X96986Y125274D01*
X96984Y125363D01*
X96983Y125363D02*
X96983Y130683D01*
X91266Y130684D02*
X91181Y130682D01*
X91096Y130676D01*
X91012Y130666D01*
X90928Y130653D01*
X90844Y130635D01*
X90762Y130614D01*
X90681Y130589D01*
X90601Y130560D01*
X90522Y130527D01*
X90445Y130491D01*
X90370Y130451D01*
X90296Y130408D01*
X90225Y130362D01*
X90156Y130312D01*
X90089Y130259D01*
X90025Y130203D01*
X89964Y130144D01*
X89905Y130083D01*
X89849Y130019D01*
X89796Y129952D01*
X89746Y129883D01*
X89700Y129812D01*
X89657Y129738D01*
X89617Y129663D01*
X89581Y129586D01*
X89548Y129507D01*
X89519Y129427D01*
X89494Y129346D01*
X89473Y129264D01*
X89455Y129180D01*
X89442Y129096D01*
X89432Y129012D01*
X89426Y128927D01*
X89424Y128842D01*
X91266Y130683D02*
X91362Y130681D01*
X91458Y130675D01*
X91553Y130665D01*
X91648Y130652D01*
X91743Y130634D01*
X91836Y130613D01*
X91929Y130588D01*
X92020Y130559D01*
X92111Y130527D01*
X92200Y130491D01*
X92287Y130451D01*
X92373Y130408D01*
X92457Y130362D01*
X92539Y130312D01*
X92619Y130258D01*
X92696Y130202D01*
X92771Y130142D01*
X92844Y130080D01*
X92914Y130014D01*
X92982Y129946D01*
X93047Y129875D01*
X93108Y129802D01*
X93167Y129726D01*
X93223Y129647D01*
X93275Y129567D01*
X93324Y129484D01*
X93370Y129400D01*
X93412Y129314D01*
X93450Y129226D01*
X93485Y129137D01*
X93517Y129046D01*
X90038Y127410D02*
X89978Y127469D01*
X89921Y127531D01*
X89866Y127595D01*
X89815Y127662D01*
X89766Y127731D01*
X89720Y127801D01*
X89677Y127874D01*
X89637Y127948D01*
X89601Y128024D01*
X89568Y128102D01*
X89538Y128181D01*
X89511Y128261D01*
X89488Y128342D01*
X89469Y128424D01*
X89453Y128506D01*
X89440Y128590D01*
X89431Y128674D01*
X89426Y128758D01*
X89424Y128842D01*
X90038Y127409D02*
X93517Y123317D01*
X89424Y123317D01*
X55539Y174117D02*
X53902Y174117D01*
X55539Y174117D02*
X55617Y174119D01*
X55695Y174124D01*
X55772Y174134D01*
X55849Y174147D01*
X55925Y174163D01*
X56000Y174183D01*
X56074Y174207D01*
X56147Y174234D01*
X56219Y174265D01*
X56289Y174299D01*
X56358Y174336D01*
X56424Y174377D01*
X56489Y174421D01*
X56551Y174467D01*
X56611Y174517D01*
X56669Y174569D01*
X56724Y174624D01*
X56776Y174682D01*
X56826Y174742D01*
X56872Y174804D01*
X56916Y174869D01*
X56957Y174936D01*
X56994Y175004D01*
X57028Y175074D01*
X57059Y175146D01*
X57086Y175219D01*
X57110Y175293D01*
X57130Y175368D01*
X57146Y175444D01*
X57159Y175521D01*
X57169Y175598D01*
X57174Y175676D01*
X57176Y175754D01*
X57176Y179846D01*
X57174Y179924D01*
X57169Y180002D01*
X57159Y180079D01*
X57146Y180156D01*
X57130Y180232D01*
X57110Y180307D01*
X57086Y180381D01*
X57059Y180454D01*
X57028Y180526D01*
X56994Y180596D01*
X56957Y180665D01*
X56916Y180731D01*
X56872Y180796D01*
X56826Y180858D01*
X56776Y180918D01*
X56724Y180976D01*
X56669Y181031D01*
X56611Y181083D01*
X56551Y181133D01*
X56489Y181179D01*
X56424Y181223D01*
X56358Y181264D01*
X56289Y181301D01*
X56219Y181335D01*
X56147Y181366D01*
X56074Y181393D01*
X56000Y181417D01*
X55925Y181437D01*
X55849Y181453D01*
X55772Y181466D01*
X55695Y181476D01*
X55617Y181481D01*
X55539Y181483D01*
X53902Y181483D01*
X51057Y179846D02*
X49010Y181483D01*
X49010Y174117D01*
X46964Y174117D02*
X51057Y174117D01*
X47117Y42618D02*
X47117Y40981D01*
X47119Y40903D01*
X47124Y40825D01*
X47134Y40748D01*
X47147Y40671D01*
X47163Y40595D01*
X47183Y40520D01*
X47207Y40446D01*
X47234Y40373D01*
X47265Y40301D01*
X47299Y40231D01*
X47336Y40163D01*
X47377Y40096D01*
X47421Y40031D01*
X47467Y39969D01*
X47517Y39909D01*
X47569Y39851D01*
X47624Y39796D01*
X47682Y39744D01*
X47742Y39694D01*
X47804Y39648D01*
X47869Y39604D01*
X47936Y39563D01*
X48004Y39526D01*
X48074Y39492D01*
X48146Y39461D01*
X48219Y39434D01*
X48293Y39410D01*
X48368Y39390D01*
X48444Y39374D01*
X48521Y39361D01*
X48598Y39351D01*
X48676Y39346D01*
X48754Y39344D01*
X52846Y39344D01*
X52924Y39346D01*
X53002Y39351D01*
X53079Y39361D01*
X53156Y39374D01*
X53232Y39390D01*
X53307Y39410D01*
X53381Y39434D01*
X53454Y39461D01*
X53526Y39492D01*
X53596Y39526D01*
X53665Y39563D01*
X53731Y39604D01*
X53796Y39648D01*
X53858Y39694D01*
X53918Y39744D01*
X53976Y39796D01*
X54031Y39851D01*
X54083Y39909D01*
X54133Y39969D01*
X54179Y40031D01*
X54223Y40096D01*
X54264Y40163D01*
X54301Y40231D01*
X54335Y40301D01*
X54366Y40373D01*
X54393Y40446D01*
X54417Y40520D01*
X54437Y40595D01*
X54453Y40671D01*
X54466Y40748D01*
X54476Y40825D01*
X54481Y40903D01*
X54483Y40981D01*
X54483Y42618D01*
X49163Y45464D02*
X49252Y45466D01*
X49341Y45472D01*
X49430Y45482D01*
X49518Y45495D01*
X49606Y45512D01*
X49693Y45534D01*
X49778Y45559D01*
X49863Y45587D01*
X49946Y45620D01*
X50028Y45656D01*
X50108Y45695D01*
X50186Y45738D01*
X50262Y45784D01*
X50337Y45834D01*
X50409Y45887D01*
X50478Y45943D01*
X50545Y46002D01*
X50610Y46063D01*
X50671Y46128D01*
X50730Y46195D01*
X50786Y46264D01*
X50839Y46336D01*
X50889Y46411D01*
X50935Y46487D01*
X50978Y46565D01*
X51017Y46645D01*
X51053Y46727D01*
X51086Y46810D01*
X51114Y46895D01*
X51139Y46980D01*
X51161Y47067D01*
X51178Y47155D01*
X51191Y47243D01*
X51201Y47332D01*
X51207Y47421D01*
X51209Y47510D01*
X51207Y47599D01*
X51201Y47688D01*
X51191Y47777D01*
X51178Y47865D01*
X51161Y47953D01*
X51139Y48040D01*
X51114Y48125D01*
X51086Y48210D01*
X51053Y48293D01*
X51017Y48375D01*
X50978Y48455D01*
X50935Y48533D01*
X50889Y48609D01*
X50839Y48684D01*
X50786Y48756D01*
X50730Y48825D01*
X50671Y48892D01*
X50610Y48957D01*
X50545Y49018D01*
X50478Y49077D01*
X50409Y49133D01*
X50337Y49186D01*
X50262Y49236D01*
X50186Y49282D01*
X50108Y49325D01*
X50028Y49364D01*
X49946Y49400D01*
X49863Y49433D01*
X49778Y49461D01*
X49693Y49486D01*
X49606Y49508D01*
X49518Y49525D01*
X49430Y49538D01*
X49341Y49548D01*
X49252Y49554D01*
X49163Y49556D01*
X49074Y49554D01*
X48985Y49548D01*
X48896Y49538D01*
X48808Y49525D01*
X48720Y49508D01*
X48633Y49486D01*
X48548Y49461D01*
X48463Y49433D01*
X48380Y49400D01*
X48298Y49364D01*
X48218Y49325D01*
X48140Y49282D01*
X48064Y49236D01*
X47989Y49186D01*
X47917Y49133D01*
X47848Y49077D01*
X47781Y49018D01*
X47716Y48957D01*
X47655Y48892D01*
X47596Y48825D01*
X47540Y48756D01*
X47487Y48684D01*
X47437Y48609D01*
X47391Y48533D01*
X47348Y48455D01*
X47309Y48375D01*
X47273Y48293D01*
X47240Y48210D01*
X47212Y48125D01*
X47187Y48040D01*
X47165Y47953D01*
X47148Y47865D01*
X47135Y47777D01*
X47125Y47688D01*
X47119Y47599D01*
X47117Y47510D01*
X47119Y47421D01*
X47125Y47332D01*
X47135Y47243D01*
X47148Y47155D01*
X47165Y47067D01*
X47187Y46980D01*
X47212Y46895D01*
X47240Y46810D01*
X47273Y46727D01*
X47309Y46645D01*
X47348Y46565D01*
X47391Y46487D01*
X47437Y46411D01*
X47487Y46336D01*
X47540Y46264D01*
X47596Y46195D01*
X47655Y46128D01*
X47716Y46063D01*
X47781Y46002D01*
X47848Y45943D01*
X47917Y45887D01*
X47989Y45834D01*
X48064Y45784D01*
X48140Y45738D01*
X48218Y45695D01*
X48298Y45656D01*
X48380Y45620D01*
X48463Y45587D01*
X48548Y45559D01*
X48633Y45534D01*
X48720Y45512D01*
X48808Y45495D01*
X48896Y45482D01*
X48985Y45472D01*
X49074Y45466D01*
X49163Y45464D01*
X52846Y45873D02*
X52925Y45875D01*
X53004Y45881D01*
X53083Y45890D01*
X53161Y45903D01*
X53238Y45921D01*
X53314Y45941D01*
X53389Y45966D01*
X53463Y45994D01*
X53536Y46025D01*
X53607Y46061D01*
X53676Y46099D01*
X53743Y46141D01*
X53808Y46186D01*
X53871Y46234D01*
X53932Y46285D01*
X53989Y46339D01*
X54045Y46395D01*
X54097Y46454D01*
X54147Y46516D01*
X54193Y46580D01*
X54237Y46646D01*
X54277Y46714D01*
X54313Y46784D01*
X54347Y46856D01*
X54377Y46930D01*
X54403Y47004D01*
X54426Y47080D01*
X54444Y47157D01*
X54460Y47234D01*
X54471Y47313D01*
X54479Y47391D01*
X54483Y47470D01*
X54483Y47550D01*
X54479Y47629D01*
X54471Y47707D01*
X54460Y47786D01*
X54444Y47863D01*
X54426Y47940D01*
X54403Y48016D01*
X54377Y48090D01*
X54347Y48164D01*
X54313Y48236D01*
X54277Y48306D01*
X54237Y48374D01*
X54193Y48440D01*
X54147Y48504D01*
X54097Y48566D01*
X54045Y48625D01*
X53989Y48681D01*
X53932Y48735D01*
X53871Y48786D01*
X53808Y48834D01*
X53743Y48879D01*
X53676Y48921D01*
X53607Y48959D01*
X53536Y48995D01*
X53463Y49026D01*
X53389Y49054D01*
X53314Y49079D01*
X53238Y49099D01*
X53161Y49117D01*
X53083Y49130D01*
X53004Y49139D01*
X52925Y49145D01*
X52846Y49147D01*
X52767Y49145D01*
X52688Y49139D01*
X52609Y49130D01*
X52531Y49117D01*
X52454Y49099D01*
X52378Y49079D01*
X52303Y49054D01*
X52229Y49026D01*
X52156Y48995D01*
X52085Y48959D01*
X52016Y48921D01*
X51949Y48879D01*
X51884Y48834D01*
X51821Y48786D01*
X51760Y48735D01*
X51703Y48681D01*
X51647Y48625D01*
X51595Y48566D01*
X51545Y48504D01*
X51499Y48440D01*
X51455Y48374D01*
X51415Y48306D01*
X51379Y48236D01*
X51345Y48164D01*
X51315Y48090D01*
X51289Y48016D01*
X51266Y47940D01*
X51248Y47863D01*
X51232Y47786D01*
X51221Y47707D01*
X51213Y47629D01*
X51209Y47550D01*
X51209Y47470D01*
X51213Y47391D01*
X51221Y47313D01*
X51232Y47234D01*
X51248Y47157D01*
X51266Y47080D01*
X51289Y47004D01*
X51315Y46930D01*
X51345Y46856D01*
X51379Y46784D01*
X51415Y46714D01*
X51455Y46646D01*
X51499Y46580D01*
X51545Y46516D01*
X51595Y46454D01*
X51647Y46395D01*
X51703Y46339D01*
X51760Y46285D01*
X51821Y46234D01*
X51884Y46186D01*
X51949Y46141D01*
X52016Y46099D01*
X52085Y46061D01*
X52156Y46025D01*
X52229Y45994D01*
X52303Y45966D01*
X52378Y45941D01*
X52454Y45921D01*
X52531Y45903D01*
X52609Y45890D01*
X52688Y45881D01*
X52767Y45875D01*
X52846Y45873D01*
X247269Y167767D02*
X247269Y175133D01*
X244814Y171041D01*
X242358Y175133D01*
X242358Y167767D01*
X238813Y169813D02*
X238813Y173087D01*
X238811Y173176D01*
X238805Y173265D01*
X238795Y173354D01*
X238782Y173442D01*
X238765Y173530D01*
X238743Y173617D01*
X238718Y173702D01*
X238690Y173787D01*
X238657Y173870D01*
X238621Y173952D01*
X238582Y174032D01*
X238539Y174110D01*
X238493Y174186D01*
X238443Y174261D01*
X238390Y174333D01*
X238334Y174402D01*
X238275Y174469D01*
X238214Y174534D01*
X238149Y174595D01*
X238082Y174654D01*
X238013Y174710D01*
X237941Y174763D01*
X237866Y174813D01*
X237790Y174859D01*
X237712Y174902D01*
X237632Y174941D01*
X237550Y174977D01*
X237467Y175010D01*
X237382Y175038D01*
X237297Y175063D01*
X237210Y175085D01*
X237122Y175102D01*
X237034Y175115D01*
X236945Y175125D01*
X236856Y175131D01*
X236767Y175133D01*
X236678Y175131D01*
X236589Y175125D01*
X236500Y175115D01*
X236412Y175102D01*
X236324Y175085D01*
X236237Y175063D01*
X236152Y175038D01*
X236067Y175010D01*
X235984Y174977D01*
X235902Y174941D01*
X235822Y174902D01*
X235744Y174859D01*
X235668Y174813D01*
X235593Y174763D01*
X235521Y174710D01*
X235452Y174654D01*
X235385Y174595D01*
X235320Y174534D01*
X235259Y174469D01*
X235200Y174402D01*
X235144Y174333D01*
X235091Y174261D01*
X235041Y174186D01*
X234995Y174110D01*
X234952Y174032D01*
X234913Y173952D01*
X234877Y173870D01*
X234844Y173787D01*
X234816Y173702D01*
X234791Y173617D01*
X234769Y173530D01*
X234752Y173442D01*
X234739Y173354D01*
X234729Y173265D01*
X234723Y173176D01*
X234721Y173087D01*
X234721Y169813D01*
X234723Y169724D01*
X234729Y169635D01*
X234739Y169546D01*
X234752Y169458D01*
X234769Y169370D01*
X234791Y169283D01*
X234816Y169198D01*
X234844Y169113D01*
X234877Y169030D01*
X234913Y168948D01*
X234952Y168868D01*
X234995Y168790D01*
X235041Y168714D01*
X235091Y168639D01*
X235144Y168567D01*
X235200Y168498D01*
X235259Y168431D01*
X235320Y168366D01*
X235385Y168305D01*
X235452Y168246D01*
X235521Y168190D01*
X235593Y168137D01*
X235668Y168087D01*
X235744Y168041D01*
X235822Y167998D01*
X235902Y167959D01*
X235984Y167923D01*
X236067Y167890D01*
X236152Y167862D01*
X236237Y167837D01*
X236324Y167815D01*
X236412Y167798D01*
X236500Y167785D01*
X236589Y167775D01*
X236678Y167769D01*
X236767Y167767D01*
X236856Y167769D01*
X236945Y167775D01*
X237034Y167785D01*
X237122Y167798D01*
X237210Y167815D01*
X237297Y167837D01*
X237382Y167862D01*
X237467Y167890D01*
X237550Y167923D01*
X237632Y167959D01*
X237712Y167998D01*
X237790Y168041D01*
X237866Y168087D01*
X237941Y168137D01*
X238013Y168190D01*
X238082Y168246D01*
X238149Y168305D01*
X238214Y168366D01*
X238275Y168431D01*
X238334Y168498D01*
X238390Y168567D01*
X238443Y168639D01*
X238493Y168714D01*
X238539Y168790D01*
X238582Y168868D01*
X238621Y168948D01*
X238657Y169030D01*
X238690Y169113D01*
X238718Y169198D01*
X238743Y169283D01*
X238765Y169370D01*
X238782Y169458D01*
X238795Y169546D01*
X238805Y169635D01*
X238811Y169724D01*
X238813Y169813D01*
X229939Y167767D02*
X229939Y175133D01*
X227893Y175133D02*
X231986Y175133D01*
X225158Y173496D02*
X223112Y175133D01*
X223112Y167767D01*
X225158Y167767D02*
X221066Y167767D01*
X247269Y86233D02*
X247269Y78867D01*
X244814Y82141D02*
X247269Y86233D01*
X244814Y82141D02*
X242358Y86233D01*
X242358Y78867D01*
X238813Y80913D02*
X238813Y84187D01*
X238811Y84276D01*
X238805Y84365D01*
X238795Y84454D01*
X238782Y84542D01*
X238765Y84630D01*
X238743Y84717D01*
X238718Y84802D01*
X238690Y84887D01*
X238657Y84970D01*
X238621Y85052D01*
X238582Y85132D01*
X238539Y85210D01*
X238493Y85286D01*
X238443Y85361D01*
X238390Y85433D01*
X238334Y85502D01*
X238275Y85569D01*
X238214Y85634D01*
X238149Y85695D01*
X238082Y85754D01*
X238013Y85810D01*
X237941Y85863D01*
X237866Y85913D01*
X237790Y85959D01*
X237712Y86002D01*
X237632Y86041D01*
X237550Y86077D01*
X237467Y86110D01*
X237382Y86138D01*
X237297Y86163D01*
X237210Y86185D01*
X237122Y86202D01*
X237034Y86215D01*
X236945Y86225D01*
X236856Y86231D01*
X236767Y86233D01*
X236678Y86231D01*
X236589Y86225D01*
X236500Y86215D01*
X236412Y86202D01*
X236324Y86185D01*
X236237Y86163D01*
X236152Y86138D01*
X236067Y86110D01*
X235984Y86077D01*
X235902Y86041D01*
X235822Y86002D01*
X235744Y85959D01*
X235668Y85913D01*
X235593Y85863D01*
X235521Y85810D01*
X235452Y85754D01*
X235385Y85695D01*
X235320Y85634D01*
X235259Y85569D01*
X235200Y85502D01*
X235144Y85433D01*
X235091Y85361D01*
X235041Y85286D01*
X234995Y85210D01*
X234952Y85132D01*
X234913Y85052D01*
X234877Y84970D01*
X234844Y84887D01*
X234816Y84802D01*
X234791Y84717D01*
X234769Y84630D01*
X234752Y84542D01*
X234739Y84454D01*
X234729Y84365D01*
X234723Y84276D01*
X234721Y84187D01*
X234721Y80913D01*
X234723Y80824D01*
X234729Y80735D01*
X234739Y80646D01*
X234752Y80558D01*
X234769Y80470D01*
X234791Y80383D01*
X234816Y80298D01*
X234844Y80213D01*
X234877Y80130D01*
X234913Y80048D01*
X234952Y79968D01*
X234995Y79890D01*
X235041Y79814D01*
X235091Y79739D01*
X235144Y79667D01*
X235200Y79598D01*
X235259Y79531D01*
X235320Y79466D01*
X235385Y79405D01*
X235452Y79346D01*
X235521Y79290D01*
X235593Y79237D01*
X235668Y79187D01*
X235744Y79141D01*
X235822Y79098D01*
X235902Y79059D01*
X235984Y79023D01*
X236067Y78990D01*
X236152Y78962D01*
X236237Y78937D01*
X236324Y78915D01*
X236412Y78898D01*
X236500Y78885D01*
X236589Y78875D01*
X236678Y78869D01*
X236767Y78867D01*
X236856Y78869D01*
X236945Y78875D01*
X237034Y78885D01*
X237122Y78898D01*
X237210Y78915D01*
X237297Y78937D01*
X237382Y78962D01*
X237467Y78990D01*
X237550Y79023D01*
X237632Y79059D01*
X237712Y79098D01*
X237790Y79141D01*
X237866Y79187D01*
X237941Y79237D01*
X238013Y79290D01*
X238082Y79346D01*
X238149Y79405D01*
X238214Y79466D01*
X238275Y79531D01*
X238334Y79598D01*
X238390Y79667D01*
X238443Y79739D01*
X238493Y79814D01*
X238539Y79890D01*
X238582Y79968D01*
X238621Y80048D01*
X238657Y80130D01*
X238690Y80213D01*
X238718Y80298D01*
X238743Y80383D01*
X238765Y80470D01*
X238782Y80558D01*
X238795Y80646D01*
X238805Y80735D01*
X238811Y80824D01*
X238813Y80913D01*
X229939Y78867D02*
X229939Y86233D01*
X227893Y86233D02*
X231986Y86233D01*
X222907Y86234D02*
X222822Y86232D01*
X222737Y86226D01*
X222653Y86216D01*
X222569Y86203D01*
X222485Y86185D01*
X222403Y86164D01*
X222322Y86139D01*
X222242Y86110D01*
X222163Y86077D01*
X222086Y86041D01*
X222011Y86001D01*
X221937Y85958D01*
X221866Y85912D01*
X221797Y85862D01*
X221730Y85809D01*
X221666Y85753D01*
X221605Y85694D01*
X221546Y85633D01*
X221490Y85569D01*
X221437Y85502D01*
X221387Y85433D01*
X221341Y85362D01*
X221298Y85288D01*
X221258Y85213D01*
X221222Y85136D01*
X221189Y85057D01*
X221160Y84977D01*
X221135Y84896D01*
X221114Y84814D01*
X221096Y84730D01*
X221083Y84646D01*
X221073Y84562D01*
X221067Y84477D01*
X221065Y84392D01*
X222907Y86233D02*
X223003Y86231D01*
X223099Y86225D01*
X223194Y86215D01*
X223289Y86202D01*
X223384Y86184D01*
X223477Y86163D01*
X223570Y86138D01*
X223661Y86109D01*
X223752Y86077D01*
X223841Y86041D01*
X223928Y86001D01*
X224014Y85958D01*
X224098Y85912D01*
X224180Y85862D01*
X224260Y85808D01*
X224337Y85752D01*
X224412Y85692D01*
X224485Y85630D01*
X224555Y85564D01*
X224623Y85496D01*
X224688Y85425D01*
X224749Y85352D01*
X224808Y85276D01*
X224864Y85197D01*
X224916Y85117D01*
X224965Y85034D01*
X225011Y84950D01*
X225053Y84864D01*
X225091Y84776D01*
X225126Y84687D01*
X225158Y84596D01*
X221680Y82960D02*
X221620Y83019D01*
X221563Y83081D01*
X221508Y83145D01*
X221457Y83212D01*
X221408Y83281D01*
X221362Y83351D01*
X221319Y83424D01*
X221279Y83498D01*
X221243Y83574D01*
X221210Y83652D01*
X221180Y83731D01*
X221153Y83811D01*
X221130Y83892D01*
X221111Y83974D01*
X221095Y84056D01*
X221082Y84140D01*
X221073Y84224D01*
X221068Y84308D01*
X221066Y84392D01*
X221680Y82959D02*
X225158Y78867D01*
X221066Y78867D01*
X244814Y142367D02*
X247269Y149733D01*
X242358Y149733D02*
X244814Y142367D01*
X237333Y142367D02*
X237255Y142369D01*
X237177Y142374D01*
X237100Y142384D01*
X237023Y142397D01*
X236947Y142413D01*
X236872Y142433D01*
X236798Y142457D01*
X236725Y142484D01*
X236653Y142515D01*
X236583Y142549D01*
X236515Y142586D01*
X236448Y142627D01*
X236383Y142671D01*
X236321Y142717D01*
X236261Y142767D01*
X236203Y142819D01*
X236148Y142874D01*
X236096Y142932D01*
X236046Y142992D01*
X236000Y143054D01*
X235956Y143119D01*
X235915Y143185D01*
X235878Y143254D01*
X235844Y143324D01*
X235813Y143396D01*
X235786Y143469D01*
X235762Y143543D01*
X235742Y143618D01*
X235726Y143694D01*
X235713Y143771D01*
X235703Y143848D01*
X235698Y143926D01*
X235696Y144004D01*
X237333Y142367D02*
X237447Y142369D01*
X237560Y142374D01*
X237674Y142384D01*
X237787Y142397D01*
X237899Y142414D01*
X238011Y142434D01*
X238122Y142458D01*
X238233Y142486D01*
X238342Y142517D01*
X238450Y142552D01*
X238557Y142591D01*
X238663Y142633D01*
X238767Y142678D01*
X238870Y142727D01*
X238971Y142780D01*
X239070Y142835D01*
X239168Y142894D01*
X239263Y142956D01*
X239356Y143021D01*
X239448Y143089D01*
X239536Y143160D01*
X239623Y143234D01*
X239707Y143311D01*
X239788Y143390D01*
X239584Y148096D02*
X239582Y148174D01*
X239577Y148252D01*
X239567Y148329D01*
X239554Y148406D01*
X239538Y148482D01*
X239518Y148557D01*
X239494Y148631D01*
X239467Y148704D01*
X239436Y148776D01*
X239402Y148846D01*
X239365Y148915D01*
X239324Y148981D01*
X239280Y149046D01*
X239234Y149108D01*
X239184Y149168D01*
X239132Y149226D01*
X239077Y149281D01*
X239019Y149333D01*
X238959Y149383D01*
X238897Y149429D01*
X238832Y149473D01*
X238766Y149514D01*
X238697Y149551D01*
X238627Y149585D01*
X238555Y149616D01*
X238482Y149643D01*
X238408Y149667D01*
X238333Y149687D01*
X238257Y149703D01*
X238180Y149716D01*
X238103Y149726D01*
X238025Y149731D01*
X237947Y149733D01*
X237837Y149731D01*
X237728Y149725D01*
X237618Y149715D01*
X237510Y149702D01*
X237401Y149684D01*
X237294Y149663D01*
X237187Y149637D01*
X237081Y149608D01*
X236976Y149576D01*
X236873Y149539D01*
X236771Y149499D01*
X236670Y149455D01*
X236571Y149407D01*
X236474Y149357D01*
X236379Y149302D01*
X236286Y149244D01*
X236195Y149183D01*
X236106Y149119D01*
X238765Y146663D02*
X238832Y146705D01*
X238897Y146749D01*
X238959Y146797D01*
X239019Y146847D01*
X239077Y146900D01*
X239132Y146956D01*
X239184Y147015D01*
X239234Y147075D01*
X239281Y147139D01*
X239324Y147204D01*
X239365Y147271D01*
X239402Y147340D01*
X239436Y147411D01*
X239467Y147483D01*
X239494Y147557D01*
X239518Y147631D01*
X239538Y147707D01*
X239554Y147784D01*
X239567Y147861D01*
X239577Y147939D01*
X239582Y148018D01*
X239584Y148096D01*
X236515Y145436D02*
X236449Y145395D01*
X236384Y145350D01*
X236322Y145303D01*
X236262Y145252D01*
X236204Y145199D01*
X236149Y145143D01*
X236096Y145085D01*
X236047Y145024D01*
X236000Y144961D01*
X235957Y144896D01*
X235916Y144829D01*
X235879Y144760D01*
X235845Y144689D01*
X235814Y144617D01*
X235787Y144543D01*
X235763Y144468D01*
X235743Y144393D01*
X235727Y144316D01*
X235714Y144239D01*
X235704Y144161D01*
X235699Y144082D01*
X235697Y144004D01*
X236515Y145436D02*
X238765Y146664D01*
X243177Y108359D02*
X244404Y108359D01*
X243177Y108359D02*
X243177Y104267D01*
X245632Y104267D01*
X245710Y104269D01*
X245788Y104274D01*
X245865Y104284D01*
X245942Y104297D01*
X246018Y104313D01*
X246093Y104333D01*
X246167Y104357D01*
X246240Y104384D01*
X246312Y104415D01*
X246382Y104449D01*
X246451Y104486D01*
X246517Y104527D01*
X246582Y104571D01*
X246644Y104617D01*
X246704Y104667D01*
X246762Y104719D01*
X246817Y104774D01*
X246869Y104832D01*
X246919Y104892D01*
X246965Y104954D01*
X247009Y105019D01*
X247050Y105086D01*
X247087Y105154D01*
X247121Y105224D01*
X247152Y105296D01*
X247179Y105369D01*
X247203Y105443D01*
X247223Y105518D01*
X247239Y105594D01*
X247252Y105671D01*
X247262Y105748D01*
X247267Y105826D01*
X247269Y105904D01*
X247269Y109996D01*
X247267Y110074D01*
X247262Y110152D01*
X247252Y110229D01*
X247239Y110306D01*
X247223Y110382D01*
X247203Y110457D01*
X247179Y110531D01*
X247152Y110604D01*
X247121Y110676D01*
X247087Y110746D01*
X247050Y110815D01*
X247009Y110881D01*
X246965Y110946D01*
X246919Y111008D01*
X246869Y111068D01*
X246817Y111126D01*
X246762Y111181D01*
X246704Y111233D01*
X246644Y111283D01*
X246582Y111329D01*
X246517Y111373D01*
X246451Y111414D01*
X246382Y111451D01*
X246312Y111485D01*
X246240Y111516D01*
X246167Y111543D01*
X246093Y111567D01*
X246018Y111587D01*
X245942Y111603D01*
X245865Y111616D01*
X245788Y111626D01*
X245710Y111631D01*
X245632Y111633D01*
X243177Y111633D01*
X239466Y111633D02*
X239466Y104267D01*
X235374Y104267D02*
X239466Y111633D01*
X235374Y111633D02*
X235374Y104267D01*
X231663Y104267D02*
X231663Y111633D01*
X229617Y111633D01*
X229528Y111631D01*
X229439Y111625D01*
X229350Y111615D01*
X229262Y111602D01*
X229174Y111585D01*
X229087Y111563D01*
X229002Y111538D01*
X228917Y111510D01*
X228834Y111477D01*
X228752Y111441D01*
X228672Y111402D01*
X228594Y111359D01*
X228518Y111313D01*
X228443Y111263D01*
X228371Y111210D01*
X228302Y111154D01*
X228235Y111095D01*
X228170Y111034D01*
X228109Y110969D01*
X228050Y110902D01*
X227994Y110833D01*
X227941Y110761D01*
X227891Y110686D01*
X227845Y110610D01*
X227802Y110532D01*
X227763Y110452D01*
X227727Y110370D01*
X227694Y110287D01*
X227666Y110202D01*
X227641Y110117D01*
X227619Y110030D01*
X227602Y109942D01*
X227589Y109854D01*
X227579Y109765D01*
X227573Y109676D01*
X227571Y109587D01*
X227571Y106313D01*
X227573Y106224D01*
X227579Y106135D01*
X227589Y106046D01*
X227602Y105958D01*
X227619Y105870D01*
X227641Y105783D01*
X227666Y105698D01*
X227694Y105613D01*
X227727Y105530D01*
X227763Y105448D01*
X227802Y105368D01*
X227845Y105290D01*
X227891Y105214D01*
X227941Y105139D01*
X227994Y105067D01*
X228050Y104998D01*
X228109Y104931D01*
X228170Y104866D01*
X228235Y104805D01*
X228302Y104746D01*
X228371Y104690D01*
X228443Y104637D01*
X228518Y104587D01*
X228594Y104541D01*
X228672Y104498D01*
X228752Y104459D01*
X228834Y104423D01*
X228917Y104390D01*
X229002Y104362D01*
X229087Y104337D01*
X229174Y104315D01*
X229262Y104298D01*
X229350Y104285D01*
X229439Y104275D01*
X229528Y104269D01*
X229617Y104267D01*
X231663Y104267D01*
D12*
X25448Y51139D02*
X12448Y51139D01*
X12448Y88637D02*
X25448Y88637D01*
D13*
X24725Y47752D02*
X22524Y44633D01*
X20323Y47752D01*
X22524Y44633D02*
X22524Y41148D01*
X17043Y46284D02*
X15209Y47752D01*
X15209Y41148D01*
X17043Y41148D02*
X13375Y41148D01*
D11*
X193167Y187031D02*
X193167Y188668D01*
X193167Y187031D02*
X193169Y186953D01*
X193174Y186875D01*
X193184Y186798D01*
X193197Y186721D01*
X193213Y186645D01*
X193233Y186570D01*
X193257Y186496D01*
X193284Y186423D01*
X193315Y186351D01*
X193349Y186281D01*
X193386Y186213D01*
X193427Y186146D01*
X193471Y186081D01*
X193517Y186019D01*
X193567Y185959D01*
X193619Y185901D01*
X193674Y185846D01*
X193732Y185794D01*
X193792Y185744D01*
X193854Y185698D01*
X193919Y185654D01*
X193986Y185613D01*
X194054Y185576D01*
X194124Y185542D01*
X194196Y185511D01*
X194269Y185484D01*
X194343Y185460D01*
X194418Y185440D01*
X194494Y185424D01*
X194571Y185411D01*
X194648Y185401D01*
X194726Y185396D01*
X194804Y185394D01*
X198896Y185394D01*
X198974Y185396D01*
X199052Y185401D01*
X199129Y185411D01*
X199206Y185424D01*
X199282Y185440D01*
X199357Y185460D01*
X199431Y185484D01*
X199504Y185511D01*
X199576Y185542D01*
X199646Y185576D01*
X199715Y185613D01*
X199781Y185654D01*
X199846Y185698D01*
X199908Y185744D01*
X199968Y185794D01*
X200026Y185846D01*
X200081Y185901D01*
X200133Y185959D01*
X200183Y186019D01*
X200229Y186081D01*
X200273Y186146D01*
X200314Y186213D01*
X200351Y186281D01*
X200385Y186351D01*
X200416Y186423D01*
X200443Y186496D01*
X200467Y186570D01*
X200487Y186645D01*
X200503Y186721D01*
X200516Y186798D01*
X200526Y186875D01*
X200531Y186953D01*
X200533Y187031D01*
X200533Y188668D01*
X193167Y191513D02*
X193167Y193969D01*
X193169Y194049D01*
X193175Y194129D01*
X193185Y194209D01*
X193198Y194288D01*
X193216Y194367D01*
X193237Y194444D01*
X193263Y194520D01*
X193292Y194595D01*
X193324Y194669D01*
X193360Y194741D01*
X193400Y194811D01*
X193443Y194878D01*
X193489Y194944D01*
X193539Y195007D01*
X193591Y195068D01*
X193646Y195127D01*
X193705Y195182D01*
X193765Y195234D01*
X193829Y195284D01*
X193895Y195330D01*
X193962Y195373D01*
X194032Y195413D01*
X194104Y195449D01*
X194178Y195481D01*
X194252Y195510D01*
X194329Y195536D01*
X194406Y195557D01*
X194485Y195575D01*
X194564Y195588D01*
X194644Y195598D01*
X194724Y195604D01*
X194804Y195606D01*
X195622Y195606D01*
X195700Y195604D01*
X195778Y195599D01*
X195855Y195589D01*
X195932Y195576D01*
X196008Y195560D01*
X196083Y195540D01*
X196157Y195516D01*
X196230Y195489D01*
X196302Y195458D01*
X196372Y195424D01*
X196441Y195387D01*
X196507Y195346D01*
X196572Y195302D01*
X196634Y195256D01*
X196694Y195206D01*
X196752Y195154D01*
X196807Y195099D01*
X196859Y195041D01*
X196909Y194981D01*
X196955Y194919D01*
X196999Y194854D01*
X197040Y194788D01*
X197077Y194719D01*
X197111Y194649D01*
X197142Y194577D01*
X197169Y194504D01*
X197193Y194430D01*
X197213Y194355D01*
X197229Y194279D01*
X197242Y194202D01*
X197252Y194125D01*
X197257Y194047D01*
X197259Y193969D01*
X197259Y191513D01*
X200533Y191513D01*
X200533Y195606D01*
D14*
X203950Y121400D02*
X203950Y98400D01*
X203950Y121400D02*
X155950Y121400D01*
X138950Y104400D01*
X138950Y98400D01*
X138950Y79400D02*
X138950Y73400D01*
X155950Y56400D01*
X203950Y56400D01*
X203950Y79400D01*
X200950Y98400D02*
X200709Y99118D01*
X200450Y99831D01*
X200174Y100536D01*
X199881Y101235D01*
X199571Y101927D01*
X199244Y102610D01*
X198901Y103286D01*
X198541Y103953D01*
X198165Y104611D01*
X197773Y105259D01*
X197365Y105898D01*
X196942Y106526D01*
X196503Y107144D01*
X196050Y107751D01*
X195581Y108347D01*
X195099Y108931D01*
X194602Y109503D01*
X194091Y110063D01*
X193567Y110610D01*
X193030Y111145D01*
X192479Y111666D01*
X191916Y112173D01*
X191341Y112666D01*
X190754Y113146D01*
X190156Y113610D01*
X189546Y114060D01*
X188925Y114495D01*
X188294Y114915D01*
X187653Y115319D01*
X187003Y115707D01*
X186342Y116079D01*
X185674Y116435D01*
X184996Y116775D01*
X184310Y117098D01*
X183617Y117404D01*
X182917Y117693D01*
X182209Y117964D01*
X181496Y118219D01*
X180776Y118456D01*
X180050Y118675D01*
X179320Y118876D01*
X178585Y119060D01*
X177845Y119225D01*
X177102Y119372D01*
X176355Y119501D01*
X175605Y119612D01*
X174853Y119705D01*
X174099Y119779D01*
X173343Y119834D01*
X172586Y119871D01*
X171829Y119890D01*
X171071Y119890D01*
X170314Y119871D01*
X169557Y119834D01*
X168801Y119779D01*
X168047Y119705D01*
X167295Y119612D01*
X166545Y119501D01*
X165798Y119372D01*
X165055Y119225D01*
X164315Y119060D01*
X163580Y118876D01*
X162850Y118675D01*
X162124Y118456D01*
X161404Y118219D01*
X160691Y117964D01*
X159983Y117693D01*
X159283Y117404D01*
X158590Y117098D01*
X157904Y116775D01*
X157226Y116435D01*
X156558Y116079D01*
X155897Y115707D01*
X155247Y115319D01*
X154606Y114915D01*
X153975Y114495D01*
X153354Y114060D01*
X152744Y113610D01*
X152146Y113146D01*
X151559Y112666D01*
X150984Y112173D01*
X150421Y111666D01*
X149870Y111145D01*
X149333Y110610D01*
X148809Y110063D01*
X148298Y109503D01*
X147801Y108931D01*
X147319Y108347D01*
X146850Y107751D01*
X146397Y107144D01*
X145958Y106526D01*
X145535Y105898D01*
X145127Y105259D01*
X144735Y104611D01*
X144359Y103953D01*
X143999Y103286D01*
X143656Y102610D01*
X143329Y101927D01*
X143019Y101235D01*
X142726Y100536D01*
X142450Y99831D01*
X142191Y99118D01*
X141950Y98400D01*
X141950Y79400D02*
X142191Y78682D01*
X142450Y77969D01*
X142726Y77264D01*
X143019Y76565D01*
X143329Y75873D01*
X143656Y75190D01*
X143999Y74514D01*
X144359Y73847D01*
X144735Y73189D01*
X145127Y72541D01*
X145535Y71902D01*
X145958Y71274D01*
X146397Y70656D01*
X146850Y70049D01*
X147319Y69453D01*
X147801Y68869D01*
X148298Y68297D01*
X148809Y67737D01*
X149333Y67190D01*
X149870Y66655D01*
X150421Y66134D01*
X150984Y65627D01*
X151559Y65134D01*
X152146Y64654D01*
X152744Y64190D01*
X153354Y63740D01*
X153975Y63305D01*
X154606Y62885D01*
X155247Y62481D01*
X155897Y62093D01*
X156558Y61721D01*
X157226Y61365D01*
X157904Y61025D01*
X158590Y60702D01*
X159283Y60396D01*
X159983Y60107D01*
X160691Y59836D01*
X161404Y59581D01*
X162124Y59344D01*
X162850Y59125D01*
X163580Y58924D01*
X164315Y58740D01*
X165055Y58575D01*
X165798Y58428D01*
X166545Y58299D01*
X167295Y58188D01*
X168047Y58095D01*
X168801Y58021D01*
X169557Y57966D01*
X170314Y57929D01*
X171071Y57910D01*
X171829Y57910D01*
X172586Y57929D01*
X173343Y57966D01*
X174099Y58021D01*
X174853Y58095D01*
X175605Y58188D01*
X176355Y58299D01*
X177102Y58428D01*
X177845Y58575D01*
X178585Y58740D01*
X179320Y58924D01*
X180050Y59125D01*
X180776Y59344D01*
X181496Y59581D01*
X182209Y59836D01*
X182917Y60107D01*
X183617Y60396D01*
X184310Y60702D01*
X184996Y61025D01*
X185674Y61365D01*
X186342Y61721D01*
X187003Y62093D01*
X187653Y62481D01*
X188294Y62885D01*
X188925Y63305D01*
X189546Y63740D01*
X190156Y64190D01*
X190754Y64654D01*
X191341Y65134D01*
X191916Y65627D01*
X192479Y66134D01*
X193030Y66655D01*
X193567Y67190D01*
X194091Y67737D01*
X194602Y68297D01*
X195099Y68869D01*
X195581Y69453D01*
X196050Y70049D01*
X196503Y70656D01*
X196942Y71274D01*
X197365Y71902D01*
X197773Y72541D01*
X198165Y73189D01*
X198541Y73847D01*
X198901Y74514D01*
X199244Y75190D01*
X199571Y75873D01*
X199881Y76565D01*
X200174Y77264D01*
X200450Y77969D01*
X200709Y78682D01*
X200950Y79400D01*
D11*
X124119Y85217D02*
X122482Y85217D01*
X124119Y85217D02*
X124197Y85219D01*
X124275Y85224D01*
X124352Y85234D01*
X124429Y85247D01*
X124505Y85263D01*
X124580Y85283D01*
X124654Y85307D01*
X124727Y85334D01*
X124799Y85365D01*
X124869Y85399D01*
X124938Y85436D01*
X125004Y85477D01*
X125069Y85521D01*
X125131Y85567D01*
X125191Y85617D01*
X125249Y85669D01*
X125304Y85724D01*
X125356Y85782D01*
X125406Y85842D01*
X125452Y85904D01*
X125496Y85969D01*
X125537Y86036D01*
X125574Y86104D01*
X125608Y86174D01*
X125639Y86246D01*
X125666Y86319D01*
X125690Y86393D01*
X125710Y86468D01*
X125726Y86544D01*
X125739Y86621D01*
X125749Y86698D01*
X125754Y86776D01*
X125756Y86854D01*
X125756Y90946D01*
X125754Y91024D01*
X125749Y91102D01*
X125739Y91179D01*
X125726Y91256D01*
X125710Y91332D01*
X125690Y91407D01*
X125666Y91481D01*
X125639Y91554D01*
X125608Y91626D01*
X125574Y91696D01*
X125537Y91765D01*
X125496Y91831D01*
X125452Y91896D01*
X125406Y91958D01*
X125356Y92018D01*
X125304Y92076D01*
X125249Y92131D01*
X125191Y92183D01*
X125131Y92233D01*
X125069Y92279D01*
X125004Y92323D01*
X124938Y92364D01*
X124869Y92401D01*
X124799Y92435D01*
X124727Y92466D01*
X124654Y92493D01*
X124580Y92517D01*
X124505Y92537D01*
X124429Y92553D01*
X124352Y92566D01*
X124275Y92576D01*
X124197Y92581D01*
X124119Y92583D01*
X122482Y92583D01*
X119637Y89309D02*
X117181Y89309D01*
X117101Y89307D01*
X117021Y89301D01*
X116941Y89291D01*
X116862Y89278D01*
X116783Y89260D01*
X116706Y89239D01*
X116630Y89213D01*
X116555Y89184D01*
X116481Y89152D01*
X116409Y89116D01*
X116339Y89076D01*
X116272Y89033D01*
X116206Y88987D01*
X116143Y88937D01*
X116082Y88885D01*
X116023Y88830D01*
X115968Y88771D01*
X115916Y88711D01*
X115866Y88647D01*
X115820Y88581D01*
X115777Y88514D01*
X115737Y88444D01*
X115701Y88372D01*
X115669Y88298D01*
X115640Y88224D01*
X115614Y88147D01*
X115593Y88070D01*
X115575Y87991D01*
X115562Y87912D01*
X115552Y87832D01*
X115546Y87752D01*
X115544Y87672D01*
X115544Y87263D01*
X115546Y87174D01*
X115552Y87085D01*
X115562Y86996D01*
X115575Y86908D01*
X115592Y86820D01*
X115614Y86733D01*
X115639Y86648D01*
X115667Y86563D01*
X115700Y86480D01*
X115736Y86398D01*
X115775Y86318D01*
X115818Y86240D01*
X115864Y86164D01*
X115914Y86089D01*
X115967Y86017D01*
X116023Y85948D01*
X116082Y85881D01*
X116143Y85816D01*
X116208Y85755D01*
X116275Y85696D01*
X116344Y85640D01*
X116416Y85587D01*
X116491Y85537D01*
X116567Y85491D01*
X116645Y85448D01*
X116725Y85409D01*
X116807Y85373D01*
X116890Y85340D01*
X116975Y85312D01*
X117060Y85287D01*
X117147Y85265D01*
X117235Y85248D01*
X117323Y85235D01*
X117412Y85225D01*
X117501Y85219D01*
X117590Y85217D01*
X117679Y85219D01*
X117768Y85225D01*
X117857Y85235D01*
X117945Y85248D01*
X118033Y85265D01*
X118120Y85287D01*
X118205Y85312D01*
X118290Y85340D01*
X118373Y85373D01*
X118455Y85409D01*
X118535Y85448D01*
X118613Y85491D01*
X118689Y85537D01*
X118764Y85587D01*
X118836Y85640D01*
X118905Y85696D01*
X118972Y85755D01*
X119037Y85816D01*
X119098Y85881D01*
X119157Y85948D01*
X119213Y86017D01*
X119266Y86089D01*
X119316Y86164D01*
X119362Y86240D01*
X119405Y86318D01*
X119444Y86398D01*
X119480Y86480D01*
X119513Y86563D01*
X119541Y86648D01*
X119566Y86733D01*
X119588Y86820D01*
X119605Y86908D01*
X119618Y86996D01*
X119628Y87085D01*
X119634Y87174D01*
X119636Y87263D01*
X119637Y87263D02*
X119637Y89309D01*
X119635Y89421D01*
X119629Y89532D01*
X119620Y89644D01*
X119607Y89755D01*
X119589Y89865D01*
X119569Y89975D01*
X119544Y90084D01*
X119516Y90192D01*
X119484Y90299D01*
X119448Y90405D01*
X119409Y90510D01*
X119366Y90613D01*
X119320Y90715D01*
X119270Y90815D01*
X119217Y90914D01*
X119160Y91010D01*
X119101Y91105D01*
X119038Y91197D01*
X118972Y91287D01*
X118903Y91375D01*
X118831Y91461D01*
X118756Y91544D01*
X118678Y91624D01*
X118598Y91702D01*
X118515Y91777D01*
X118429Y91849D01*
X118341Y91918D01*
X118251Y91984D01*
X118159Y92047D01*
X118064Y92106D01*
X117968Y92163D01*
X117869Y92216D01*
X117769Y92266D01*
X117667Y92312D01*
X117564Y92355D01*
X117459Y92394D01*
X117353Y92430D01*
X117246Y92462D01*
X117138Y92490D01*
X117029Y92515D01*
X116919Y92535D01*
X116809Y92553D01*
X116698Y92566D01*
X116586Y92575D01*
X116475Y92581D01*
X116363Y92583D01*
X174117Y184822D02*
X181483Y184822D01*
X181483Y186868D01*
X181481Y186957D01*
X181475Y187046D01*
X181465Y187135D01*
X181452Y187223D01*
X181435Y187311D01*
X181413Y187398D01*
X181388Y187483D01*
X181360Y187568D01*
X181327Y187651D01*
X181291Y187733D01*
X181252Y187813D01*
X181209Y187891D01*
X181163Y187967D01*
X181113Y188042D01*
X181060Y188114D01*
X181004Y188183D01*
X180945Y188250D01*
X180884Y188315D01*
X180819Y188376D01*
X180752Y188435D01*
X180683Y188491D01*
X180611Y188544D01*
X180536Y188594D01*
X180460Y188640D01*
X180382Y188683D01*
X180302Y188722D01*
X180220Y188758D01*
X180137Y188791D01*
X180052Y188819D01*
X179967Y188844D01*
X179880Y188866D01*
X179792Y188883D01*
X179704Y188896D01*
X179615Y188906D01*
X179526Y188912D01*
X179437Y188914D01*
X179348Y188912D01*
X179259Y188906D01*
X179170Y188896D01*
X179082Y188883D01*
X178994Y188866D01*
X178907Y188844D01*
X178822Y188819D01*
X178737Y188791D01*
X178654Y188758D01*
X178572Y188722D01*
X178492Y188683D01*
X178414Y188640D01*
X178338Y188594D01*
X178263Y188544D01*
X178191Y188491D01*
X178122Y188435D01*
X178055Y188376D01*
X177990Y188315D01*
X177929Y188250D01*
X177870Y188183D01*
X177814Y188114D01*
X177761Y188042D01*
X177711Y187967D01*
X177665Y187891D01*
X177622Y187813D01*
X177583Y187733D01*
X177547Y187651D01*
X177514Y187568D01*
X177486Y187483D01*
X177461Y187398D01*
X177439Y187311D01*
X177422Y187223D01*
X177409Y187135D01*
X177399Y187046D01*
X177393Y186957D01*
X177391Y186868D01*
X177391Y184822D01*
X177391Y187277D02*
X174117Y188914D01*
X179642Y196179D02*
X179727Y196177D01*
X179812Y196171D01*
X179896Y196161D01*
X179980Y196148D01*
X180064Y196130D01*
X180146Y196109D01*
X180227Y196084D01*
X180307Y196055D01*
X180386Y196022D01*
X180463Y195986D01*
X180538Y195946D01*
X180612Y195903D01*
X180683Y195857D01*
X180752Y195807D01*
X180819Y195754D01*
X180883Y195698D01*
X180944Y195639D01*
X181003Y195578D01*
X181059Y195514D01*
X181112Y195447D01*
X181162Y195378D01*
X181208Y195307D01*
X181251Y195233D01*
X181291Y195158D01*
X181327Y195081D01*
X181360Y195002D01*
X181389Y194922D01*
X181414Y194841D01*
X181435Y194759D01*
X181453Y194675D01*
X181466Y194591D01*
X181476Y194507D01*
X181482Y194422D01*
X181484Y194337D01*
X181483Y194337D02*
X181481Y194241D01*
X181475Y194145D01*
X181465Y194050D01*
X181452Y193955D01*
X181434Y193860D01*
X181413Y193767D01*
X181388Y193674D01*
X181359Y193583D01*
X181327Y193492D01*
X181291Y193403D01*
X181251Y193316D01*
X181208Y193230D01*
X181162Y193146D01*
X181112Y193064D01*
X181058Y192984D01*
X181002Y192907D01*
X180942Y192832D01*
X180880Y192759D01*
X180814Y192689D01*
X180746Y192621D01*
X180675Y192556D01*
X180602Y192495D01*
X180526Y192436D01*
X180447Y192380D01*
X180367Y192328D01*
X180284Y192279D01*
X180200Y192233D01*
X180114Y192191D01*
X180026Y192153D01*
X179937Y192118D01*
X179846Y192086D01*
X178210Y195564D02*
X178269Y195624D01*
X178331Y195681D01*
X178395Y195736D01*
X178462Y195787D01*
X178531Y195836D01*
X178601Y195882D01*
X178674Y195925D01*
X178748Y195965D01*
X178824Y196001D01*
X178902Y196034D01*
X178981Y196064D01*
X179061Y196091D01*
X179142Y196114D01*
X179224Y196133D01*
X179306Y196149D01*
X179390Y196162D01*
X179474Y196171D01*
X179558Y196176D01*
X179642Y196178D01*
X178209Y195564D02*
X174117Y192086D01*
X174117Y196178D01*
X177128Y41783D02*
X177128Y34417D01*
X177128Y41783D02*
X175082Y41783D01*
X174993Y41781D01*
X174904Y41775D01*
X174815Y41765D01*
X174727Y41752D01*
X174639Y41735D01*
X174552Y41713D01*
X174467Y41688D01*
X174382Y41660D01*
X174299Y41627D01*
X174217Y41591D01*
X174137Y41552D01*
X174059Y41509D01*
X173983Y41463D01*
X173908Y41413D01*
X173836Y41360D01*
X173767Y41304D01*
X173700Y41245D01*
X173635Y41184D01*
X173574Y41119D01*
X173515Y41052D01*
X173459Y40983D01*
X173406Y40911D01*
X173356Y40836D01*
X173310Y40760D01*
X173267Y40682D01*
X173228Y40602D01*
X173192Y40520D01*
X173159Y40437D01*
X173131Y40352D01*
X173106Y40267D01*
X173084Y40180D01*
X173067Y40092D01*
X173054Y40004D01*
X173044Y39915D01*
X173038Y39826D01*
X173036Y39737D01*
X173038Y39648D01*
X173044Y39559D01*
X173054Y39470D01*
X173067Y39382D01*
X173084Y39294D01*
X173106Y39207D01*
X173131Y39122D01*
X173159Y39037D01*
X173192Y38954D01*
X173228Y38872D01*
X173267Y38792D01*
X173310Y38714D01*
X173356Y38638D01*
X173406Y38563D01*
X173459Y38491D01*
X173515Y38422D01*
X173574Y38355D01*
X173635Y38290D01*
X173700Y38229D01*
X173767Y38170D01*
X173836Y38114D01*
X173908Y38061D01*
X173983Y38011D01*
X174059Y37965D01*
X174137Y37922D01*
X174217Y37883D01*
X174299Y37847D01*
X174382Y37814D01*
X174467Y37786D01*
X174552Y37761D01*
X174639Y37739D01*
X174727Y37722D01*
X174815Y37709D01*
X174904Y37699D01*
X174993Y37693D01*
X175082Y37691D01*
X177128Y37691D01*
X174673Y37691D02*
X173036Y34417D01*
X169864Y34417D02*
X167818Y34417D01*
X167729Y34419D01*
X167640Y34425D01*
X167551Y34435D01*
X167463Y34448D01*
X167375Y34465D01*
X167288Y34487D01*
X167203Y34512D01*
X167118Y34540D01*
X167035Y34573D01*
X166953Y34609D01*
X166873Y34648D01*
X166795Y34691D01*
X166719Y34737D01*
X166644Y34787D01*
X166572Y34840D01*
X166503Y34896D01*
X166436Y34955D01*
X166371Y35016D01*
X166310Y35081D01*
X166251Y35148D01*
X166195Y35217D01*
X166142Y35289D01*
X166092Y35364D01*
X166046Y35440D01*
X166003Y35518D01*
X165964Y35598D01*
X165928Y35680D01*
X165895Y35763D01*
X165867Y35848D01*
X165842Y35933D01*
X165820Y36020D01*
X165803Y36108D01*
X165790Y36196D01*
X165780Y36285D01*
X165774Y36374D01*
X165772Y36463D01*
X165774Y36552D01*
X165780Y36641D01*
X165790Y36730D01*
X165803Y36818D01*
X165820Y36906D01*
X165842Y36993D01*
X165867Y37078D01*
X165895Y37163D01*
X165928Y37246D01*
X165964Y37328D01*
X166003Y37408D01*
X166046Y37486D01*
X166092Y37562D01*
X166142Y37637D01*
X166195Y37709D01*
X166251Y37778D01*
X166310Y37845D01*
X166371Y37910D01*
X166436Y37971D01*
X166503Y38030D01*
X166572Y38086D01*
X166644Y38139D01*
X166719Y38189D01*
X166795Y38235D01*
X166873Y38278D01*
X166953Y38317D01*
X167035Y38353D01*
X167118Y38386D01*
X167203Y38414D01*
X167288Y38439D01*
X167375Y38461D01*
X167463Y38478D01*
X167551Y38491D01*
X167640Y38501D01*
X167729Y38507D01*
X167818Y38509D01*
X167409Y41783D02*
X169864Y41783D01*
X167409Y41783D02*
X167330Y41781D01*
X167251Y41775D01*
X167172Y41766D01*
X167094Y41753D01*
X167017Y41735D01*
X166941Y41715D01*
X166866Y41690D01*
X166792Y41662D01*
X166719Y41631D01*
X166648Y41595D01*
X166579Y41557D01*
X166512Y41515D01*
X166447Y41470D01*
X166384Y41422D01*
X166323Y41371D01*
X166266Y41317D01*
X166210Y41261D01*
X166158Y41202D01*
X166108Y41140D01*
X166062Y41076D01*
X166018Y41010D01*
X165978Y40942D01*
X165942Y40872D01*
X165908Y40800D01*
X165878Y40726D01*
X165852Y40652D01*
X165829Y40576D01*
X165811Y40499D01*
X165795Y40422D01*
X165784Y40343D01*
X165776Y40265D01*
X165772Y40186D01*
X165772Y40106D01*
X165776Y40027D01*
X165784Y39949D01*
X165795Y39870D01*
X165811Y39793D01*
X165829Y39716D01*
X165852Y39640D01*
X165878Y39566D01*
X165908Y39492D01*
X165942Y39420D01*
X165978Y39350D01*
X166018Y39282D01*
X166062Y39216D01*
X166108Y39152D01*
X166158Y39090D01*
X166210Y39031D01*
X166266Y38975D01*
X166323Y38921D01*
X166384Y38870D01*
X166447Y38822D01*
X166512Y38777D01*
X166579Y38735D01*
X166648Y38697D01*
X166719Y38661D01*
X166792Y38630D01*
X166866Y38602D01*
X166941Y38577D01*
X167017Y38557D01*
X167094Y38539D01*
X167172Y38526D01*
X167251Y38517D01*
X167330Y38511D01*
X167409Y38509D01*
X169046Y38509D01*
D10*
X178650Y225900D02*
X189650Y225900D01*
X189650Y205900D02*
X178650Y205900D01*
D11*
X170053Y209312D02*
X162687Y209312D01*
X162687Y208494D02*
X162687Y210131D01*
X170053Y210131D02*
X170053Y208494D01*
X162687Y214732D02*
X162687Y216369D01*
X162687Y214732D02*
X162689Y214654D01*
X162694Y214576D01*
X162704Y214499D01*
X162717Y214422D01*
X162733Y214346D01*
X162753Y214271D01*
X162777Y214197D01*
X162804Y214124D01*
X162835Y214052D01*
X162869Y213982D01*
X162906Y213914D01*
X162947Y213847D01*
X162991Y213782D01*
X163037Y213720D01*
X163087Y213660D01*
X163139Y213602D01*
X163194Y213547D01*
X163252Y213495D01*
X163312Y213445D01*
X163374Y213399D01*
X163439Y213355D01*
X163506Y213314D01*
X163574Y213277D01*
X163644Y213243D01*
X163716Y213212D01*
X163789Y213185D01*
X163863Y213161D01*
X163938Y213141D01*
X164014Y213125D01*
X164091Y213112D01*
X164168Y213102D01*
X164246Y213097D01*
X164324Y213095D01*
X168416Y213095D01*
X168494Y213097D01*
X168572Y213102D01*
X168649Y213112D01*
X168726Y213125D01*
X168802Y213141D01*
X168877Y213161D01*
X168951Y213185D01*
X169024Y213212D01*
X169096Y213243D01*
X169166Y213277D01*
X169235Y213314D01*
X169301Y213355D01*
X169366Y213399D01*
X169428Y213445D01*
X169488Y213495D01*
X169546Y213547D01*
X169601Y213602D01*
X169653Y213660D01*
X169703Y213720D01*
X169749Y213782D01*
X169793Y213847D01*
X169834Y213914D01*
X169871Y213982D01*
X169905Y214052D01*
X169936Y214124D01*
X169963Y214197D01*
X169987Y214271D01*
X170007Y214346D01*
X170023Y214422D01*
X170036Y214499D01*
X170046Y214576D01*
X170051Y214654D01*
X170053Y214732D01*
X170053Y216369D01*
X168416Y219214D02*
X170053Y221260D01*
X162687Y221260D01*
X162687Y219214D02*
X162687Y223306D01*
D10*
X145200Y225900D02*
X134200Y225900D01*
X134200Y205900D02*
X145200Y205900D01*
D11*
X146288Y228727D02*
X146288Y236093D01*
X147106Y228727D02*
X145469Y228727D01*
X145469Y236093D02*
X147106Y236093D01*
X140868Y228727D02*
X139231Y228727D01*
X140868Y228727D02*
X140946Y228729D01*
X141024Y228734D01*
X141101Y228744D01*
X141178Y228757D01*
X141254Y228773D01*
X141329Y228793D01*
X141403Y228817D01*
X141476Y228844D01*
X141548Y228875D01*
X141618Y228909D01*
X141687Y228946D01*
X141753Y228987D01*
X141818Y229031D01*
X141880Y229077D01*
X141940Y229127D01*
X141998Y229179D01*
X142053Y229234D01*
X142105Y229292D01*
X142155Y229352D01*
X142201Y229414D01*
X142245Y229479D01*
X142286Y229546D01*
X142323Y229614D01*
X142357Y229684D01*
X142388Y229756D01*
X142415Y229829D01*
X142439Y229903D01*
X142459Y229978D01*
X142475Y230054D01*
X142488Y230131D01*
X142498Y230208D01*
X142503Y230286D01*
X142505Y230364D01*
X142505Y234456D01*
X142503Y234534D01*
X142498Y234612D01*
X142488Y234689D01*
X142475Y234766D01*
X142459Y234842D01*
X142439Y234917D01*
X142415Y234991D01*
X142388Y235064D01*
X142357Y235136D01*
X142323Y235206D01*
X142286Y235275D01*
X142245Y235341D01*
X142201Y235406D01*
X142155Y235468D01*
X142105Y235528D01*
X142053Y235586D01*
X141998Y235641D01*
X141940Y235693D01*
X141880Y235743D01*
X141818Y235789D01*
X141753Y235833D01*
X141687Y235874D01*
X141618Y235911D01*
X141548Y235945D01*
X141476Y235976D01*
X141403Y236003D01*
X141329Y236027D01*
X141254Y236047D01*
X141178Y236063D01*
X141101Y236076D01*
X141024Y236086D01*
X140946Y236091D01*
X140868Y236093D01*
X139231Y236093D01*
X136386Y228727D02*
X134340Y228727D01*
X134251Y228729D01*
X134162Y228735D01*
X134073Y228745D01*
X133985Y228758D01*
X133897Y228775D01*
X133810Y228797D01*
X133725Y228822D01*
X133640Y228850D01*
X133557Y228883D01*
X133475Y228919D01*
X133395Y228958D01*
X133317Y229001D01*
X133241Y229047D01*
X133166Y229097D01*
X133094Y229150D01*
X133025Y229206D01*
X132958Y229265D01*
X132893Y229326D01*
X132832Y229391D01*
X132773Y229458D01*
X132717Y229527D01*
X132664Y229599D01*
X132614Y229674D01*
X132568Y229750D01*
X132525Y229828D01*
X132486Y229908D01*
X132450Y229990D01*
X132417Y230073D01*
X132389Y230158D01*
X132364Y230243D01*
X132342Y230330D01*
X132325Y230418D01*
X132312Y230506D01*
X132302Y230595D01*
X132296Y230684D01*
X132294Y230773D01*
X132296Y230862D01*
X132302Y230951D01*
X132312Y231040D01*
X132325Y231128D01*
X132342Y231216D01*
X132364Y231303D01*
X132389Y231388D01*
X132417Y231473D01*
X132450Y231556D01*
X132486Y231638D01*
X132525Y231718D01*
X132568Y231796D01*
X132614Y231872D01*
X132664Y231947D01*
X132717Y232019D01*
X132773Y232088D01*
X132832Y232155D01*
X132893Y232220D01*
X132958Y232281D01*
X133025Y232340D01*
X133094Y232396D01*
X133166Y232449D01*
X133241Y232499D01*
X133317Y232545D01*
X133395Y232588D01*
X133475Y232627D01*
X133557Y232663D01*
X133640Y232696D01*
X133725Y232724D01*
X133810Y232749D01*
X133897Y232771D01*
X133985Y232788D01*
X134073Y232801D01*
X134162Y232811D01*
X134251Y232817D01*
X134340Y232819D01*
X133931Y236093D02*
X136386Y236093D01*
X133931Y236093D02*
X133852Y236091D01*
X133773Y236085D01*
X133694Y236076D01*
X133616Y236063D01*
X133539Y236045D01*
X133463Y236025D01*
X133388Y236000D01*
X133314Y235972D01*
X133241Y235941D01*
X133170Y235905D01*
X133101Y235867D01*
X133034Y235825D01*
X132969Y235780D01*
X132906Y235732D01*
X132845Y235681D01*
X132788Y235627D01*
X132732Y235571D01*
X132680Y235512D01*
X132630Y235450D01*
X132584Y235386D01*
X132540Y235320D01*
X132500Y235252D01*
X132464Y235182D01*
X132430Y235110D01*
X132400Y235036D01*
X132374Y234962D01*
X132351Y234886D01*
X132333Y234809D01*
X132317Y234732D01*
X132306Y234653D01*
X132298Y234575D01*
X132294Y234496D01*
X132294Y234416D01*
X132298Y234337D01*
X132306Y234259D01*
X132317Y234180D01*
X132333Y234103D01*
X132351Y234026D01*
X132374Y233950D01*
X132400Y233876D01*
X132430Y233802D01*
X132464Y233730D01*
X132500Y233660D01*
X132540Y233592D01*
X132584Y233526D01*
X132630Y233462D01*
X132680Y233400D01*
X132732Y233341D01*
X132788Y233285D01*
X132845Y233231D01*
X132906Y233180D01*
X132969Y233132D01*
X133034Y233087D01*
X133101Y233045D01*
X133170Y233007D01*
X133241Y232971D01*
X133314Y232940D01*
X133388Y232912D01*
X133463Y232887D01*
X133539Y232867D01*
X133616Y232849D01*
X133694Y232836D01*
X133773Y232827D01*
X133852Y232821D01*
X133931Y232819D01*
X135567Y232819D01*
X208842Y231267D02*
X210479Y231267D01*
X210557Y231269D01*
X210635Y231274D01*
X210712Y231284D01*
X210789Y231297D01*
X210865Y231313D01*
X210940Y231333D01*
X211014Y231357D01*
X211087Y231384D01*
X211159Y231415D01*
X211229Y231449D01*
X211298Y231486D01*
X211364Y231527D01*
X211429Y231571D01*
X211491Y231617D01*
X211551Y231667D01*
X211609Y231719D01*
X211664Y231774D01*
X211716Y231832D01*
X211766Y231892D01*
X211812Y231954D01*
X211856Y232019D01*
X211897Y232086D01*
X211934Y232154D01*
X211968Y232224D01*
X211999Y232296D01*
X212026Y232369D01*
X212050Y232443D01*
X212070Y232518D01*
X212086Y232594D01*
X212099Y232671D01*
X212109Y232748D01*
X212114Y232826D01*
X212116Y232904D01*
X212116Y236996D01*
X212114Y237074D01*
X212109Y237152D01*
X212099Y237229D01*
X212086Y237306D01*
X212070Y237382D01*
X212050Y237457D01*
X212026Y237531D01*
X211999Y237604D01*
X211968Y237676D01*
X211934Y237746D01*
X211897Y237815D01*
X211856Y237881D01*
X211812Y237946D01*
X211766Y238008D01*
X211716Y238068D01*
X211664Y238126D01*
X211609Y238181D01*
X211551Y238233D01*
X211491Y238283D01*
X211429Y238329D01*
X211364Y238373D01*
X211298Y238414D01*
X211229Y238451D01*
X211159Y238485D01*
X211087Y238516D01*
X211014Y238543D01*
X210940Y238567D01*
X210865Y238587D01*
X210789Y238603D01*
X210712Y238616D01*
X210635Y238626D01*
X210557Y238631D01*
X210479Y238633D01*
X208842Y238633D01*
X204360Y234541D02*
X201904Y234541D01*
X204360Y234541D02*
X204438Y234543D01*
X204516Y234548D01*
X204593Y234558D01*
X204670Y234571D01*
X204746Y234587D01*
X204821Y234607D01*
X204895Y234631D01*
X204968Y234658D01*
X205040Y234689D01*
X205110Y234723D01*
X205179Y234760D01*
X205245Y234801D01*
X205310Y234845D01*
X205372Y234891D01*
X205432Y234941D01*
X205490Y234993D01*
X205545Y235048D01*
X205597Y235106D01*
X205647Y235166D01*
X205693Y235228D01*
X205737Y235293D01*
X205778Y235360D01*
X205815Y235428D01*
X205849Y235498D01*
X205880Y235570D01*
X205907Y235643D01*
X205931Y235717D01*
X205951Y235792D01*
X205967Y235868D01*
X205980Y235945D01*
X205990Y236022D01*
X205995Y236100D01*
X205997Y236178D01*
X205997Y236587D01*
X205996Y236587D02*
X205994Y236676D01*
X205988Y236765D01*
X205978Y236854D01*
X205965Y236942D01*
X205948Y237030D01*
X205926Y237117D01*
X205901Y237202D01*
X205873Y237287D01*
X205840Y237370D01*
X205804Y237452D01*
X205765Y237532D01*
X205722Y237610D01*
X205676Y237686D01*
X205626Y237761D01*
X205573Y237833D01*
X205517Y237902D01*
X205458Y237969D01*
X205397Y238034D01*
X205332Y238095D01*
X205265Y238154D01*
X205196Y238210D01*
X205124Y238263D01*
X205049Y238313D01*
X204973Y238359D01*
X204895Y238402D01*
X204815Y238441D01*
X204733Y238477D01*
X204650Y238510D01*
X204565Y238538D01*
X204480Y238563D01*
X204393Y238585D01*
X204305Y238602D01*
X204217Y238615D01*
X204128Y238625D01*
X204039Y238631D01*
X203950Y238633D01*
X203861Y238631D01*
X203772Y238625D01*
X203683Y238615D01*
X203595Y238602D01*
X203507Y238585D01*
X203420Y238563D01*
X203335Y238538D01*
X203250Y238510D01*
X203167Y238477D01*
X203085Y238441D01*
X203005Y238402D01*
X202927Y238359D01*
X202851Y238313D01*
X202776Y238263D01*
X202704Y238210D01*
X202635Y238154D01*
X202568Y238095D01*
X202503Y238034D01*
X202442Y237969D01*
X202383Y237902D01*
X202327Y237833D01*
X202274Y237761D01*
X202224Y237686D01*
X202178Y237610D01*
X202135Y237532D01*
X202096Y237452D01*
X202060Y237370D01*
X202027Y237287D01*
X201999Y237202D01*
X201974Y237117D01*
X201952Y237030D01*
X201935Y236942D01*
X201922Y236854D01*
X201912Y236765D01*
X201906Y236676D01*
X201904Y236587D01*
X201904Y234541D01*
X201906Y234429D01*
X201912Y234318D01*
X201921Y234206D01*
X201934Y234095D01*
X201952Y233985D01*
X201972Y233875D01*
X201997Y233766D01*
X202025Y233658D01*
X202057Y233551D01*
X202093Y233445D01*
X202132Y233340D01*
X202175Y233237D01*
X202221Y233135D01*
X202271Y233035D01*
X202324Y232936D01*
X202381Y232840D01*
X202440Y232745D01*
X202503Y232653D01*
X202569Y232563D01*
X202638Y232475D01*
X202710Y232389D01*
X202785Y232306D01*
X202863Y232226D01*
X202943Y232148D01*
X203026Y232073D01*
X203112Y232001D01*
X203200Y231932D01*
X203290Y231866D01*
X203382Y231803D01*
X203477Y231744D01*
X203573Y231687D01*
X203672Y231634D01*
X203772Y231584D01*
X203874Y231538D01*
X203977Y231495D01*
X204082Y231456D01*
X204188Y231420D01*
X204295Y231388D01*
X204403Y231360D01*
X204512Y231335D01*
X204622Y231315D01*
X204732Y231297D01*
X204843Y231284D01*
X204955Y231275D01*
X205066Y231269D01*
X205178Y231267D01*
X114427Y185011D02*
X114427Y183374D01*
X114429Y183296D01*
X114434Y183218D01*
X114444Y183141D01*
X114457Y183064D01*
X114473Y182988D01*
X114493Y182913D01*
X114517Y182839D01*
X114544Y182766D01*
X114575Y182694D01*
X114609Y182624D01*
X114646Y182556D01*
X114687Y182489D01*
X114731Y182424D01*
X114777Y182362D01*
X114827Y182302D01*
X114879Y182244D01*
X114934Y182189D01*
X114992Y182137D01*
X115052Y182087D01*
X115114Y182041D01*
X115179Y181997D01*
X115246Y181956D01*
X115314Y181919D01*
X115384Y181885D01*
X115456Y181854D01*
X115529Y181827D01*
X115603Y181803D01*
X115678Y181783D01*
X115754Y181767D01*
X115831Y181754D01*
X115908Y181744D01*
X115986Y181739D01*
X116064Y181737D01*
X120156Y181737D01*
X120234Y181739D01*
X120312Y181744D01*
X120389Y181754D01*
X120466Y181767D01*
X120542Y181783D01*
X120617Y181803D01*
X120691Y181827D01*
X120764Y181854D01*
X120836Y181885D01*
X120906Y181919D01*
X120975Y181956D01*
X121041Y181997D01*
X121106Y182041D01*
X121168Y182087D01*
X121228Y182137D01*
X121286Y182189D01*
X121341Y182244D01*
X121393Y182302D01*
X121443Y182362D01*
X121489Y182424D01*
X121533Y182489D01*
X121574Y182556D01*
X121611Y182624D01*
X121645Y182694D01*
X121676Y182766D01*
X121703Y182839D01*
X121727Y182913D01*
X121747Y182988D01*
X121763Y183064D01*
X121776Y183141D01*
X121786Y183218D01*
X121791Y183296D01*
X121793Y183374D01*
X121793Y185011D01*
X120156Y187856D02*
X121793Y189902D01*
X114427Y189902D01*
X114427Y187856D02*
X114427Y191948D01*
X120156Y195171D02*
X121793Y197217D01*
X114427Y197217D01*
X114427Y195171D02*
X114427Y199263D01*
M02*
