G04 EAGLE Gerber X2 export*
%TF.Part,Single*%
%TF.FileFunction,Soldermask,Bot,1*%
%TF.FilePolarity,Negative*%
%TF.GenerationSoftware,Autodesk,EAGLE,9.1.1*%
%TF.CreationDate,2018-10-01T15:01:31Z*%
G75*
%MOMM*%
%FSLAX34Y34*%
%LPD*%
%AMOC8*
5,1,8,0,0,1.08239X$1,22.5*%
G01*
%ADD10R,0.497000X1.127000*%
%ADD11R,1.127000X0.497000*%
%ADD12R,4.377000X4.377000*%
%ADD13R,1.227000X1.127000*%
%ADD14R,1.127000X1.227000*%
%ADD15C,5.461000*%
%ADD16C,0.577000*%
%ADD17R,1.534156X3.495038*%
%ADD18R,3.127000X1.527000*%
%ADD19C,2.006600*%
%ADD20R,0.827000X0.527000*%


D10*
X31300Y155500D03*
X37800Y155500D03*
X44300Y155500D03*
X50800Y155500D03*
X57300Y155500D03*
X63800Y155500D03*
X70300Y155500D03*
D11*
X79300Y146500D03*
X79300Y140000D03*
X79300Y133500D03*
X79300Y127000D03*
X79300Y120500D03*
X79300Y114000D03*
X79300Y107500D03*
D10*
X70300Y98500D03*
X63800Y98500D03*
X57300Y98500D03*
X50800Y98500D03*
X44300Y98500D03*
X37800Y98500D03*
X31300Y98500D03*
D11*
X22300Y107500D03*
X22300Y114000D03*
X22300Y120500D03*
X22300Y127000D03*
X22300Y133500D03*
X22300Y140000D03*
X22300Y146500D03*
D12*
X50800Y127000D03*
D13*
X33900Y177800D03*
X16900Y177800D03*
D14*
X50800Y78350D03*
X50800Y61350D03*
D15*
X222250Y31750D03*
X31750Y222250D03*
D16*
X26325Y81850D02*
X11775Y81850D01*
X11775Y69850D02*
X26325Y69850D01*
X26325Y57850D02*
X11775Y57850D01*
D17*
X19075Y69875D03*
D14*
X196850Y156600D03*
X196850Y173600D03*
D18*
X195450Y88900D03*
X147450Y88900D03*
D13*
X177800Y156600D03*
X177800Y173600D03*
D14*
X154550Y38100D03*
X137550Y38100D03*
D19*
X25400Y26670D03*
X50800Y24130D03*
X76200Y26670D03*
D20*
X192650Y222400D03*
X192650Y215900D03*
X192650Y209400D03*
X175650Y209400D03*
X175650Y222400D03*
X148200Y222400D03*
X148200Y215900D03*
X148200Y209400D03*
X131200Y209400D03*
X131200Y222400D03*
D13*
X175650Y234950D03*
X192650Y234950D03*
D14*
X118110Y224400D03*
X118110Y207400D03*
M02*
