G04 EAGLE Gerber X2 export*
%TF.Part,Single*%
%TF.FileFunction,Paste,Top*%
%TF.FilePolarity,Positive*%
%TF.GenerationSoftware,Autodesk,EAGLE,9.1.1*%
%TF.CreationDate,2018-10-01T15:01:31Z*%
G75*
%MOMM*%
%FSLAX34Y34*%
%LPD*%
%AMOC8*
5,1,8,0,0,1.08239X$1,22.5*%
G01*
%ADD10R,1.000000X1.100000*%
%ADD11R,1.400000X1.000000*%
%ADD12R,0.600000X1.550000*%
%ADD13R,1.200000X1.800000*%
%ADD14R,0.500000X0.500000*%
%ADD15R,0.203200X0.482600*%
%ADD16R,0.482600X0.203200*%
%ADD17R,1.100000X1.000000*%
%ADD18R,1.670000X0.450000*%
%ADD19R,0.900000X0.500000*%
%ADD20R,0.700000X0.400000*%


D10*
X82550Y182000D03*
X82550Y199000D03*
X171450Y213750D03*
X171450Y230750D03*
D11*
X71550Y63500D03*
X93550Y73000D03*
X93550Y54000D03*
D12*
X169700Y38100D03*
X159700Y38100D03*
X149700Y38100D03*
X139700Y38100D03*
D13*
X126700Y15850D03*
X182380Y15850D03*
D14*
X50800Y127000D03*
D15*
X40767Y108458D03*
X45847Y108458D03*
X50800Y108458D03*
X55753Y108458D03*
X60833Y108458D03*
X40767Y145542D03*
X45847Y145542D03*
X50800Y145542D03*
X55753Y145542D03*
X60833Y145542D03*
D16*
X32258Y116967D03*
X32258Y122047D03*
X32258Y127000D03*
X32258Y131953D03*
X32258Y137033D03*
X69342Y116967D03*
X69342Y122047D03*
X69342Y127000D03*
X69342Y131953D03*
X69342Y137033D03*
D17*
X80400Y90170D03*
X97400Y90170D03*
D11*
X192200Y222250D03*
X214200Y231750D03*
X214200Y212750D03*
D10*
X234950Y230750D03*
X234950Y213750D03*
D18*
X122800Y182250D03*
X122800Y175750D03*
X122800Y169250D03*
X122800Y162750D03*
X122800Y156250D03*
X122800Y149750D03*
X122800Y143250D03*
X122800Y136750D03*
X122800Y130250D03*
X122800Y123750D03*
X122800Y117250D03*
X122800Y110750D03*
X122800Y104250D03*
X122800Y97750D03*
X122800Y91250D03*
X122800Y84750D03*
X122800Y78250D03*
X122800Y71750D03*
X220100Y71750D03*
X220100Y78250D03*
X220100Y84750D03*
X220100Y91250D03*
X220100Y97750D03*
X220100Y104250D03*
X220100Y110750D03*
X220100Y117250D03*
X220100Y123750D03*
X220100Y130250D03*
X220100Y136750D03*
X220100Y143250D03*
X220100Y149750D03*
X220100Y156250D03*
X220100Y162750D03*
X220100Y169250D03*
X220100Y175750D03*
X220100Y182250D03*
D19*
X80900Y132650D03*
X96900Y132650D03*
X80900Y124650D03*
X96900Y124650D03*
X80900Y116650D03*
X96900Y116650D03*
X80900Y108650D03*
X96900Y108650D03*
D12*
X89700Y215900D03*
X99700Y215900D03*
X109700Y215900D03*
X119700Y215900D03*
X129700Y215900D03*
X139700Y215900D03*
D13*
X152700Y238150D03*
X76700Y238150D03*
D20*
X29600Y177950D03*
X29600Y171450D03*
X29600Y164950D03*
X46600Y164950D03*
X46600Y177950D03*
M02*
