G04 EAGLE Gerber X2 export*
%TF.Part,Single*%
%TF.FileFunction,Soldermask,Top,1*%
%TF.FilePolarity,Negative*%
%TF.GenerationSoftware,Autodesk,EAGLE,9.1.1*%
%TF.CreationDate,2018-10-01T15:01:31Z*%
G75*
%MOMM*%
%FSLAX34Y34*%
%LPD*%
%AMOC8*
5,1,8,0,0,1.08239X$1,22.5*%
G01*
%ADD10R,1.127000X1.227000*%
%ADD11R,1.527000X1.127000*%
%ADD12R,0.727000X1.677000*%
%ADD13R,1.327000X1.927000*%
%ADD14R,1.127000X1.127000*%
%ADD15R,0.527000X0.327000*%
%ADD16R,0.327000X0.527000*%
%ADD17R,1.227000X1.127000*%
%ADD18R,1.797000X0.577000*%
%ADD19R,1.027000X0.627000*%
%ADD20C,5.461000*%
%ADD21R,2.127000X2.127000*%
%ADD22C,2.006600*%
%ADD23R,0.827000X0.527000*%


D10*
X82550Y182000D03*
X82550Y199000D03*
X171450Y213750D03*
X171450Y230750D03*
D11*
X71550Y63500D03*
X93550Y73000D03*
X93550Y54000D03*
D12*
X169700Y38100D03*
X159700Y38100D03*
X149700Y38100D03*
X139700Y38100D03*
D13*
X126700Y15850D03*
X182380Y15850D03*
D14*
X50800Y127000D03*
D15*
X37800Y135000D03*
D16*
X42800Y140000D03*
X46800Y140000D03*
X50800Y140000D03*
X54800Y140000D03*
X58800Y140000D03*
D15*
X63800Y135000D03*
X63800Y131000D03*
X63800Y127000D03*
X63800Y123000D03*
X63800Y119000D03*
D16*
X58800Y114000D03*
X54800Y114000D03*
X50800Y114000D03*
X46800Y114000D03*
X42800Y114000D03*
D15*
X37800Y131000D03*
X37800Y127000D03*
X37800Y123000D03*
X37800Y119000D03*
D17*
X80400Y90170D03*
X97400Y90170D03*
D11*
X192200Y222250D03*
X214200Y231750D03*
X214200Y212750D03*
D10*
X234950Y230750D03*
X234950Y213750D03*
D18*
X122800Y182250D03*
X122800Y175750D03*
X122800Y169250D03*
X122800Y162750D03*
X122800Y156250D03*
X122800Y149750D03*
X122800Y143250D03*
X122800Y136750D03*
X122800Y130250D03*
X122800Y123750D03*
X122800Y117250D03*
X122800Y110750D03*
X122800Y104250D03*
X122800Y97750D03*
X122800Y91250D03*
X122800Y84750D03*
X122800Y78250D03*
X122800Y71750D03*
X220100Y71750D03*
X220100Y78250D03*
X220100Y84750D03*
X220100Y91250D03*
X220100Y97750D03*
X220100Y104250D03*
X220100Y110750D03*
X220100Y117250D03*
X220100Y123750D03*
X220100Y130250D03*
X220100Y136750D03*
X220100Y143250D03*
X220100Y149750D03*
X220100Y156250D03*
X220100Y162750D03*
X220100Y169250D03*
X220100Y175750D03*
X220100Y182250D03*
D19*
X80900Y132650D03*
X96900Y132650D03*
X80900Y124650D03*
X96900Y124650D03*
X80900Y116650D03*
X96900Y116650D03*
X80900Y108650D03*
X96900Y108650D03*
D20*
X222250Y31750D03*
D21*
X241300Y171450D03*
X241300Y82550D03*
X241300Y146050D03*
X241300Y107950D03*
D12*
X89700Y215900D03*
X99700Y215900D03*
X109700Y215900D03*
X119700Y215900D03*
X129700Y215900D03*
X139700Y215900D03*
D13*
X152700Y238150D03*
X76700Y238150D03*
D20*
X31750Y222250D03*
D22*
X25400Y26670D03*
X50800Y24130D03*
X76200Y26670D03*
D23*
X29600Y177950D03*
X29600Y171450D03*
X29600Y164950D03*
X46600Y164950D03*
X46600Y177950D03*
M02*
